<?xml version="1.0" encoding="UTF-8"?>
<svg id="Layer_1" data-name="Layer 1" xmlns="http://www.w3.org/2000/svg" viewBox="0 0 315.95 552">
  <defs>
    <style>
      .cls-1 {
        fill: #000;
      }

      .cls-1, .cls-2 {
        stroke-width: 0px;
      }

      .cls-2 {
        fill: #fff;
      }
    </style>
  </defs>
  <g>
    <path class="cls-2" d="M130.9,542c-5.7,0-11.26-1.91-16.17-3.59-2.61-.9-5.08-1.74-7.02-2.12-10.7-2.06-15.69-6.06-19.77-15.86-.42-1.01-.53-1.09-1.55-1.92-1.99-1.6-5.69-4.58-6.72-11.1-.88-5.55,1.47-10.03,3.54-13.99,1.9-3.62,3.85-7.36,3.97-12.64.15-6.96,1.25-12.25,2.14-16.5.96-4.59,1.59-7.62,1.05-11.62-.21-1.57-.45-2.53-.62-3.08-.54-.15-1.25-.31-1.82-.45l-.98-.23c-4.62-1.1-8.65-3.78-12.22-6.14-1.15-.76-2.81-1.86-3.75-2.35-1.73-.02-2.98-.08-4.19-.14-1.39-.07-2.7-.13-4.93-.13-.54,0-1.42.05-2.34.11-1.45.09-3.09.19-4.87.19-9.62,0-16.19-3.39-19.53-10.06-3.63-7.26-4.73-12.76-4.84-13.36l-.04-.24-.03-.24c-.58-4.22-1.46-10.6,2.63-17.45,3.2-5.35,8.99-10.28,19.36-16.51,7.45-4.47,7.98-6.38,8.15-7,1.07-3.84,3.28-8.52,10.91-10.71,2.81-.8,4.81-1.16,6.62-1.19.4-.21.92-.48,1.58-.83,4.84-2.59,9.81-2.89,13.13-2.89,1.13,0,2.22.04,3.23.09.05-.79.06-1.54,0-2.13-10.73-4-22.7-16.87-26.59-22.43-1.19-.82-4.08-2.35-6.25-3.49-8.46-4.46-20.04-10.57-26.87-20.48-10.42-15.13-14.07-39.51-7.97-53.24.76-1.72,1.4-3.39,2.01-5.01,3.03-8,6.17-16.27,21.08-22.48,6.6-2.75,12.06-3.43,15.97-3.65-.38-.37-.79-.77-1.22-1.2-3.13-3.07-7.42-7.27-11.82-10.61-6.01-4.56-8.47-4.61-8.49-4.61-1.57.12-3.25.33-5.03.54-3.18.38-6.46.78-9.69.78-16.22,0-19.73-11.15-20.48-15.95-2.21-14,4.12-28.68,8.2-35.15,4.64-7.35,19.93-13.19,32.41-16.49-3.53-4.73-5.39-11.3-5.52-19.64-.27-16.41,6.95-43.05,14.99-48.85,2.14-1.54,4.75-2.36,7.56-2.36,10.82,0,29.23,15.39,39.24,24.57,5.07,4.65,7.63,11.63,9.89,17.8.32.87.7,1.91,1.09,2.92,8.07-11.39,27.72-14.59,38.21-14.59,8.28,0,10.72-.53,11.44-.81.02-.03.06-.06.09-.11,2.73-3.27,6.23-4.42,8.33-5.1.02,0,.04-.01.06-.02.02-.25.03-.55.03-.91,0-7.74.8-15.56,10.32-18.67.13-.04.26-.08.41-.13.76-.67,1.5-1.22,2.19-1.67.05-1.62.07-3.84.07-6.64,0-21.87,11.04-35.46,14.67-39.92.2-.25.69-.94,1.12-1.54,3.99-5.61,13.34-18.76,28.65-18.76,6.26,0,12.52,2.24,18.6,6.65,20.26,14.68,22.21,25.14,18.74,38.23l-.24.91c-1.55,5.98-1.56,12.09-.9,14.15,4.69,4.51,16.88,17.87,13.71,32.37-2.07,9.45-12.83,32.53-27.45,34.83-.19.24-.41.52-.59.76-2.43,3.17-6.95,9.08-17.87,10.35-1.93.22-3.82.34-5.63.34h0c-8.05,0-13.45-2.24-17.02-3.73-.89-.37-1.8-.75-2.4-.93-.61.12-2,.55-3.14.91-3.72,1.17-9.35,2.94-17.53,3.46l-1.08.07c-11.79.75-13.02.83-23.54,6.2-2.53,1.3-4.47,2.34-5.94,3.18.83.78,1.65,1.56,2.46,2.34,3.76,3.59,7.65,7.31,10.8,9.17l.58.34c6.78,4,15.08,8.9,17.17,17.65,3.66-2.09,4.43-2.8,6.58-7.24,2.88-5.94,3.32-6.86,4.85-8.74.25-.31.6-.74,1.48-2.05,4.57-6.85,13.26-8.58,20.24-9.96,1.5-.3,3.77-.75,4.46-1.01l.11-.05c3.53-1.55,10.89-4.77,18.39-4.77s13.19,3.05,16.75,8.59c4.92,7.65,5.68,12.69,6.57,18.52.28,1.86.57,3.78,1.04,6.12,4.86,24.3-6.95,31.94-12.25,34.1-1.88.77-3.51,1.32-4.82,1.76-.38.13-.79.27-1.18.4,0,.05-.02.1-.02.16-.41,2.86-1.36,5.16-2.51,7,.68.63,1.36,1.27,2.04,1.9,4.63,4.3,8.67,8.05,11.09,11.04,1.11-.07,2.58-.28,3.67-.45,1.69-.26,3.36-.39,4.95-.39,10.89,0,18.84,6.03,21.27,16.14.71,2.96,1.05,3.56,2.3,5.82.97,1.76,2.31,4.16,4.14,8.2,4.34,9.55,4.97,19.26,1.68,25.98-2.15,4.39-5.86,7.41-10.44,8.5-.76.18-1.63.43-2.61.71-4.02,1.14-10.09,2.86-16.66,2.86-6.22,0-11.82-1.53-16.62-4.55-6.78-4.26-17.58-8.19-23.92-10.22-.25,1.13-.52,2.23-.78,3.29-.14.57-.31,1.24-.46,1.91,3.01,2.05,4.82,4.38,6.24,6.21,1.24,1.6,2.22,2.86,4.25,4.38.52.39,1.06.79,1.61,1.2,8.26,6.13,20.74,15.39,15.8,27.75-.3.76-.65,1.76-1.02,2.82-2.31,6.6-6.6,18.9-18.65,20.34-2.4.29-5.43,1.22-8.36,2.12-4.39,1.35-8.93,2.75-13.45,2.75-3.57,0-7.1.63-9.03,1.26-.85,4.96-1.52,11.54-1.4,13.93.14.4.26.78.38,1.16.9,2.81,1.2,3.5,3.51,4.17,1.81.52,3.37,1.04,4.76,1.49,1.19.39,2.6.85,3.52,1.08,3.73-3.07,8.77-4.63,14.99-4.63,5.89,0,12.06,1.35,16.77,2.53,7.77,1.94,10.55,7.01,11.9,9.57.16.02.35.05.57.07,11.2,1.18,15.58,3.69,21.8,7.68.69.44,1.42.92,2.22,1.41l1.29.8c6.85,4.23,19.6,12.11,15.56,27.46-2.45,9.28-11.17,27.13-16.07,31.48-4.91,4.36-22.64,10.04-25.48,10.56-.89.16-1.87.24-2.98.24-5.78,0-18.29-2.46-22.35-3.51-.48-.12-1.52-.27-3.75-.27-1.48,0-3.22.06-5.07.13-2.31.08-4.93.18-7.76.18-5.83,0-10.29-1.18-13.87-2.13-1.97-.52-3.68-.97-4.77-.97-6.96,0-18.11-2.59-23.39-5.43-2.52-1.35-4.1-3.14-5.13-4.71-2.95.32-5.54.4-7.65.46-.05,0-.11,0-.17,0-1.29,6.57-1.41,8.72-1.41,9.28,0,1.26-.07,2.47-.14,3.74-.17,2.96-.37,6.33.34,11.6,1.07,8-2.73,12.79-5,15.64-1.86,2.34-3.2,4.03-3.39,9.48-.63,17.57-8,27.25-22.54,29.58-1.2.19-2.45.29-3.73.29ZM100.66,360.25h0ZM139.73,281.97c.77,2.73,2.02,6.98,3.31,9.12l.29.49c2-.6,3.93-.72,5.66-.83,1.54-.1,2.99-.19,4.65-.58,1.23-.29,2.46-.44,3.66-.44,1.65,0,3.1.26,4.38.67.25-.99.59-1.92,1.01-2.79-.35-2.58-.75-5.79-.91-8.03-.15-1.96.06-4.77,1.71-7.48-2.35.76-5.49,2.05-7.84,3.02l-1.02.42c-3.84,1.57-7.16,1.77-9.62,1.77h-.27c-1.73,2.15-3.4,3.61-5.02,4.65Z"/>
    <path class="cls-1" d="M233.88,20c3.78,0,8.03,1.34,12.74,4.75,19.49,14.13,16.67,20.91,14.69,28.53-1.98,7.63-2.85,19.49,1.4,23.45,4.25,3.96,13.29,14.41,11.31,23.45-1.98,9.04-11.58,26.27-19.49,27.12-7.91.85-5.65,9.61-17.8,11.02-1.62.19-3.1.27-4.47.27-8.96,0-13.15-3.53-17.56-4.51-.56-.12-1.11-.18-1.68-.18-4.56,0-9.67,3.66-21.49,4.42-13.28.85-15.82.85-28.53,7.35-12.71,6.5-18.36,10.45-12.15,15.82,6.22,5.37,12.71,12.71,18.93,16.39,6.21,3.67,12.71,7.35,13.28,12.71.44,4.15,2.73,8.63,6.88,8.63,1.22,0,2.6-.39,4.14-1.29,6.78-3.95,9.89-4.8,14.12-13.56,4.24-8.76,2.26-4.52,5.65-9.6,3.39-5.09,15.82-5.37,20.34-7.35,2.82-1.23,9.03-4,14.54-4,3.34,0,6.42,1.01,8.34,4,5.08,7.91,4.24,11.3,6.21,21.19,1.98,9.89,1.41,19.78-6.21,22.88-7.63,3.11-11.02,2.26-12.15,10.17-1.13,7.91-10.17,5.37-4.1,11.3,6.07,5.93,14.27,13,17.09,16.67,1.9,2.48,3.68,3.41,6.89,3.41,1.55,0,3.43-.22,5.82-.59,1.18-.18,2.33-.28,3.43-.28,5.72,0,10.12,2.55,11.54,8.47,1.69,7.06,2.83,6.5,7.06,15.82,4.24,9.32,3.96,19.21-1.98,20.62-3.79.9-10.22,3.3-16.95,3.3-3.81,0-7.72-.77-11.3-3.02-9.89-6.22-25.99-11.3-29.95-12.43-2.01-.57-4.31-1.66-6.02-1.66s-2.73,1.01-2.46,4.49c.57,7.06-5.93,17.52,0,20.06,5.93,2.54,5.65,6.5,12.43,11.58,6.78,5.09,16.39,11.58,14.13,17.23-2.26,5.65-4.52,16.1-11.58,16.95-7.06.85-14.97,4.8-20.62,4.8s-17.23,1.41-18.36,6.78c-1.13,5.37-2.83,18.36-1.7,21.19,1.13,2.83,1.98,9.61,10.74,12.15,5.36,1.56,8.82,3.11,11.8,3.11,1.88,0,3.58-.62,5.44-2.27,2.09-1.85,5.26-2.51,8.82-2.51,4.61,0,9.88,1.12,14.34,2.23,7.91,1.98,3.11,8.76,13.84,9.89,10.74,1.13,13,3.39,19.78,7.63,6.78,4.24,14.78,8.48,12.48,17.23-2.31,8.76-10.5,24.3-13.04,26.56-2.54,2.26-17.52,7.63-20.62,8.19-.3.06-.71.08-1.19.08-4.48,0-15.9-2.17-19.85-3.19-1.75-.45-3.84-.59-6.24-.59-3.6,0-7.91.31-12.82.31-8.19,0-13.28-3.11-18.65-3.11s-14.97-2.26-18.65-4.24c-3.31-1.78-1.34-6.09-7.76-6.09-.7,0-1.5.05-2.41.16-9.32,1.13-15.42-.57-16.33,3.67-.91,4.24-2.6,12.43-2.6,16.1s-.85,8.19.28,16.67c1.13,8.48-7.91,7.63-8.48,23.45-.56,15.82-7.06,18.93-14.13,20.06-.7.11-1.41.16-2.14.16-6.69,0-14.68-4.26-21.3-5.53-7.35-1.41-9.61-3.11-12.43-9.89-2.83-6.78-6.78-5.37-7.63-10.74-.85-5.37,7.35-11.58,7.63-24.86.28-13.28,4.52-19.21,3.11-29.66-1.41-10.45-5.09-10.74-11.02-12.15-5.93-1.41-13-8.76-17.23-8.76s-5.37-.28-10.17-.28c-1.87,0-4.5.3-7.21.3-4.26,0-8.69-.74-10.59-4.54-3.11-6.21-3.96-10.74-3.96-10.74-1.13-8.19-1.13-13,17.23-24.01,18.36-11.02,8.76-14.41,16.67-16.67,2.26-.65,3.41-.81,4.09-.81.68,0,.88.16,1.25.16.54,0,1.44-.36,4.83-2.18,2.56-1.37,5.53-1.71,8.41-1.71,2.78,0,5.48.31,7.63.31,2.51,0,4.28-.43,4.59-2.28.85-5.08,3.39-16.67-4.8-19.21-8.19-2.54-20.06-14.97-22.88-19.49-2.83-4.52-24.01-10.74-32.77-23.45-8.76-12.71-11.58-33.34-7.06-43.51,4.52-10.17,4.24-16.67,17.8-22.32,13.56-5.65,20.34-.28,21.75-6.21,1.41-5.93,4.24-7.63-.57-11.87-4.69-4.14-19.89-21.22-30.6-21.22-.25,0-.51,0-.75.03-4.72.37-9.71,1.29-13.97,1.29-5.42,0-9.66-1.49-10.61-7.51-1.69-10.74,3.39-22.88,6.78-28.25,3.39-5.37,24.86-13,38.7-14.69,13.84-1.7,9.61-1.41-4.24-10.74-13.84-9.32-.28-53.11,4.8-56.78.44-.32,1.02-.47,1.7-.47,7.16,0,26.29,16.27,32.48,21.94,6.78,6.22,8.48,24.01,13.84,24.58,2.96.31,5.15,1.91,6.94,1.91,1.46,0,2.66-1.06,3.8-4.74,2.54-8.19,18.36-13,31.36-13s16.39-1.13,19.21-4.52c2.82-3.39,10.73-.56,10.73-12.43s2.54-7.06,7.35-11.3,5.65,2.26,5.65-15.82,8.76-29.1,12.43-33.62c2.79-3.43,10.12-16.61,22.01-16.61M145.02,267.31c-.46,0-.9,0-1.32,0-2.28,0-4.16.21-6.13,2.93-3.67,5.08-5.65,3.67-8.19,5.76-2.54,2.09-.85,3.28,0,6.11.85,2.82,2.54,9.89,5.08,14.13l.85,2.54c.64,1.91,5.09,2.86,8.1,2.86,1.01,0,1.85-.11,2.35-.32,1.98-.85,5.37-.28,10.17-1.41.5-.12.95-.17,1.37-.17,3.62,0,4.7,4.02,10.78,5.54.78.2,1.44.29,2,.29,4.27,0,2.39-5.33,1.39-9.33-1.13-4.52,1.69-5.93,1.69-5.93,0,0-1.13-7.63-1.41-11.45-.28-3.82,5.65-3.24,6.21-5.22.57-1.98.28-2.54,0-7.63-.28-5.08-7.06-4.24-11.02-4.52-.2-.01-.41-.02-.62-.02-3.94,0-9.58,2.41-15.48,4.82-2.27.93-4.16,1.03-5.83,1.03M233.88,0c-20.47,0-32.33,16.68-36.8,22.97-.27.39-.64.9-.8,1.11-4.25,5.23-16.84,20.86-16.84,46.15,0,.24,0,.47,0,.7-9.66,4.99-12.14,14.06-12.78,20.69-1.15.68-2.33,1.5-3.51,2.5-1.3.09-3.39.18-6.66.18-9.29,0-23.02,2.02-34.03,8.14-2.03-4.13-4.66-8.22-8.39-11.64-1.4-1.28-8.83-8.02-17.49-14.43-12.25-9.07-20.51-12.77-28.5-12.77-4.92,0-9.56,1.47-13.41,4.25-2.56,1.85-8.54,6.17-14.31,25.7-1.89,6.39-5.02,18.96-4.82,31.43.08,5.07.72,9.44,1.74,13.21-.57.2-1.13.41-1.69.62-17.11,6.34-22.55,12.31-25.39,16.79-6,9.5-12.12,26.22-9.63,42.05,1.86,11.79,10.81,24.39,30.36,24.39,3.83,0,7.58-.45,10.89-.85.94-.11,1.85-.22,2.72-.32.53.28,1.14.65,1.82,1.12-18.02,7.86-22.37,19.32-25.56,27.72-.59,1.56-1.15,3.03-1.8,4.5-7.59,17.08-3.69,44.74,8.87,62.97,8.22,11.94,21.6,18.99,30.44,23.65,1.3.68,2.93,1.54,4.07,2.19,2.35,3.04,5.97,7.15,10.32,11.21-1.29.25-2.68.59-4.2,1.02-8.69,2.48-14.48,7.83-17.26,15.92-.74.59-2.04,1.53-4.2,2.83-11.88,7.13-18.7,13.1-22.8,19.95-5.9,9.86-4.63,19.02-3.95,23.94l.07.48.09.47c.23,1.21,1.57,7.69,5.72,15.99,2.91,5.82,10.48,15.59,28.47,15.59,2.09,0,3.97-.12,5.48-.21.61-.04,1.45-.09,1.74-.09,1.96,0,3.1.06,4.42.12.55.03,1.13.06,1.77.08.4.26.81.53,1.15.76,3.11,2.06,6.81,4.52,11.24,6.22-.16,1.26-.47,2.77-.91,4.9-.97,4.65-2.18,10.44-2.35,18.33-.06,2.8-1.01,4.75-2.83,8.22-2.37,4.53-5.95,11.37-4.56,20.19,1.47,9.29,6.73,14.34,9.5,16.66,5.38,12.08,12.94,17.87,26.53,20.49,1.25.24,3.6,1.05,5.67,1.76,5.37,1.84,12.05,4.13,19.41,4.13,1.8,0,3.59-.14,5.31-.41,3.32-.53,13.42-2.15,21.28-10.97,6.08-6.83,9.24-16.03,9.68-28.12.05-1.52.24-2.23.29-2.4.16-.24.6-.8.93-1.22,2.61-3.28,8.71-10.97,7.08-23.19-.58-4.33-.43-6.94-.27-9.7,0-.14.02-.28.02-.42,7.29,3.83,19.91,6.41,27.51,6.49.55.1,1.71.41,2.58.64,3.7.98,9.3,2.47,16.44,2.47,3.01,0,5.72-.1,8.12-.18,1.83-.07,3.41-.12,4.71-.12.92,0,1.41.03,1.62.05,3.85.95,17.1,3.73,24.47,3.73,1.72,0,3.28-.13,4.77-.4,4.12-.75,11.21-3.36,14.06-4.45,9.78-3.73,13.58-6.08,16.27-8.47,1.47-1.31,4.92-4.37,11.18-16.78,2.15-4.25,6.03-12.46,7.92-19.63,2.67-10.12.32-20.07-6.61-28.02-4.24-4.86-9.3-7.98-13.36-10.49-.42-.26-.83-.51-1.24-.77-.76-.48-1.46-.93-2.12-1.35-6.42-4.12-11.65-7.07-21.84-8.65-2.77-3.63-7.5-7.98-15.4-9.96-5.27-1.32-12.21-2.83-19.19-2.83-6.29,0-11.81,1.24-16.49,3.69-.18-.06-.36-.12-.55-.18.05-.61.11-1.27.18-1.96.04,0,.09,0,.13,0,6.03,0,11.53-1.7,16.39-3.19,2.39-.74,5.11-1.57,6.61-1.75,5.02-.6,14.47-3.27,21.29-14.35,2.76-4.48,4.4-9.19,5.61-12.63.33-.95.65-1.86.87-2.41,1.59-3.98,4.06-13.59-3.06-24.32,2.47.43,5.02.64,7.65.64,7.96,0,14.84-1.95,19.39-3.24.85-.24,1.73-.49,2.2-.6,7.43-1.77,13.67-6.81,17.11-13.84,4.66-9.52,4.09-22.1-1.55-34.52-2-4.4-3.51-7.11-4.5-8.91q-.93-1.67-1.32-3.3c-3.47-14.46-15.63-23.8-30.99-23.8-1.54,0-3.13.09-4.73.28-.99-1.01-2.05-2.04-3.17-3.12,8.96-4.21,15.04-12.21,17.21-22.69,1.32-6.4,1.17-13.79-.47-21.96-.42-2.11-.7-3.91-.96-5.66-.97-6.38-1.97-12.97-8.04-22.42-2.97-4.62-7.09-8.15-11.97-10.39.05-.06.1-.12.15-.18,7.74-2.51,14.83-8.63,21.14-18.24,4.92-7.49,8.78-16.22,10.34-23.33,3.71-16.95-7.18-31.78-13.89-39.01.04-1.83.31-4.51.99-7.14l.23-.86c1.24-4.67,3.55-13.38-.4-23.7-3.35-8.75-10.17-16.52-22.14-25.19-7.83-5.67-16.06-8.55-24.47-8.55h0ZM179.14,160.11c3.12-1.17,5.67-1.33,12.58-1.77l1.08-.07c4.31-.28,7.97-.84,11.08-1.5-2.48,1.79-4.77,4.04-6.68,6.89-.61.92-.79,1.14-.91,1.29-1.32,1.62-2.14,2.86-3.19,4.82-4.11-3.79-8.79-6.55-12.59-8.79l-.57-.34c-.25-.15-.52-.33-.81-.53h0Z"/>
  </g>
  <g>
    <path class="cls-2" d="M132.81,76.39c-2.72,0-5.2-.58-7.42-1.73-.55.11-1.16.21-1.82.27-.41.04-.79.06-1.13.08-1.28.51-2.65.77-4.07.77-5.72,0-10.48-4.27-11.32-10.14-.1-.67-.17-1.71-.01-2.94-.72-1.28-1.18-2.38-1.47-3.21-.22-.51-.41-.97-.57-1.39-1.67-1.68-3.63-4.23-4.38-7.6-.53-2.37-.4-4.62-.28-6.6.07-1.14.13-2.22.07-3.2-.06-.89-.09-1.64-.11-2.32-.06-1.65-.07-1.67-.27-2.23-2.08-5.78-.12-9.87,1.23-11.8,1.31-1.86,4.33-4.93,10.12-5.18,1.49-1.27,2.99-2.14,4.15-2.82.53-.31,1.03-.6,1.41-.86,2.81-1.92,8.05-5.49,14.15-5.49,1.31,0,2.59.17,3.81.49,4.58,1.22,7.17,4.21,8.71,5.99.13.15.25.29.36.42,1.1-.29,2.07-.36,2.76-.36,3.66,0,7.07,1.84,9.4,5.06.35-.04.72-.06,1.11-.06,4.12,0,8.36,2.65,9.73,7.24,3.71,3.93,6.55,9.73,4.66,15.66-.04.2-.09.62-.14.94-.23,1.67-.57,4.2-1.78,7.06-1.89,4.48-6.32,10.2-12.55,11.58-.56.12-1,.24-1.32.34-.27,2.26-1.1,4.93-3.42,7.24-4.2,4.2-10.07,4.2-13.96,4.2-.18,0-.8.1-1.25.17-1.2.18-2.68.4-4.39.4Z"/>
    <path class="cls-1" d="M131.07,20c.42,0,.84.05,1.23.15,3.18.85,3.92,4.45,8.16,6.67,3.03,1.59,3.57,2.91,3.86,2.91.12,0,.19-.21.37-.69.43-1.16,1.12-2.51,2.01-2.51.42,0,.88.29,1.38,1.03,1.49,2.18,2.89,5.02,5.41,5.02.17,0,.34-.01.52-.04,2-.3,2.86-1.01,3.2-1.01.14,0,.19.13.19.48,0,1.17-.53,1.06,1.48,2.86,2.01,1.8,3.81,4.66,3.18,6.57-.64,1.91-.42,4.34-1.59,7.1-1.17,2.75-3.6,5.3-5.51,5.72-1.91.42-4.45,1.17-5.51,2.22-.39.39-.91.42-1.43.42-.1,0-.2,0-.31,0-.79,0-1.53.07-1.76,1.38-.42,2.33.53,5.09-.64,6.25-1.17,1.17-3.92,1.27-6.89,1.27-1.78,0-3.75.57-5.64.57-1.26,0-2.48-.25-3.58-1.1-1.07-.83-1.96-1.09-2.77-1.09-1.27,0-2.38.64-3.8.77-2.33.21-2.97-.11-3.6.53-.19.19-.44.29-.7.29-.61,0-1.27-.52-1.42-1.56-.21-1.48,2.86-1.17.64-3.81-2.22-2.65-2.65-4.45-2.65-4.45-1.59-3.6-.95-3.28-1.4-3.65-.45-.36-2.73-2.07-3.15-3.98s.21-4.87,0-8.26c-.21-3.39,0-4.66-.95-7.31-.91-2.53.21-3.61,2.71-3.61.12,0,.24,0,.36,0,1.54.06,2.16.52,2.64.52.38,0,.68-.28,1.28-1.26,1.38-2.22,3.81-3.07,6.14-4.66,2.04-1.39,5.54-3.76,8.51-3.76M131.07,0C121.9,0,114.73,4.88,111.29,7.23c-.12.08-.52.31-.81.48-.81.47-1.84,1.07-2.98,1.85-5.95,1.08-11.06,4.24-14.44,9.04-4.02,5.72-5.01,12.96-2.78,19.99,0,.06,0,.11,0,.17.03.75.06,1.58.12,2.56.02.38-.03,1.28-.07,2.01-.14,2.37-.32,5.62.51,9.35.87,3.92,2.72,7.53,5.52,10.81.17.44.36.91.58,1.4.03.72.09,1.45.2,2.17,1.55,10.85,10.47,18.73,21.22,18.73,1.99,0,3.95-.28,5.81-.81,2.45.84,5.33,1.41,8.64,1.41,2.45,0,4.51-.31,5.88-.51.13-.02.25-.04.38-.06,4.71-.01,13.59-.31,20.41-7.13,2.06-2.06,3.47-4.26,4.44-6.42,7.42-3.34,12.52-10.07,14.99-15.92,1.73-4.08,2.22-7.67,2.48-9.6,0-.04.01-.09.02-.13,2.13-7.77-.02-16.21-5.75-23.09-2.69-6.12-8.22-10.56-14.99-11.69-3.59-3.14-8-4.98-12.73-5.25-2.37-2.14-5.76-4.49-10.48-5.75C135.39.28,133.25,0,131.07,0h0Z"/>
  </g>
</svg>