<?xml version="1.0" encoding="UTF-8"?>
<svg id="Layer_1" data-name="Layer 1" xmlns="http://www.w3.org/2000/svg" viewBox="0 0 678.67 272.8">
  <defs>
    <style>
      .cls-1 {
        fill: none;
      }

      .cls-1, .cls-2 {
        stroke-width: 0px;
      }

      .cls-2 {
        fill: #fff;
      }
    </style>
  </defs>
  <g>
    <path class="cls-2" d="M489.75,189.69c-4.47-3.63-15.36-12.29-33.23-12.29s-11.45-.84-15.64-5.59.56-7.26-11.17-7.26-8.94-7.82-12.29-10.61c-3.35-2.79-4.47-6.14-4.47-18.99s-4.75-28.49-12.85-31c-8.1-2.51-3.35-5.31-2.79-10.61.56-5.31,18.15-6.98,24.3-13.68,6.14-6.7,24.86-28.77,21.23-33.79-3.63-5.03-46.92-18.43-56.14-4.75-9.22,13.68-8.94,17.87-10.61,4.19-1.68-13.68-9.22-34.91-14.52-38.26-5.31-3.35-17.32-8.38-27.93-6.7-10.61,1.68-6.98,13.68-6.14,24.3.84,10.61-16.76,26.25-20.95,31-4.19,4.75-5.87,1.96-11.73.56-5.86-1.4-.56-8.1-6.14-21.5-5.59-13.41-12.01-13.13-22.06-17.59-10.05-4.47-30.44-1.68-43.01,6.98-12.57,8.66-18.71,29.6-23.18,32.4s-16.76,14.52-19.27,22.62-13.96,5.59-18.99,4.75.56-12.57-3.63-20.39c-4.19-7.82-.56-2.23-2.79-10.05-2.23-7.82-5.59,1.68-16.48-16.48-10.89-18.15-15.64-18.15-23.74-17.04,0,0-4.47.84-10.61,3.91-6.14,3.07-4.19,12.85-4.19,17.59s-.28,5.87-.28,10.05-7.26,11.17-8.66,17.04c-1.4,5.87-1.68,9.5-12.01,10.89-10.33,1.4-16.2-2.79-29.32-3.07-13.13-.28-19.27-8.38-24.58-7.54-5.31.84-3.91,4.75-10.61,7.54-6.7,2.79-8.38,5.03-9.77,12.29-1.4,7.26-6.42,16.2-5.31,23.18,1.12,6.98,4.19,13.41,19.83,13.96,15.64.56,14.8,9.5,23.18,8.38,8.38-1.12,12.85-.28,16.48-.28s11.73,1.68,15.92,2.57c4.19.9,2.51,6.92,3.63,16.14,1.12,9.22-3.91,6.42-5.87,10.05-1.95,3.63-4.19,13.13-4.19,18.43s-3.07,10.33-3.07,18.43.84,14.52-.28,18.85c-1.12,4.33-3.63,17.73-3.07,20.81.56,3.07,5.86,17.87,8.1,20.39s17.59,10.61,26.25,12.89c8.66,2.28,12.85-5.63,17.04-12.34s6.42-8.94,7.54-19.55c1.12-10.61,7.82-5.87,9.77-13.68,1.95-7.82,3.91-18.15-.28-22.9-4.19-4.75-1.68-8.38.84-17.04,2.51-8.66,9.22-9.5,12.01-10.61,2.79-1.12,15.64.56,20.95,1.68,5.31,1.12,6.7,12.57,6.7,18.15s3.91,13.41,4.75,20.39c.84,6.98,11.17,9.22,16.76,11.45,5.59,2.23,12.01-7.26,17.04-13.96,5.03-6.7,8.94-6.42,11.45-12.29,2.51-5.86,12.85.56,19.83,0,6.98-.56,3.91,4.47,2.79,8.38-1.12,3.91-6.14,19.83-12.29,29.6-6.14,9.77-1.12,22.06.28,27.93,1.4,5.87,11.17,6.14,20.39,1.95,9.22-4.19,8.66-5.31,15.64-6.98,6.98-1.68,9.22-7.54,8.1-14.8-1.12-7.26-.84-9.77,2.79-12.57,3.63-2.79,10.61-10.89,16.48-16.9s3.35,2.93,11.17,4.05c7.82,1.12,6.98,4.47,10.05,12.01,3.07,7.54,12.85,8.1,22.62,6.14,9.78-1.95,13.13-1.12,20.95-6.14s1.95-18.15,0-22.62c-1.95-4.47-2.23-16.76-7.26-20.11-5.03-3.35-.84-1.4-9.5-5.59-8.66-4.19-9.5-7.26-13.41-13.96-3.91-6.7,1.95-10.33,7.26-10.89,5.31-.56,8.94-6.98,12.57-13.13,3.63-6.14,10.89-12.57,16.2-18.71s9.22-.56,15.64,12.01c6.42,12.57,6.42,15.08,7.26,28.21.84,13.13,5.31,17.87,4.19,22.9s-5.59,9.77-4.19,21.78c1.4,12.01,10.05,9.77,10.89,17.59.84,7.82,17.87,17.32,26.81,19.27,8.94,1.95,19.27-6.98,23.18-11.18,3.91-4.2,15.64-3.34,23.18-1.39,7.54,1.95,14.24,4.75,28.21-14.52,13.96-19.27-7.26-30.72-11.73-34.35ZM262.97,156.17c-5.03.28-5.59.56-7.54,0-1.95-.56-1.38-6.42-5.16-6.14-3.78.28-11.32,1.4-11.32,1.4,0,0-1.4-2.79-5.86-1.68-4.47,1.12-10.61,3.35-8.94-3.35,1.68-6.7,6.42-7.26,5.31-12.01-1.12-4.75-.56-8.1-1.4-10.05-.84-1.95,0-9.5,2.51-10.33l2.51-.84c4.19-2.51,11.17-4.19,13.96-5.03,2.79-.84,3.97-2.51,6.04,0s.67,4.47,5.69,8.1c5.03,3.63,1.4,6.98,3.91,13.13,2.51,6.14,5.03,12.01,4.75,15.92-.28,3.91.56,10.61-4.47,10.89Z"/>
    <path class="cls-2" d="M470.62,95.83c3.56-1.57,3.25-.94,3.61-1.38s2.05-2.7,3.94-3.12,4.82.21,8.17,0,4.61,0,7.23-.94c2.62-.94,3.67.31,3.56,3.04-.1,2.72-1.47,2.51.73,3.88,2.2,1.36,3.04,3.77,4.61,6.07s4.4,6.49,3.56,9.64c-.84,3.14-4.4,3.88-6.6,8.06s-3.88,3.56-2.2,4.19,3.77,1.78,1.47,3.35-5.34,3.04-4.92,5.86,1.68,3.35.52,3.35-1.05-.52-2.83,1.47c-1.78,1.99-4.61,3.77-6.49,3.14s-4.29-.42-7.02-1.57c-2.72-1.15-5.24-3.56-5.66-5.45-.42-1.89-1.15-4.4-2.2-5.45s.52-3.04-1.78-3.46-5.03.52-6.18-.63-1.26-3.88-1.26-6.81-1.57-6.39.52-9.11.52-4.19.31-6.49.1-2.93-.52-3.56-.21-1.89,1.26-2.09,1.15,2.83,3.77.63c2.62-2.2,4.4-2.62,4.4-2.62Z"/>
  </g>
  <rect class="cls-1" x="628.67" y="97.57" width="50" height="90"/>
</svg>