<?xml version="1.0" encoding="UTF-8"?>
<svg id="Layer_1" xmlns="http://www.w3.org/2000/svg" version="1.1" viewBox="0 0 725.5 2176.6">
  <!-- Generator: Adobe Illustrator 29.3.1, SVG Export Plug-In . SVG Version: 2.1.0 Build 151)  -->
  <defs>
    <style>
      .st0 {
        fill: #00e55c;
      }

      .st1 {
        fill: #be7bff;
      }

      .st2 {
        fill: #9e4aff;
      }

      .st3 {
        fill: #00ff48;
      }

      .st4 {
        fill: #751dff;
      }

      .st5 {
        fill: #5a00ce;
      }

      .st6 {
        fill: #00c46f;
      }
    </style>
  </defs>
  <g id="Layer_7">
    <g id="P_1">
      <path class="st1" d="M.2,262.7c-.2,3.1-.2,6.2-.2,9.3v272.1s725.5,0,725.5,0v-272.1s-181.4,0-181.4,0c0-150.3-121.8-272.1-272.1-272.1-150.3,0-266.9,116.8-271.8,262.7Z"/>
    </g>
  </g>
  <g id="Layer_6">
    <g id="R_1">
      <path class="st2" d="M272.1,181.4c-74.7-1.5-141.4,42.1-189.7,89.4C33.9,320.4,4,373.7.2,444.3c-.2,3-.3,6.1-.3,9.2,0,105.8,0,211.6,0,317.4,150.5,62.7,253.8,36.4,358.5,7.6,99.2-82.3,206.2-161.5,367-189,0-105.8,0-211.6,0-317.4-73.7,31.1-148.9,65.7-217.1,105.7-14.7-51.4-43-97.2-83.2-133.8-40.1-36-92.2-62.8-153.2-62.6h0Z"/>
    </g>
  </g>
  <g id="Layer_5">
    <g id="A_1">
      <path class="st4" d="M101.3,715.6c108.9-18.8,189-86.5,284.9-149.6,94.4-64.4,204.7-124.4,339.3-157.8,0,75.6,0,151.2,0,226.7-79.9,11.6-146.6,36.1-204.9,68.9,2,40.4,4.5,80.8,7.2,121.8-148.4-46.9-265.7-14.1-426.5-109.9h0Z"/>
    </g>
  </g>
  <g id="Layer_4">
    <path class="st5" d="M0,810.6c152.9,104.2,263.2,106.9,371.2,117.5-50.5,40-102.5,80.6-162.9,114.4,61.6,18.9,117.2,29.7,172,46.2-38.5,24.2-79.3,48.5-122.9,71l260.4,86.6c65.7-28.7,131.5-47.2,207.6-37.8,0-29.5,0-59,0-88.4-67.6-63.3-129.5-107.5-187.5-136.5,54.6-27.5,114-44.1,187.5-40.4,0-29.5,0-58.9,0-88.4-152.7-106.3-262.1-107.4-370.5-118.8C246.9,725.7,139.7,705.2,0,589.5c0,73.7,0,147.4,0,221.1H0Z"/>
  </g>
  <g id="Layer_3">
    <g id="D_2">
      <path class="st6" d="M0,1451.1h725.5c0-200.3-162.4-362.8-362.8-362.8S0,1250.7,0,1451.1Z"/>
    </g>
  </g>
  <g id="Layer_2">
    <g id="D_1">
      <path class="st0" d="M0,1632.4h725.5c0-200.3-162.4-362.8-362.8-362.8-200.3,0-362.8,162.4-362.8,362.8Z"/>
    </g>
  </g>
  <g id="Layer_11" data-name="Layer_1">
    <g id="O_1">
      <circle class="st3" cx="362.8" cy="1813.8" r="362.8"/>
    </g>
  </g>
</svg>