<?xml version="1.0" encoding="UTF-8"?>
<svg id="Layer_1" data-name="Layer 1" xmlns="http://www.w3.org/2000/svg" version="1.1" viewBox="0 0 233.33 231.33">
  <defs>
    <style>
      .cls-1 {
        fill: none;
        stroke: #231f20;
        stroke-miterlimit: 10;
      }

      .cls-2 {
        fill: #231f20;
        stroke-width: 0px;
      }
    </style>
  </defs>
  <path class="cls-2" d="M33.52,12.83c.03-.27.04-.36.37-.69.99-1.13,2.59-2.54,4.61-3.06,1.01-.25,2.14-.24,3.33.29,1.2.54,2.48,1.64,3.67,3.56.08.14.39.8.4,1.12-.38,3.78-1.02,7.19-1.38,10.33l-.97,10.1c-.2,2.22-.34,4.36-.38,6.44-.04,2.04.06,4.16.24,6.29.36,4.26,1.06,8.61,1.9,13.03.81,4.31,1.89,8.6,3.06,13.01l1.8,6.67c.6,2.28,1.16,4.37,1.79,6.53,1.04,3.57,2.17,7.09,3.43,10.54,0,0,.32,1.09.86,2.91.55,1.83,1.36,4.33,2.4,7.26,2.06,5.84,5.15,13.2,7.56,19.45,1.02,2.5,1.99,4.6,2.73,6.35.74,1.75,1.27,3.14,1.56,4.21.59,2.14.32,2.94-.5,2.76-.82-.18-2.2-1.31-3.97-3.08-1.75-1.77-3.95-4.24-6.05-7.28.26.69-4.41-6.25-8.81-13.85-2.19-3.79-4.27-7.79-5.7-10.89-1.43-3.08-2.29-5.18-2.29-5.18-1.14-3.23-2.18-6.48-3.12-9.73-.66-2.25-1.29-4.62-1.87-6.79l-1.8-6.67c-1.2-4.49-2.38-9.14-3.28-13.89-.88-4.63-1.67-9.39-2.09-14.31-.2-2.46-.32-4.96-.28-7.52.04-2.53.21-4.98.42-7.35l1-10.44c.43-3.7,1.06-7.05,1.36-10.12Z"/>
  <path class="cls-2" d="M33.2,10.05c.09-.12.13-.17.5-.17,1.15-.1,3.07.02,4.75,1.19.84.58,1.64,1.36,2.41,2.31.77.95,1.58,1.98,2.32,3.25.05.09.21.48.18.61-.03.04-.17.25-.42.6-.15.21-.34.46-.55.76-.23.29-.48.62-.77.99-.48.59-1.06,1.31-1.72,2.12-.28.36-.55.71-.8,1.06-.12.17-.23.35-.35.53-.19.29-.38.58-.58.88-.78,1.18-1.61,2.35-2.4,3.5-.81,1.18-1.45,2.19-2.22,3.52-1.49,2.57-2.97,5.46-4.4,8.44-1.52,3.04-3.04,6.07-4.46,8.91-.75,1.42-1.33,2.8-1.9,4.1-.57,1.31-1.12,2.54-1.62,3.68-1,2.28-1.84,4.17-2.42,5.5-.29.65-.51,1.17-.66,1.52-.14.34-.22.52-.22.52,0,0-1.1,1.76-2.5,4.15-.69,1.2-1.45,2.57-2.18,3.98-.75,1.37-1.34,2.98-2.05,4.36-1,2.36-1.98,4.1-2.68,4.82-.69.81-1.24,1.21-1.88.97-.64-.23-1.22-1.37-1.51-2.66-.34-1.13-.57-2.71-.68-4.45-.09.16-.14-.78-.14-2.29,0-.38,0-.79,0-1.24.03-.46.07-.95.12-1.45.1-1.01.24-2.09.41-3.17.34-2.16.83-4.3,1.23-5.88.41-1.58.71-2.62.71-2.62,0,0,1.37-3.11,3.42-7.79.51-1.17,1.07-2.43,1.66-3.77.29-.67.6-1.36.91-2.06.34-.67.68-1.36,1.03-2.06,1.4-2.81,2.9-5.73,4.38-8.8,1.49-3.09,3.1-6.23,4.8-9.16.22-.36.43-.73.64-1.09.23-.38.46-.75.69-1.12.46-.72.91-1.39,1.34-2.02.86-1.26,1.62-2.34,2.25-3.3.16-.25.32-.49.47-.72.22-.34.44-.67.66-.97.43-.61.83-1.13,1.2-1.6.66-.82,1.24-1.54,1.73-2.14.18-.24.35-.45.5-.64.14-.2.27-.37.37-.51.25-.35.39-.56.42-.6Z"/>
  <path class="cls-2" d="M36.32,21.49s.03,0,.13-.28c.15-.41.29-1.02.34-1.77.06-.75.04-1.63.05-2.62,0-.99.08-2.1.53-3.29.46-1.17,1.36-2.45,3.22-3.2.13-.06.75-.19,1.04-.11.09.04.59.27,1.23.66.32.19.66.42,1,.65.36.26.57.4,1.09.8,1.87,1.42,3.7,3.53,5.3,5.41.42.47.85.96,1.29,1.46.48.55.98,1.13,1.49,1.71,1.01,1.18,2.04,2.43,3.08,3.71,2.08,2.57,4.19,5.31,6.29,7.95,2.12,2.68,4.39,5.55,6.33,8.64.48.77.94,1.55,1.38,2.34.21.4.42.79.63,1.19.18.37.36.73.54,1.09.7,1.44,1.3,2.8,1.83,4.05,1.06,2.5,1.83,4.55,2.37,5.98.53,1.41.83,2.22.83,2.22,0,0,.12.59.33,1.59.18,1,.42,2.4.59,3.95.37,3.13.57,6.87.66,9.97.21,2.59.28,4.33.11,5.48-.16,1.15-.6,1.69-1.26,1.71-1.31.08-3.59-2.06-5.41-5.12-.02.41-1.91-3.39-3.51-7.04-.82-1.82-1.64-3.58-2.28-4.83-.67-1.27-1.12-2.13-1.12-2.13,0,0-.29-.77-.8-2.12-.51-1.33-1.23-3.22-2.17-5.38-.47-1.08-.99-2.22-1.57-3.39-.56-1.13-1.15-2.18-1.91-3.35-1.48-2.31-3.43-4.79-5.55-7.44-2.13-2.69-4.17-5.33-6.12-7.73-.97-1.2-1.92-2.34-2.83-3.39-.96-1.09-1.87-2.13-2.71-3.08-1.72-2.04-2.82-3.17-3.44-3.62-.1-.08-.2-.15-.29-.22-.11-.08-.21-.15-.31-.22-.17-.12-.27-.18-.32-.21-.11-.06-.07-.04-.07-.04Z"/>
  <path class="cls-2" d="M94.34,90.43s0,0,.23-.04c.17-.04.37-.12.56-.23.09-.07.21-.08.28-.24,0-.05,0-.06,0-.14l-.04-.25c-.02-.16-.02-.31-.02-.45,0-.29.06-.51.12-.67.26-.64.61-.83.95-1.01.35-.17.71-.19,1.09-.27.38-.1.78-.14,1.2-.11.42.04.86.11,1.3.4.22.14.43.28.66.43.11.07.22.14.34.18.06.03.12.04.18.05h.04s.1,0-.07,0c-.18,0-.35,0-.53.01-.33.01-.61.03-.85.07-.13.02-.22.03-.33.06h0c-.11.03.13-.03.11-.02h0s-.02,0-.02,0h-.03s-.06.03-.06.03h-.03s-.02.02-.02.02c1.01-.4-2.26.89,2.26-.89h0s0,0,0,0h.02s.07-.05.07-.05c.03,0,.05.03.08.04l.32.21c.42.28.82.68,1.16,1.21.11.15.44.93.44,1.36-.02.32-.05.64-.09.96,0,.03,0,0,0,.01l-1.63-.08h-.4c-.21,0-.37,0-.57,0h-.2s-.1.02-.1.02h-.05s-.02,0-.02,0h-.01c.82-.09-1.86.21,1.84-.2l.44-.06.59-.09.09-.02s0,0,0,0h0s0,0,0,0v.02s.08.28.08.28l.15.57.09.4.07.37.17,1.06c.21,1.4.34,2.75.48,4.03.13,1.28.27,2.49.44,3.63.16,1.06.43,2.38.65,3.63l.06.45,1.57,8.41s.1.88.27,2.36c.2,1.56.48,3.77.54,6.39.07,2.61-.11,5.64-.75,8.59-.16.74-.34,1.47-.55,2.18-.21.71-.44,1.45-.65,2.03-.43,1.25-.86,2.56-1.38,3.81-.41,1.07-.87,2.05-1.38,2.91-.25.43-.52.83-.79,1.2-.27.36-.52.65-.77.94-.99,1.13-1.87,1.88-2.57,2.37-1.4.95-2.04.89-2.08.28-.05-.63.46-1.83,1.11-3.46.16-.41.33-.85.51-1.3.08-.23.17-.46.26-.7.07-.21.14-.43.2-.66.25-.92.44-1.98.6-3.17-.11.21.08-1.01.37-3.32.04-.29.08-.6.12-.91.03-.28.07-.57.1-.87.06-.6.11-1.24.14-1.9.06-1.32.03-2.74-.1-4.16-.25-2.85-.93-5.75-1.53-7.98-.6-2.36-1-3.94-1-3.94l-1.37-7.34-.08-.45c-.23-1.29-.49-2.5-.72-3.98-.21-1.41-.36-2.76-.49-4.05-.14-1.28-.27-2.51-.43-3.65l-.13-.85-.02-.11-.02-.07-.09-.37c-.09-.34-.24-.88-.32-1.62-.06-.59-.03-1.07-.02-1.32h0Z"/>
  <g>
    <path class="cls-2" d="M122.23,100.77c.09,0,.12,0,.24.3.41.87.89,2.44,1.02,4.46.14,2.02-.07,4.49-.78,7.18-.03.1-.15.45-.21.51-.09,0-1.82.01-4.42.27-2.6.25-6.09.81-9.65,1.56-3.55.75-7.26,1.6-9.74,2.26-2.55.69-4.17,1.24-4.17,1.24,0,0-1.17.04-2.79.05-.82,0-1.74,0-2.7,0-.87-.05-1.76-.11-2.6-.16-2.69.08-4.25,0-4.9-1.11-.66-1.05-.05-3.14,1.54-4.89-.13,0,.29-.47,1.05-1.11.37-.32.85-.68,1.34-1.03.45-.34.94-.69,1.44-1.04,2-1.39,4.16-2.63,4.16-2.63,0,0,1.9-.64,4.75-1.4,2.93-.77,6.48-1.58,10.28-2.39,3.78-.8,7.73-1.44,10.8-1.74,3.07-.31,5.23-.33,5.35-.33Z"/>
    <path class="cls-1" d="M123.49,106.97c-7.73,0-15.42,1.72-22.93,3.48-4.56,1.07-9.03,2.4-13.35,4.24-1.85.79-3.65,1.83-5.07,3.25"/>
  </g>
  <path class="cls-2" d="M140.01,113.46c.58-.14.81-.2,1.61-.04,1.37.2,2.78.87,3.66,1.94.21.25.44.54.55.78-.03.21-.03.43,0,.66.05.45.11.91.17,1.4.08.51.08,1.03-.02,1.58-.1.54-.26,1.13-.69,1.73-.21.29-.47.57-.81.81-.15.13-.44.21-.56.34-.09.14-.18.28-.26.42-.33.55-.58,1.22-.58,1.92-.01.1.03.46.05.51l-1.13.32-.87.23-.42.1c-.27.07-.68.24-1.13.47-.9.47-1.93,1.22-2.83,2.06-.46.43-.83.82-1.2,1.27-.36.43-.68.89-.92,1.3-.24.41-.43.81-.51,1.07-.05.19-.03.07-.03.1h0s0,.01,0,.01c0,0,0,0,0,.01h0s0,0,0,0c-.04-.01,0,0,.1,0,.28.01.84-.03,1.33-.14.51-.1,1.04-.26,1.56-.46,1.1-.43,2.18-1.09,2.83-1.72.58-.56.99-1.2,1.46-2.46,0,0,.09-.2.25-.56.16-.38.4-.98.7-1.87.31-.92.62-1.76.78-2.48.04-.18.08-.37.11-.57,0,0,.02-.25.03-.4,0-.16.03-.35.05-.5.03-.18.06-.36.09-.54l.07-.33.03-.08h.01s.77-.05.77-.05c2.33-.09,3.85-.64,3.95-.94,0,0,0,0,0,0h0s0-.01,0-.01c-.11,0,.96,0,.51.01h0c.05.09.09.11.17.19.09.09.18.13.3.21.13.09.28.17.42.22.66.33,1.65.65,2.96.94.54.13.33.08.36.09,0,0-.01.02-.02.03-.01.02-.03.07-.05.12-.03.12-.07.25-.11.45l-.16.82-.03.14-.03.13h0s-.03.08-.03.08l-.05.15c-.07.22-.13.49-.18.81-.05.32-.09.67-.12,1.06-.02.38-.05.76-.07,1.15-.04.64-.03,1.34.05,2.07.14,1.47.5,3.09.93,4.76.23.86.45,1.71.67,2.55.18.75.36,1.38.58,1.98.66,1.59,1.47,2.51,2.52,3.12,1.46.71,2.7,1.4,3.49,1.78.25.13.5.21.74.29.29.08.61.16.91.28.29.11.6.27.79.44.19.17.27.3.36.41.14.22.36.36.51.49.15.14.22.28.21.44,0,.08-.03.16-.07.24-.02.04-.05.08-.08.13-.06.05-.12.09-.2.14-.29.2-.99.19-1.36.16-.19,0-.27.04-.3.11-.08.06-.16.11-.3.18-.22.12-.99.32-1.73.32-.91,0-1.66-.05-2.51-.14-.39-.04-.8-.09-1.21-.14l-.29-.03c-.1-.01-.17-.01-.34-.05-.3-.06-.6-.11-.9-.2-1.22-.33-2.49-.96-3.59-1.83-1.11-.86-2.03-1.94-2.79-3.05.09.22-.24-.18-.75-1.07-.56-1-1.04-1.97-1.76-3.43-.69-1.45-1.55-3.26-2.25-5.54-.35-1.14-.64-2.4-.81-3.77l-.11-.92-.08-.9c-.05-.62-.08-1.29-.08-2.02,0-.37.02-.75.06-1.15l.07-.61c0-.09,0-.06,0-.13.02-.37.02-1.09.2-2.09.12-.53.19-1.13.77-2.26.12-.24.37-.63.65-.97.11-.15.33-.38.54-.58.11-.1.22-.2.33-.29l.17-.14c-4.42.64,6.12-.96,5.09-.77l.14.05c.7.27,1.48.75,1.9,1.18.24.23.47.47.68.73.19.24.29.4.42.62.12.2.25.43.33.61.07.15.13.31.19.46.06.15.12.32.16.46l.1.35c.06.24.11.47.14.63.03.17.06.39.08.52.07.64.08,1.05.08,1.46,0,.74-.04,1.48,0,1.32.03.63.02,1.38-.02,2.02-.09,1.33-.3,2.46-.47,3.36-.31,1.67-.67,3.25-1.06,4.46-.38,1.2-.72,1.94-.72,1.94-.51,1.07-1.16,2.18-1.95,3.21-.78,1.03-1.74,2-2.66,2.76-1.87,1.55-3.86,2.66-5.98,3.49-1.15.45-2.35.81-3.59,1.06-1.27.25-2.5.41-4.02.39-.36,0-.76-.03-1.25-.07-.44-.06-.89-.11-1.33-.21-.88-.18-1.73-.45-2.55-.81-1.63-.72-3.08-1.82-4.24-3.17-.43-.49-.81-1.02-1.16-1.57-.33-.56-.64-1.14-.91-1.73-.48-1.21-.83-2.48-.89-3.79-.06-.85-.04-1.71.09-2.56.09-.83.34-1.78.54-2.41.43-1.38,1.01-2.53,1.63-3.61.62-1.07,1.31-2.02,2.04-2.91.73-.88,1.54-1.74,2.34-2.48,1.62-1.5,3.37-2.82,5.51-3.96,1.08-.56,2.25-1.08,3.64-1.46l.83-.2.38-.1,1.35-.38Z"/>
  <path class="cls-1" d="M177.08,123.01"/>
  <path class="cls-2" d="M163.69,120.95c-.03-.3-.05-.41.2-.85.68-1.52,2.11-3.7,4.14-4.25,1.01-.28,2.13-.22,3.34.22,1.22.45,2.54,1.13,4.05,2.47.11.1.53.6.62.89.89,7.27,1,14.32,1.26,21.11.12,4.81.94,9.82,1.26,15.53.04.71.07,1.43.08,2.15l.02.98.03.94v.4s0,.49,0,.49c0,.33-.02.65-.05.97-.05.65-.18,1.29-.38,1.91l-.16.46c-.04.12-.15.41-.11.28v-.02s0,0,0,0c2.4.76-3.26-1.04-2.7-.87l-.1-.03-.42-.13c-.34-.09-.42-.12-.61-.16-.32-.07-.49-.1-.62-.11-.12-.01-.19,0-.22,0l-7.53-.12h0s0-.04,0-.04v-.06s0-.12,0-.12l.02-.46c.08-2.47.08-5.04.11-7.72h0c.03-1.87.07-3.79.2-5.76.06-.98.15-1.98.25-2.98.08-.77.13-1.51.17-2.34.07-1.65.08-3.54.22-5.63.04-.52.09-1.06.14-1.61.04-.35.07-.69.09-1.06.05-.74.06-1.54.07-2.42.02-1.74,0-3.79.25-6.07l.4-2.89.2-1.43c.04-.22.05-.48.16-.98.08-.45.21-.88.35-1.31.14-.43.31-.85.5-1.27.16-.35.32-.67.46-.94l.69-1.26.21-.4c.15-.3.31-.6.48-.91.34-.6.72-1.2,1.16-1.79.89-1.19,1.95-2.34,3.52-3.39,1.51-1,3.25-1.68,5.04-1.88,1.74-.29,3.49-.12,5.11.2,1.58.4,3.06.97,4.31,1.71,2.55,1.46,4.51,3.32,6.13,5.38,0,0,.22.34.62.96.2.31.44.7.68,1.18.26.46.54,1.01.8,1.64.55,1.25,1.12,2.83,1.42,4.9.04.27.08.49.11.8.02.32.05.65.05.98,0,.66-.03,1.35-.15,2.03-.21,1.36-.68,2.7-1.34,3.89-1.29,2.38-3.31,4.19-5.34,5.39-.99.58-1.94,1.03-2.81,1.42l-1.24.54-.58.25-.68.31c-1.85.82-4.05,1.65-6.47,1.86-2.06.14-3.95.07-5.77-.14-1.53-.14-2.91-.37-4.15-.65-.62-.14-1.2-.3-1.75-.46-.52-.17-1-.33-1.47-.48-1.88-.64-3.33-1.35-4.29-2.09-.97-.72-1.39-1.48-1.42-1.92-.03-.45.19-.67.61-.7.38-.08.84-.08,1.55-.07.7,0,1.63.02,2.77,0,.58-.01,1.21-.02,1.87-.03.35,0,.71,0,1.07-.01.34-.01.68-.02,1.03-.03,1.39-.06,2.9-.19,4.44-.43-.34-.08,1.4-.21,3.97-.87.88-.26,1.96-.8,3.39-1.74.4-.26.8-.53,1.21-.81.43-.28.87-.56,1.31-.85.82-.54,1.51-1.04,1.98-1.49.91-.84,1.22-1.76,1.11-2.05-.01-.08-.04-.14-.08-.19,0-.03-.04-.05-.05-.09-.04-.1-.08-.2-.11-.3-.14-.4-.38-.87-.61-1.29-.5-.86-1.1-1.54-1.5-1.98-.21-.21-.38-.38-.49-.49-.12-.1-.19-.15-.19-.15-.69-.73-1.45-1.29-2.07-1.58-.63-.29-1-.31-1.25-.27-.02-.03,0,0,0-.02.06-.05-.17.13-.36.4-.1.14-.21.31-.32.5-.05.09-.11.2-.16.3l-.42.81-.62,1.14-.14.28s0,0,0,0l-.58,4.16c-.15,1.34-.16,2.94-.17,4.84-.01.95-.03,1.96-.09,3.05-.03.54-.08,1.11-.14,1.67-.04.36-.07.73-.1,1.11-.11,1.54-.12,3.3-.2,5.29-.04.98-.11,2.06-.22,3.11-.08.81-.15,1.62-.2,2.46-.11,1.66-.15,3.39-.17,5.16h0c-.03,2.54-.03,5.2-.11,7.95l-.02.52v.13s0,.06,0,.06v.03s0,.02,0,.02c2.7-.05-23.52.55-12.42.27v-.04c-.04-.46-.03-.91,0-1.32.08-.82.26-1.44.4-1.84l.06-.18h0s0,0,0,0h0s0,0,0,0v-.09s-.04-1.02-.04-1.02l-.02-.98c-.01-.58-.03-1.16-.07-1.76-.24-4.73-1.1-10.07-1.28-15.71-.26-6.95-.39-13.67-1.18-20.06Z"/>
  <path class="cls-2" d="M63.03,162.6c.02-.21.03-.29.35-.64.48-.61,1.15-1.57,2.06-2.4.9-.84,2.08-1.41,3.12-1.26.51.08,1.03.24,1.52.49.5.25.97.63,1.47,1,.51.37,1.05.71,1.63,1.1.58.4,1.19.84,1.81,1.69.09.11.4.76.42,1.16l-.15,1.38-.11,1.14c-.06.77-.12,1.55-.16,2.36-.08,1.61-.12,3.29-.18,5.04l-.09,2.65-.06,2.52-.13,5.04-.11,4.22v4.35s-.03,8.72-.03,8.72v4.36s-.01,2.18-.01,2.18v1.09s0,.27,0,.27h0c6.73,1.04-9.17-1.39-7.53-1.14h0s-.02-.02-.02-.02l-.04-.02-.1-.06c-.14-.07-.48-.22-.89-.31-.13-.04-.26-.07-.4-.09l-.47-.09c-.18-.03-.36-.06-.54-.07-.25-.04-.5-.07-.76-.09l-.93-.08-.25-.02h0s0,0,0,0v-.08c.01-.19,0-.5.02-1.21.04-.81.11-1.23.18-1.71.07-.47.15-.92.23-1.34l.47-2.22c.14-.65.22-1.1.35-1.88h0c.26-1.49.54-3.25,1.14-5.2.1-.34.22-.68.34-1.02.23-.64.49-1.28.81-1.93l.56-1.18,1.17-2.61c.43-.94.9-1.94,1.47-2.98.61-1.07,1.06-1.96,2.42-3.66,0,0,.09-.12.28-.32.19-.2.48-.5.85-.88.77-.71,1.92-1.73,3.52-2.58,1.58-.9,3.55-1.55,5.85-1.28,2.3.28,4.63,1.61,6.36,3.76.87,1.08,1.57,2.4,2.13,3.82.27.71.51,1.45.72,2.2l.12.46.08.36.15.71c.16.84.38,1.95.51,2.98.13,1.04.21,2.09.24,3.12.06,2.06-.07,4.02-.24,5.86-.15,1.79-.3,3.53-.44,5.2-.11,1.52-.22,2.9-.34,4.15-.13,1.31-.34,2.52-.61,3.55-.53,2.08-1.27,3.54-1.93,4.42l-1.66-.31c.94-2.47,1.81-2.3,2.56.12l-3.34-.62c-.07-1.14-.14-2.69-.4-4.59-.07-.48-.15-.97-.23-1.48-.1-.54-.2-1.11-.31-1.68-.22-1.21-.44-2.49-.64-3.82-.05.37-.33-1.55-.7-4.59-.15-1.49-.34-3.19-.67-4.87-.16-.84-.37-1.68-.62-2.5-.12-.41-.26-.82-.41-1.22-.17-.46-.34-.93-.51-1.39l-.13-.32c-.05-.13-.07-.16-.08-.17l-.09-.1c-.06-.06-.12-.11-.18-.16-.12-.08-.24-.13-.35-.13-.24-.02-.41.21-.44.37-.04.16,0,.25.03.3.13-.1-.2.48-.17.43-.59.96-1.19,2.21-1.83,3.67l-1.06,2.34-.53,1.11c-.09.19-.17.4-.26.63-.05.14-.1.3-.15.46-.29.94-.52,2.16-.76,3.64h0c-.11.65-.28,1.62-.44,2.37l-.42,2c-.06.29-.1.55-.14.79-.03.23-.07.53-.05.43v.95c-.03.55-.05,1.35-.31,2.46-.16.58-.35,1.2-.74,1.91-.09.17-.19.34-.3.52l-.17.26-.09.13-.05.06c2.43.86-21.27-7.3-11.23-3.86h0s0-.28,0-.28v-1.07s0-2.14,0-2.14v-4.28s0-8.56,0-8.56v-4.29s.12-4.42.12-4.42l.13-5.28.07-2.64.09-2.5c.05-1.69.09-3.44.18-5.27.05-.91.1-1.84.18-2.79l.14-1.43.13-1.18Z"/>
  <path class="cls-2" d="M105.6,201.11c-.35-.14-.48-.19-.83-.61-.64-.67-1.3-1.64-1.6-2.72-.29-1.06-.05-2.03.48-2.7.27-.31.6-.6.98-.82.38-.23.83-.39,1.28-.56.45-.18.96-.35,1.4-.64.42-.31.84-.66,1.31-1.02.07-.05.36-.23.48-.24.3.11.7.22,1.02.27l2.1.35c1.29.23,2.38.37,3.18.36.4,0,.69-.05.88-.1.1-.02.16-.05.21-.07h.03s0-.01.02-.02l.1-.05.38-.2c.99-.52,1.54-1,1.57-1.09.03-.07.01.06.05-.22.02-.28-.05-.87-.24-1.53l-.16-.51c-.03-.08-.07-.18-.13-.32-.12-.27-.28-.58-.41-.79l-.12-.18s-.03-.03-.1-.1c-.13-.13-.3-.27-.51-.41-.4-.27-.91-.5-1.32-.6-.45-.1-.51-.1-1.06-.03-.85.13-1.9.66-3.22,1.75l-.77.65c-.26.22-.48.43-.67.61-.38.36-.61.65-.69.78l-1.77,3.75s-.12.21-.34.61c-.11.19-.24.42-.39.69-.12.19-.25.4-.38.64-.27.47-.54,1.05-.71,1.57-.09.26-.15.5-.18.66-.03.18-.07.22-.08.34.16.61.59,1.46,1.26,2.34l.48.61c.15.18.31.36.5.54.36.36.8.71,1.28,1.06.97.69,2.16,1.33,3.41,1.98.32.16.64.33.95.49.28.14.53.28.81.41.55.26,1.11.5,1.69.72,1.98.68,3.83,1.15,5.3,1.68.73.26,1.42.52,1.95.78.51.24.93.44,1.28.59.71.3,1.08.41,1.45.38.36-.04.55.11.59.45-.04.24-.25.6-.58.84-.33.26-.75.43-1.18.55-.44.12-.91.18-1.4.21-.48.03-1.03.01-1.46.03-1.89,0-4.37.17-7.48-.2.15.06-.19.04-.92-.08-.37-.06-.84-.16-1.39-.29-.5-.14-1.08-.3-1.72-.47-1.2-.35-2.72-.78-4.45-1.55-.86-.38-1.78-.86-2.7-1.47-.46-.31-.92-.64-1.37-1.03-.46-.39-.78-.69-1.18-1.08-.76-.75-1.51-1.61-2.17-2.61-.17-.25-.32-.5-.47-.77l-.22-.41c-.08-.15-.16-.35-.24-.52-.32-.7-.54-1.48-.67-2.19-.45-2.88.15-4.98.66-6.62,1.04-2.65,1.73-4.43,1.73-4.43l.8-1.72c.15-.31.2-.47.56-1.15.3-.55.62-1.03.95-1.47.66-.87,1.33-1.53,1.94-2.09.64-.58,1.08-.96,1.71-1.48.97-.79,2.07-1.6,3.39-2.31,1.3-.71,2.85-1.28,4.47-1.55.4-.07.82-.12,1.22-.15l.61-.04h.72c.94.04,1.8.18,2.61.39,1.62.42,3.04,1.08,4.38,1.97.67.45,1.31.96,1.93,1.57.3.3.62.63.96,1.06.33.43.56.77.77,1.12.41.68.73,1.3,1.04,1.99.15.34.3.72.44,1.14.11.32.21.65.31.99.37,1.35.68,2.86.61,4.67-.05,1.81-.72,4.02-1.94,5.64-1.61,2.15-3.45,3.18-4.86,3.98l-.53.28-.13.07-.21.1-.44.2c-.58.26-1.17.46-1.74.6-1.14.29-2.23.4-3.2.41-1.95.02-3.6-.26-5.01-.5l-1.97-.33c-1.04-.17-1.98-.42-2.96-.78Z"/>
  <path class="cls-2" d="M135.22,184.59s0,0,.24-.04c.17-.04.38-.11.59-.23.1-.08.24-.08.3-.29.07-.19.15-.4.22-.63.16-.44.34-1.04.65-1.37.3-.35.67-.62,1.07-.78.39-.14.82-.22,1.26-.23.45-.01.92.08,1.39.15.25.03.5.07.76.11.26,0,.5-.04.79-.02.14.01.28.03.44.08.15.04.32.1.54.3.41.35.83.79,1.2,1.36.12.16.48,1.02.51,1.48l-.02.74-.03.65c-.03.44-.07.91-.13,1.37-.06.46-.14.93-.24,1.38l-.2.95c-.23,1.14-.39,2.35-.52,3.62-.13,1.26-.24,2.66-.34,3.99-.1,1.33-.18,2.61-.21,3.85-.03,1.26-.01,2.49.09,3.64.02.29.06.57.09.85l.16,1.09c.09.75.08,1.26.08,1.65v.75s0,.03,0,.03h0s.02.01-.02.02l-.2.02c-.26.03-.53.06-.79.1-.26.04-.42.06-.63.1l-.53.11c-.15.03-.32.09-.44.12-.12.03-.23.07-.35.12h-.02s-.01.01-.01.01h0s0,0,0,0c.55.04-4.83-.35-2.55-.18v.02s.04.03.04.03l.06.05c.12.11.13.04-.2-.01-.17-.02-.4-.04-.8-.02-.43.02-.97.07-2.12.24l-.6.09-.17.03h0s0,0,0-.01v-.08s-.06-.23-.06-.23l-.12-.58c-.09-.46-.2-1.09-.24-1.77h0c-.02-.31-.02-.68-.02-.93.02-1.61.08-3.4.37-5.26l.12-.7.11-.57c.02-.1.04-.31.07-.64.06-.64.07-1.79.49-3.27,0,0,.13-.42.39-1.01.25-.59.64-1.31.95-1.86.78-1.44,1.88-3.45,3.14-5.77,1.56-2.73,3.91-5.33,6.6-7.28,2.68-1.98,5.7-3.38,8.48-4.17,2.32-.73,4.44-1.07,6.23-.92.93.07,1.6.26,2.21.44.61.19,1.13.4,1.55.62.85.44,1.36,1.05,1.32,1.44-.04.36-.25.5-.58.46-.19.15-.43.23-.98.32-.62.1-1.35.22-2.18.35-.48.08-.83.17-1.25.31-.41.14-.86.31-1.33.52-.94.42-1.98.97-3.08,1.63.26-.04-.96.58-2.68,1.86-1.71,1.27-3.88,3.29-5.31,5.65-.37.58-.67,1.19-.96,1.78-.13.32-.24.55-.38.94-.14.37-.27.73-.4,1.09-.53,1.43-1.03,2.77-1.46,3.92-.62,1.64-.84,2.27-.82,2.43.03.02.01.41.02.38-.05.41-.06,1.17-.22,2.25l-.19,1.03-.11.76c-.13,1.03-.17,2.15-.19,3.4v.16s0,0,0,0c0,.14.1.55.33,1.83.05.42.15,1.04.02,2-.1.94-.64,2.24-1.38,3.06-.09.11-.18.2-.27.3l-.14.14-.07.07c7.17,1.67-9.77-2.27-8.03-1.86h0s0-.01,0-.01h0s-.01-.04-.01-.04l-.15-.46c-.08-.27-.15-.56-.19-.78-.09-.48-.12-.85-.14-1.18-.04-.6-.03-1.03-.03-1.36v-.45s-.16-1-.16-1c-.05-.42-.1-.83-.14-1.24-.16-1.65-.18-3.24-.14-4.79.04-1.51.13-2.97.24-4.38.11-1.41.22-2.76.36-4.23.15-1.46.34-2.99.65-4.54l.22-1.07c.05-.22.08-.43.11-.65.03-.22.05-.44.06-.68l.02-.67Z"/>
  <path class="cls-2" d="M167.04,204.04c-.07-.01-.12-.02-.17-.03-.08-.02-.15-.03-.23-.06-.15-.05-.32-.14-.55-.3-.67-.42-1.45-1.23-1.4-1.66-.02-.13-.02-.25,0-.36,0-.06,0-.12.03-.17l.03-.1c.05-.17.09-.29.13-.39.29-.94.29-1.38.25-1.58l-.02-2.14c.37.89.43,1.92-.11,3.04l-.19-2.75c.28-.26.68-.44,1.01-.58.34-.14.69-.24,1.03-.34.33-.1.66-.18.95-.29.2-.15.29-.36.38-.57.01-.03.04-.11.06-.18,0-.03.02-.07.03-.1,0-.03.09-.04.11-.04.88.14,1.89.19,2.96.2h1.74c.57,0,1.11-.02,1.62-.04.51-.03.98-.07,1.43-.13.42-.05.97-.16,1.13-.22.28-.08.68-.24,1.23-.47.52-.23,1.35-.55,1.91-.74.78-.27,1.41-.5,1.83-.69l.12-.06s0,0,0,0h0s.83-.73.83-.73l.38-.3.03-.02h0s0,0,0,0h0s0-.01,0-.01h0s0,0-.06-.05c-.06-.07-.24-.21-.41-.34-.72-.54-1.93-1.11-3.38-1.74l-2.07-.95c-.46-.18-.43-.14-.45-.15-.01,0-.04,0-.08,0l-.08.02s-.05.01-.19.09c-.28.15-.73.47-1.27.91l-.8.66c-.24.21-.48.42-.71.65-.46.44-.9.91-1.31,1.4-.82.97-1.53,2.01-2.05,3.07-.23.45-.42.9-.58,1.35-.16.45-.27.87-.38,1.39-.2,1-.2,1.52-.07,2.17,0,0,0,.1.04.32.03.2.12.6.23.95.23.74.72,1.75,2.04,2.99.32.31.7.62,1.11.95.41.33.87.66,1.29.96.87.63,1.82,1.21,2.83,1.73,2.01,1.06,4.24,1.84,6.37,2.38,1.81.41,3.36.62,4.64.78,1.28.17,2.28.28,3.03.42,1.5.25,1.97.61,1.62,1.1-.66.93-4.7,2.49-10.08,2.46.27.06-1.19.11-3.55-.23-2.35-.33-5.62-1.19-8.66-2.76-1.47-.74-2.95-1.58-4.38-2.72-1.42-1.11-2.67-2.57-3.48-3.99-.82-1.45-1.22-2.61-1.48-3.61-.24-.97-.29-1.57-.29-1.57-.15-1.8.13-3.46.46-4.8.35-1.47.89-2.88,1.54-4.16.88-1.77,1.97-3.35,3.18-4.79.61-.72,1.25-1.4,1.92-2.05.33-.33.68-.64,1.04-.95l1.02-.85c.68-.55,1.48-1.19,2.59-1.8.55-.3,1.21-.6,2-.82.4-.11.73-.18,1.08-.23.35-.05.72-.1,1.1-.11.76-.03,1.58.05,2.3.21.72.16,1.34.39,1.85.6l2.23,1.02c1.42.65,3.14,1.34,4.97,2.66.46.34.9.69,1.4,1.18.23.21.5.51.75.81.26.3.49.61.7.94.44.65.79,1.35,1.04,2.07.28.72.5,1.45.56,2.2.16,1.5-.27,3-1.12,4.27-.41.64-.89,1.26-1.44,1.81-.28.27-.57.53-.88.77l-.53.39c-.12.1-.39.37-.95.82-.31.25-.63.48-.97.68-.17.1-.33.19-.53.29l-.42.2c-1.01.46-1.88.74-2.58,1-.57.2-.87.32-1.45.56-.56.23-1.27.54-2.15.8-.99.28-1.63.38-2.41.49-.74.1-1.47.16-2.17.2-.69.04-1.36.05-1.99.05h-1.87c-1.33,0-2.74-.07-4.23-.3Z"/>
  <path class="cls-2" d="M211.37,149.17c.04-.1.05-.13.3-.19.74-.25,1.99-.33,3.32.17,1.34.48,2.75,1.5,4.33,2.63.06.04.26.21.28.26,0,.04-.11.29-.28.95-.08.37-.19.82-.3,1.32-.07.3-.14.62-.21.95-.08.32-.16.66-.25,1.01-.64,2.61-1.38,6.08-1.8,9.47-.22,1.71-.33,3.33-.38,4.99-.06,1.73-.11,3.35-.16,4.73-.03.72-.08,1.41-.12,2-.04.55-.07,1.02-.1,1.41-.06.78-.09,1.23-.09,1.23,0,0-.3,1.15-.8,2.71-.13.39-.27.8-.41,1.23-.08.21-.15.43-.23.65-.04.13-.07.19-.11.24l-.1.33c-.28.94-.62,1.95-1.03,2.83-.61,1.51-1.37,2.59-2.27,2.98-.45.2-.84.06-.95-.11-.14-.19-.19-.41-.17-.62,0-.04-.02-.09-.05-.13-.02-.03-.03-.02-.07-.07-.05-.08-.12-.16-.19-.23-.04-.03-.08-.07-.13-.1-.03-.02-.05,0-.07-.04-.03-.04-.07-.08-.1-.12-.07-.05-.13-.16-.18-.26-.22-.41-.41-1.09-.61-1.86-.06.07-.14-.34-.27-1.04-.07-.36-.15-.79-.24-1.25-.02-.13-.04-.26-.07-.39-.02-.16-.03-.33-.05-.5-.03-.27-.06-.54-.09-.81-.22-2.2-.44-4.43-.44-4.43,0,0,.03-.46.09-1.26.03-.39.06-.87.1-1.41.04-.5.07-1.07.09-1.71.04-1.35.09-2.92.14-4.6.06-1.76.2-3.77.45-5.67.48-3.84,1.28-7.54,1.95-10.31.08-.32.15-.62.22-.92.06-.29.12-.56.18-.82.12-.55.24-1.09.36-1.57.24-.96.48-1.63.5-1.69Z"/>
  <path class="cls-2" d="M208.83,198.83c.06,0,.08,0,.16.21.28.6.56,1.71.6,3.12.05,1.41-.15,3.14-.29,5.02,0,.07-.03.32-.04.35,0,0-.13,0-.3.03-.17.02-.43.07-.51.12,0,0-.03,0-.02,0,0,0,.01.02-.01-.02l-.12-.21c-.12-.25-.3-.51-.44-.7l-.21-.26c.43.46-.97-1.04.96,1.04h0s0,0,0,0h0s0,0,0,0h0s0,0,0,0h0s0,0,0,0c0,.03.02,0,.02,0,0,0,.05-.02.24-.33.09-.16.22-.4.29-.75.07-.35.01-.77-.13-1.12-.02-.25-.46-.5-.79-.82-.35-.32-.57-.71-.59-1.03-.01-.63.4-.89.75-1.11.09-.06.18-.12.26-.18l.11-.1s-.03.04-.03.03c0,0,0,0,0,0,.02-.02.03-.05.04-.07l.06-.14c.03-.07.05-.14.07-.22.05-.16.09-.32.13-.48.04-.18.04-.19.12-.28.11-.14.38-.27.82-.32-.07-.05.34-.14.95-.05.62.08,1.33.43,1.72.63.42.22.78.36,1.15.64.18.15.35.3.48.48.13.16.21.34.21.32,0,0,.04.13.12.37.04.08.06.38.1.63.02.14.03.28.05.44.01.17.07.27,0,.61-.1.58-.2,1.23-.32,1.94-.4.92-.97,2.01-1.5,3.12-.1.31-.39.49-.59.74-.22.24-.45.48-.68.72-.46.49-.94.99-1.42,1.51-.41.18-.82.35-1.25.54-.4.16-.95.46-1.15.41-.28.03-.56.05-.85.08-.16.02-.27.02-.36,0l-.3-.03c-.44-.03-.74-.12-1.09-.21-.63-.21-1.28-.52-1.98-1.1-.34-.29-.66-.65-.98-1.02-.33-.36-.54-.81-.8-1.23-.44-.87-.73-1.82-.86-2.74-.27-1.87.15-3.63,1.06-4.99.23-.34.48-.65.75-.94.14-.16.25-.25.43-.41.18-.17.35-.3.53-.43.7-.52,1.36-.84,1.92-1.06,1.14-.45,1.99-.57,2.6-.66.61-.08.97-.09,1.01-.09Z"/>
</svg>