<?xml version="1.0" encoding="UTF-8"?>
<svg id="Layer_1" data-name="Layer 1" xmlns="http://www.w3.org/2000/svg" version="1.1" viewBox="0 0 233.33 231.33">
  <defs>
    <style>
      .cls-1, .cls-2 {
        fill: #000;
      }

      .cls-1, .cls-3 {
        stroke-width: 0px;
      }

      .cls-2 {
        stroke: #fff;
        stroke-miterlimit: 10;
        stroke-width: 4px;
      }

      .cls-3 {
        fill: #fff;
      }
    </style>
  </defs>
  <g>
    <path class="cls-1" d="M70.21,141.95c-.21,0-.43-.03-.65-.08-1.21-.27-2.64-1.32-4.94-3.62-1.55-1.56-3.83-4.05-6.05-7.23-.6-.62-1.45-1.91-3.16-4.56-1.17-1.81-3.5-5.49-5.97-9.75-2.17-3.75-4.28-7.78-5.78-11.05-1.43-3.08-2.29-5.17-2.33-5.26-1.15-3.24-2.21-6.55-3.19-9.93-.66-2.24-1.29-4.61-1.88-6.84l-1.8-6.66c-1.17-4.39-2.39-9.12-3.31-14.04-.74-3.92-1.66-9.11-2.12-14.51-.1-1.26-.18-2.46-.23-3.61l-2.32,4.64c-.63,1.19-1.13,2.34-1.62,3.45l-4.29,9.74-.66,1.51-.27.65-.09.14s-1.1,1.76-2.46,4.09c-.74,1.28-1.48,2.63-2.13,3.89-.4.72-.73,1.49-1.09,2.3-.29.66-.59,1.34-.92,1.99-.76,1.79-1.89,4.13-3.01,5.32-.46.54-1.49,1.7-3,1.7-.37,0-.73-.07-1.08-.2-1.69-.61-2.44-2.75-2.73-4.02-.43-1.46-.63-3.27-.73-4.61-.15-.72-.16-1.63-.16-2.62v-.34c0-.31,0-.64,0-.99.03-.53.07-1.04.12-1.57.1-1.06.25-2.17.43-3.3.4-2.52.97-4.88,1.27-6.06.42-1.63.73-2.69.73-2.69l.04-.12,6.04-13.73,1.07-2.15c.49-.99,1-2,1.52-3.03.94-1.86,1.9-3.78,2.85-5.75,1.75-3.64,3.35-6.68,4.87-9.29l.65-1.1.71-1.15c.49-.76.95-1.45,1.39-2.1l.79-1.15c.53-.77,1.02-1.48,1.44-2.12l.46-.71c.24-.37.48-.72.71-1.04.45-.63.88-1.19,1.26-1.68l1.74-2.15.48-.61.75-1.05c.65-.87,1.45-1,2.03-1,.22-.02.46-.03.72-.03.53,0,1.05.04,1.57.12.69-.37,1.4-.65,2.1-.83.59-.15,1.18-.22,1.76-.22.98,0,1.95.21,2.89.63,1.54.69,2.93,1.94,4.15,3.72,1.76,1.47,3.41,3.36,4.96,5.18l1.27,1.44,1.5,1.73c1.03,1.2,2.07,2.47,3.12,3.77,1.34,1.65,2.69,3.37,4.04,5.09.75.96,1.51,1.92,2.26,2.87,2.09,2.64,4.46,5.63,6.45,8.82.47.75.94,1.55,1.43,2.43l.65,1.22.57,1.14c.64,1.32,1.26,2.68,1.88,4.15,1.03,2.44,1.78,4.43,2.33,5.88l.95,2.54.36,1.74c.18,1,.44,2.47.62,4.14.43,3.65.61,7.86.67,10.08.21,2.6.3,4.5.09,5.88-.44,3.07-2.53,3.4-3.16,3.42h-.15c-2.91,0-5.7-3.91-6.8-5.67-.74-.83-1.75-2.83-3.89-7.68-.95-2.1-1.68-3.65-2.23-4.71l-1.17-2.22-.84-2.23c-.44-1.15-1.18-3.1-2.13-5.29-.52-1.2-1.02-2.28-1.52-3.29-.57-1.15-1.13-2.12-1.8-3.16-1.41-2.19-3.21-4.5-5.43-7.29-.7-.89-1.39-1.77-2.08-2.63-1.1-1.4-2.17-2.76-3.22-4.07v.12c-.23,2.49-.35,4.5-.38,6.28-.03,1.83.04,3.82.23,6.09.3,3.62.88,7.58,1.88,12.82.82,4.41,1.94,8.79,3.03,12.87l1.79,6.67c.57,2.17,1.14,4.29,1.78,6.49,1.11,3.8,2.21,7.2,3.39,10.41l.04.12.86,2.91c.46,1.54,1.25,4.03,2.37,7.15,1.3,3.67,3.03,8.01,4.7,12.21.98,2.46,1.96,4.91,2.84,7.2.61,1.49,1.21,2.87,1.75,4.1.34.78.66,1.51.95,2.18.79,1.87,1.33,3.33,1.65,4.46.41,1.47.7,3.14-.2,4.33-.48.63-1.21.99-2.02.99Z"/>
    <path class="cls-3" d="M39.76,8.92c.66,0,1.35.13,2.07.45,1.13.51,2.33,1.52,3.46,3.25,1.74,1.4,3.44,3.36,4.94,5.12.42.47.85.96,1.29,1.46.48.55.98,1.13,1.49,1.71,1.01,1.18,2.04,2.43,3.08,3.71,2.08,2.57,4.19,5.31,6.29,7.95,2.12,2.68,4.39,5.55,6.33,8.64.48.77.94,1.55,1.38,2.34.21.4.42.79.63,1.19.18.37.36.73.54,1.09.7,1.44,1.3,2.8,1.83,4.05,1.06,2.5,1.83,4.55,2.37,5.98.53,1.41.83,2.22.83,2.22,0,0,.12.59.33,1.59.18,1,.42,2.4.59,3.95.37,3.13.57,6.87.66,9.97.21,2.59.28,4.33.11,5.48-.16,1.15-.6,1.69-1.26,1.71-.02,0-.05,0-.07,0-1.32,0-3.55-2.12-5.34-5.12,0,.02,0,.03-.02.03-.19,0-1.97-3.6-3.5-7.07-.82-1.82-1.64-3.58-2.28-4.83-.67-1.27-1.12-2.13-1.12-2.13,0,0-.29-.77-.8-2.12-.51-1.33-1.23-3.22-2.17-5.38-.47-1.08-.99-2.22-1.57-3.39-.56-1.13-1.15-2.18-1.91-3.35-1.48-2.31-3.43-4.79-5.55-7.44-2.13-2.69-4.17-5.33-6.12-7.73-.78-.96-1.53-1.86-2.27-2.73l-.48,4.93c-.2,2.22-.34,4.36-.38,6.44-.04,2.04.06,4.16.24,6.29.36,4.26,1.06,8.61,1.9,13.03.81,4.31,1.89,8.6,3.06,13.01l1.8,6.67c.6,2.28,1.16,4.37,1.79,6.53,1.04,3.57,2.17,7.09,3.43,10.54,0,0,.32,1.09.86,2.91.55,1.83,1.36,4.33,2.4,7.26,2.07,5.84,5.15,13.2,7.56,19.45,1.02,2.5,1.99,4.6,2.73,6.35.74,1.75,1.27,3.14,1.56,4.21.54,1.94.36,2.78-.29,2.78-.07,0-.14,0-.21-.03-.82-.18-2.2-1.31-3.97-3.08-1.75-1.77-3.95-4.24-6.05-7.28.01.03.01.05,0,.05-.17,0-4.62-6.65-8.82-13.89-2.19-3.79-4.27-7.79-5.7-10.89-1.43-3.08-2.29-5.18-2.29-5.18-1.14-3.23-2.18-6.48-3.12-9.73-.66-2.25-1.29-4.62-1.87-6.79l-1.8-6.67c-1.2-4.49-2.38-9.14-3.28-13.89-.88-4.63-1.67-9.39-2.09-14.31-.2-2.46-.32-4.96-.28-7.52.02-1.62.11-3.19.22-4.75-.61,1.19-1.21,2.41-1.81,3.65-1.52,3.04-3.04,6.07-4.46,8.91-.75,1.42-1.33,2.8-1.9,4.1-.57,1.31-1.12,2.54-1.62,3.68-1,2.28-1.84,4.17-2.42,5.5-.29.65-.51,1.17-.66,1.52-.14.34-.22.52-.22.52,0,0-1.1,1.76-2.5,4.15-.69,1.2-1.45,2.57-2.18,3.98-.75,1.37-1.34,2.98-2.05,4.36-1,2.36-1.98,4.1-2.68,4.82-.56.65-1.02,1.04-1.52,1.04-.12,0-.24-.02-.37-.07-.64-.23-1.22-1.37-1.51-2.66-.34-1.13-.57-2.71-.68-4.45,0,.01-.01.02-.02.02-.08,0-.12-.91-.12-2.31,0-.38,0-.79,0-1.24.03-.46.07-.95.12-1.45.1-1.01.24-2.09.41-3.17.34-2.16.83-4.3,1.23-5.88.41-1.58.71-2.62.71-2.62,0,0,1.37-3.11,3.42-7.79.51-1.17,1.07-2.43,1.66-3.77.29-.67.6-1.36.91-2.06.34-.67.68-1.36,1.03-2.06,1.4-2.81,2.9-5.73,4.38-8.8,1.49-3.09,3.1-6.23,4.8-9.16.22-.36.43-.73.64-1.09.23-.38.46-.75.69-1.12.46-.72.91-1.39,1.34-2.02.86-1.26,1.62-2.34,2.25-3.3.16-.25.32-.49.47-.72.22-.34.44-.67.66-.97.43-.61.83-1.13,1.2-1.6.66-.82,1.24-1.54,1.73-2.14.18-.24.35-.45.5-.64.14-.2.27-.37.37-.51.25-.35.39-.56.42-.6.09-.12.13-.17.48-.17,0,0,.01,0,.02,0,.19-.02.4-.03.63-.03.56,0,1.23.06,1.92.24.67-.43,1.42-.79,2.25-1,.4-.1.82-.16,1.26-.16M39.76,4.92h0c-.74,0-1.49.09-2.23.28-.67.17-1.33.41-1.98.71-.41-.04-.81-.06-1.22-.06-.29,0-.58.01-.86.03-1.48.06-2.64.65-3.48,1.77l-.03.05-.03.05-.13.18-.29.42-.18.25-.12.17-.15.2-.27.35-1.05,1.3-.65.8c-.35.44-.83,1.06-1.36,1.8-.24.33-.49.71-.75,1.11l-.05.07-.42.64c-.4.61-.87,1.29-1.39,2.05-.26.37-.53.76-.8,1.17-.38.56-.88,1.3-1.41,2.13v.02s-.03.02-.03.02l-.33.53-.37.59-.02.04-.02.04-.58.97-.07.11c-1.56,2.68-3.18,5.76-4.96,9.46-.95,1.95-1.91,3.87-2.84,5.72-.52,1.03-1.03,2.04-1.52,3.04l-.18.36-.85,1.69-.04.09-.04.09-.14.32-.77,1.74-.47,1.07-1.19,2.7-3.42,7.79-.1.23-.07.24s-.33,1.13-.75,2.77c-.38,1.48-.92,3.77-1.31,6.24-.19,1.16-.34,2.31-.44,3.42-.05.55-.09,1.08-.13,1.58v.05s0,.05,0,.05c-.01.38-.01.73-.01,1.07v.31c0,.83.02,1.44.04,1.9.02.41.07.78.14,1.11.14,1.89.4,3.49.77,4.76.4,1.67,1.43,4.45,3.99,5.4.57.21,1.16.32,1.76.32,2.38,0,3.87-1.65,4.49-2.36,1.05-1.13,2.18-3.09,3.34-5.81.34-.68.64-1.36.93-2.03.34-.77.66-1.5.99-2.09l.02-.04.02-.05c.64-1.23,1.36-2.55,2.09-3.82,1.33-2.29,2.41-4.01,2.42-4.02l.18-.28.13-.3.21-.5.19-.44.46-1.06,1.41-3.19,1.01-2.29,1.62-3.68.25-.56c.23-.52.46-1.05.7-1.58.5,4.18,1.19,8.08,1.78,11.19.93,4.97,2.16,9.75,3.34,14.18l1.8,6.68c.59,2.23,1.23,4.62,1.89,6.88.99,3.41,2.06,6.75,3.19,9.94l.03.09.04.09c.04.09.91,2.22,2.37,5.35,1.53,3.31,3.67,7.4,5.86,11.2,2.49,4.3,4.84,8.01,6.02,9.83.81,1.25,1.53,2.35,2.11,3.18.36.53.72,1.05,1.13,1.49,2.29,3.27,4.64,5.83,6.23,7.44,2.63,2.63,4.29,3.8,5.93,4.17.36.08.73.12,1.09.12,1.43,0,2.75-.65,3.61-1.78,1.44-1.89,1.04-4.24.53-6.07-.34-1.21-.9-2.76-1.74-4.71-.28-.67-.61-1.41-.96-2.2-.53-1.2-1.13-2.57-1.73-4.05-.89-2.3-1.88-4.79-2.84-7.19-1.66-4.18-3.39-8.49-4.67-12.12-1.11-3.1-1.89-5.56-2.35-7.08l-.85-2.89-.04-.12-.04-.12c-1.16-3.16-2.25-6.53-3.35-10.28-.64-2.18-1.2-4.29-1.77-6.44l-1.8-6.69c-1.08-4.03-2.19-8.37-3-12.7-.98-5.18-1.55-9.07-1.85-12.63-.18-2.2-.25-4.13-.22-5.89,0-.37.02-.75.03-1.14.68.87,1.38,1.75,2.08,2.63,2.19,2.75,3.97,5.02,5.32,7.12.64.99,1.16,1.9,1.7,2.98.49.98.98,2.03,1.48,3.19.86,1.99,1.54,3.74,2.1,5.21l.79,2.1.09.23.12.22,1.12,2.13c.52,1.01,1.25,2.57,2.18,4.61.74,1.68,1.58,3.5,2.31,4.97.56,1.13,1.06,2.15,1.69,2.92,1.44,2.3,4.65,6.63,8.5,6.63.09,0,.18,0,.28,0,2.09-.1,4.5-1.51,5.02-5.15.23-1.55.14-3.55-.08-6.27-.08-2.73-.27-6.69-.69-10.22-.14-1.28-.35-2.66-.63-4.2v-.05s-.02-.05-.02-.05l-.33-1.59-.06-.3-.11-.29-.83-2.22-.07-.17c-.56-1.47-1.32-3.48-2.37-5.97-.64-1.5-1.27-2.89-1.92-4.23l-.56-1.12-.02-.05-.03-.05-.63-1.19-.02-.03-.02-.03c-.51-.93-1-1.76-1.5-2.54-2.04-3.26-4.45-6.3-6.57-8.98-.75-.95-1.51-1.91-2.26-2.87-1.33-1.69-2.7-3.44-4.05-5.11-1.11-1.38-2.17-2.66-3.15-3.8l-1.51-1.74-.64-.72-.65-.74c-1.54-1.81-3.18-3.69-4.97-5.21-1.39-1.97-3.01-3.37-4.82-4.18-1.2-.53-2.44-.8-3.71-.8h0Z"/>
  </g>
  <g>
    <path class="cls-1" d="M97.72,149.07c-1.34,0-2.37-.98-2.46-2.32-.09-1.01.39-2.19,1.1-3.98l.65-1.65.24-.66c.04-.14.1-.31.14-.48.2-.71.37-1.57.52-2.64,0-.46.09-1.11.22-2.12l.19-1.47.13-.94.1-.84c.05-.52.1-1.12.13-1.75.06-1.28.03-2.58-.1-3.88-.17-1.94-.57-4.15-1.2-6.6-1.38.4-2.21.69-2.22.69l-.28.1h-.3s-1.19.05-2.84.07h-2.78s-2.57-.16-2.57-.16c-.45.01-.87.02-1.25.02-1.98,0-4.19-.16-5.34-2.11-1.11-1.78-.51-4.54,1.5-6.94.35-.63.97-1.15,1.52-1.61.49-.41,1.07-.84,1.46-1.12.44-.33.95-.69,1.47-1.06,2.04-1.42,4.21-2.66,4.3-2.72l.17-.1.19-.06c.07-.02,1.45-.48,3.62-1.09-.05-.28-.1-.57-.14-.87-.23-1.51-.38-2.97-.5-4.14-.13-1.26-.26-2.46-.42-3.57l-.13-.84-.12-.46c-.09-.36-.25-.98-.34-1.78-.09-.8-.04-1.42-.02-1.69l.72-10.13,1.9,5.78c.21-.15.4-.24.54-.32.54-.26.99-.34,1.33-.4.08-.01.16-.03.24-.04.41-.1.88-.16,1.35-.16.14,0,.28,0,.42.02.55.05,1.23.15,1.92.53l.65-.36.93.21.24.08.26.16.36.23c.68.44,1.27,1.05,1.75,1.8h0c.34.53.76,1.61.76,2.44,0,.23-.02.43-.04.61l.09.35.1.46.08.44.18,1.11c.2,1.38.34,2.66.47,3.9l.02.23c.12,1.12.24,2.29.4,3.37,3.45-.69,6.9-1.22,9.65-1.49,2.84-.28,4.92-.33,5.5-.34h.1c.64.02,1.51.29,2.01,1.5.32.68,1.01,2.45,1.18,5.13.17,2.4-.12,5.11-.85,7.82-.29,1.06-.74,1.43-.89,1.55l-.53.43-.68.02c-.62,0-2.15.05-4.27.26-2.34.23-5.39.71-8.51,1.33.16,1.36.36,3.29.41,5.47.06,2.2-.04,5.57-.79,9.06-.19.86-.38,1.61-.58,2.31-.21.72-.46,1.5-.69,2.15l-.15.44c-.39,1.14-.79,2.31-1.27,3.46-.46,1.19-.96,2.24-1.51,3.16-.25.44-.56.89-.91,1.37-.3.41-.58.73-.86,1.05-.99,1.12-1.97,2.03-2.93,2.7-1.1.75-1.97,1.09-2.76,1.09Z"/>
    <path class="cls-3" d="M98.43,87.02c.09,0,.18,0,.27.01.42.04.86.11,1.3.4.18.12.37.24.56.37.3-.12.64-.25,1.07-.42h0s0,0,0,0h.02s.07-.05.07-.05c.03,0,.05.03.08.04l.32.21c.42.28.82.68,1.16,1.21.11.15.44.93.44,1.36-.01.25-.04.49-.07.74l.03.13.15.57.09.4.07.37.17,1.06c.21,1.4.34,2.75.48,4.03.13,1.28.27,2.49.44,3.63.09.58.21,1.23.33,1.9.22-.05.44-.1.66-.14,3.78-.8,7.73-1.44,10.8-1.74,3.07-.31,5.23-.33,5.35-.33.09,0,.12,0,.24.3.41.87.89,2.44,1.02,4.46.14,2.02-.07,4.49-.78,7.18-.03.1-.15.45-.21.51-.09,0-1.82.01-4.42.27-2.6.25-6.09.81-9.65,1.56-.29.06-.58.12-.87.19.02.22.05.45.08.7.2,1.55.48,3.77.54,6.39.07,2.61-.11,5.64-.75,8.59-.16.74-.34,1.47-.55,2.18-.21.71-.44,1.45-.65,2.03-.43,1.25-.86,2.56-1.38,3.81-.41,1.07-.87,2.05-1.38,2.91-.25.43-.52.83-.79,1.2-.27.36-.52.65-.77.94-.99,1.13-1.87,1.88-2.57,2.37-.75.51-1.28.73-1.62.73-.29,0-.44-.17-.46-.45-.05-.63.46-1.83,1.11-3.46.16-.41.33-.85.51-1.3.08-.23.17-.46.26-.7.07-.21.14-.43.2-.66.25-.92.44-1.98.6-3.17,0,.02-.01.02-.02.02-.06,0,.12-1.2.39-3.35.04-.29.08-.6.12-.91.03-.28.07-.57.1-.87.06-.6.11-1.24.14-1.9.06-1.32.03-2.74-.1-4.16-.25-2.85-.93-5.75-1.53-7.98-.08-.32-.16-.62-.23-.91-.04.01-.08.02-.12.03-2.55.69-4.17,1.24-4.17,1.24,0,0-1.17.04-2.79.05-.82,0-1.74,0-2.7,0-.87-.05-1.76-.11-2.6-.16-.46.01-.89.02-1.29.02-1.91,0-3.07-.21-3.62-1.13-.66-1.05-.05-3.14,1.54-4.89,0,0,0,0,0,0-.13,0,.3-.47,1.05-1.11.38-.32.85-.68,1.34-1.03.45-.34.94-.69,1.44-1.04,2-1.39,4.16-2.63,4.16-2.63,0,0,1.9-.64,4.75-1.4.17-.04.35-.09.52-.13-.16-.82-.31-1.66-.46-2.63-.21-1.41-.36-2.76-.49-4.05-.14-1.28-.27-2.51-.43-3.65l-.13-.85-.02-.11-.02-.07-.09-.37c-.09-.34-.24-.88-.32-1.62-.06-.59-.03-1.07-.02-1.32h0s0,0,0,0c.01,0,.06,0,.23-.04.17-.04.37-.12.56-.23.09-.07.21-.08.28-.24,0-.05,0-.06,0-.14l-.04-.25c-.02-.16-.02-.31-.02-.45,0-.29.06-.51.12-.67.26-.64.61-.83.95-1.01.35-.17.71-.19,1.09-.27.3-.07.6-.12.92-.12M99.55,88.2s.02,0,.02,0c0,0,0,0-.02,0M99.44,88.24s0,0,0,0h0s0,0,0,0c-.02,0-.02,0-.02,0,0,0,.01,0,.03,0,0,0,0,0,0,0,0,0,0,0,0,0s0,0,0,0c0,0,0,0,0,0,0,0,0,0,0,0h0M99.39,88.26c-.11.04-.18.07-.21.08.04-.02.12-.05.21-.08h0M99.38,88.27s0,0,0,0h0s0,0,.01,0h0s-.01,0-.01,0M100.49,91.09s.08,0,.32-.04h0c-.08,0-.31.04-.31.04M100.66,91.07c.07,0,.11-.01.14-.01h-.05s-.05.01-.05.01h-.02s-.01,0-.01,0M99.44,88.24s0,0,0,0h0s0,0,0,0M91.9,68.37l-1.55,21.78c-.02.29-.08,1.07.03,2.04.11.97.3,1.69.4,2.08l.02.09.07.26.12.78c.15,1.02.28,2.2.41,3.45.1.97.23,2.14.39,3.37-1.22.37-1.96.61-2.01.63l-.37.13-.34.2c-.09.05-2.33,1.34-4.45,2.81-.53.37-1.05.74-1.52,1.09-.43.31-1.03.76-1.56,1.2-.51.43-1.28,1.08-1.84,1.95-2.49,3.03-3.13,6.65-1.59,9.18,1.83,3.06,5.35,3.06,7.04,3.06.38,0,.79,0,1.22-.02l1.2.07,1.22.07h.12s.12,0,.12,0h1.41s1.29,0,1.29,0c1.7-.01,2.89-.05,2.94-.06l.59-.02.56-.19s.04-.01.12-.04c.33,1.53.55,2.95.66,4.22.11,1.22.15,2.46.09,3.63-.02.5-.06,1.02-.12,1.65l-.09.79-.06.44-.06.44-.19,1.5c-.11.83-.19,1.52-.22,2.12-.14.97-.29,1.74-.45,2.35v.03s-.01.03-.01.03c-.04.14-.08.26-.12.39l-.06.17-.15.41-.3.76-.2.51-.14.34c-.78,1.96-1.35,3.37-1.24,4.88.17,2.37,2.08,4.15,4.45,4.15,1.21,0,2.44-.45,3.87-1.42,1.13-.78,2.23-1.8,3.32-3.04.29-.33.61-.71.96-1.18.4-.54.74-1.06,1.05-1.59.58-.97,1.12-2.1,1.63-3.43.49-1.19.9-2.38,1.29-3.53l.16-.46c.23-.64.49-1.46.71-2.22.22-.75.42-1.55.61-2.44.8-3.7.9-7.24.84-9.55-.03-1.39-.12-2.68-.22-3.8,2.41-.44,4.69-.78,6.51-.96,2.07-.2,3.53-.24,4.06-.25h.02s.05,0,.05,0l1.37-.03,1.06-.86c.27-.22,1.1-.9,1.55-2.57.78-2.94,1.1-5.88.91-8.5-.14-2.11-.63-4.22-1.35-5.78-1-2.35-2.97-2.67-3.78-2.69h-.09s-.1,0-.1,0c-.6,0-2.76.06-5.67.35-2.24.22-4.94.61-7.73,1.12-.04-.4-.09-.8-.13-1.21l-.02-.21c-.13-1.27-.27-2.57-.48-3.98l-.17-1.11v-.04s-.01-.04-.01-.04l-.07-.37v-.07s-.03-.07-.03-.07l-.09-.4v-.06s-.03-.06-.03-.06v-.02c0-.08,0-.17.01-.25v-.1s0-.1,0-.1c0-1.2-.53-2.66-1.08-3.52h0c-.64-.99-1.43-1.79-2.34-2.39l-.33-.21-.11-.07-.04-.02c-.28-.17-.57-.3-.88-.4l-1.65-.52-.66.37c-.61-.19-1.16-.26-1.6-.3-.24-.02-.43-.02-.62-.02-.61,0-1.22.07-1.82.22-.04,0-.08.02-.12.02-.04,0-.08.01-.12.02l-4.47-14.91h0Z"/>
  </g>
  <g>
    <path class="cls-1" d="M159.72,147.87c-.86,0-1.65-.05-2.62-.16l-1.5-.17c-.17-.02-.3-.03-.54-.08l-.17-.03c-.3-.06-.61-.12-.91-.22-1.47-.4-2.96-1.16-4.25-2.18-.85-.66-1.66-1.47-2.4-2.41-1.52,1.06-3.18,1.94-5.01,2.66-1.28.5-2.6.89-3.92,1.16-1.51.3-2.79.43-4.17.43h-.27c-.39,0-.85-.03-1.4-.08-.52-.06-1.04-.13-1.58-.25-.99-.2-1.99-.52-2.93-.94-1.86-.82-3.58-2.09-4.94-3.69-.45-.52-.89-1.1-1.33-1.79-.41-.69-.75-1.33-1.04-1.97l-.04-.1c-.62-1.56-.96-3.01-1.03-4.43-.07-1.03-.03-2.03.11-2.96.12-1.07.46-2.25.61-2.71.42-1.34.98-2.57,1.81-4.01.65-1.11,1.38-2.15,2.23-3.18.77-.93,1.64-1.86,2.52-2.67,1.93-1.78,3.81-3.13,5.93-4.25,1.43-.74,2.71-1.26,4.06-1.62l.87-.22.35-.09,1.42-.4c.38-.09.77-.19,1.28-.19.33,0,.68.04,1.13.13,1.07.16,2.1.54,3.01,1.07,1.56-.24,4.97-.76,5.31-.76h1.82l.07.73c.57.32,1.1.71,1.48,1.09.27.24.56.56.83.9.07.09.14.18.2.26l1.19-3.8.39,7.73c.03.18.06.38.07.52.08.66.09,1.14.09,1.56,0,.39,0,.7,0,.95,0,.01.02.37.02.37.04.7.03,1.53-.03,2.27-.1,1.46-.33,2.69-.5,3.58-.31,1.65-.63,3.05-.96,4.16l.73,2.76c.19.79.34,1.31.52,1.79.53,1.27,1.1,1.77,1.59,2.07.87.43,1.67.84,2.34,1.19.42.22.79.41,1.09.56.19.1.33.14.48.19l.07.02c.31.08.63.17.93.29.31.12.92.39,1.4.82.31.27.5.53.6.67v.02s.21.16.21.16c.67.61.98,1.34.93,2.11-.02.35-.12.69-.28,1.02-.07.13-.14.25-.23.38l-.16.22-.21.17c-.11.09-.25.2-.44.3-.5.31-1.14.46-1.95.46h-.02s-.1.05-.15.07c-.61.3-1.67.51-2.58.52h-.12Z"/>
    <path class="cls-3" d="M140.84,113.32c.2,0,.44.03.78.1,1.02.15,2.06.56,2.89,1.2,1.43-.22,5.63-.86,5.77-.86.01,0,0,0-.07.02l.14.05c.7.27,1.48.75,1.9,1.18.24.23.47.47.68.73.19.24.29.4.42.61.12.2.25.43.33.61.07.15.13.31.19.46.06.15.12.32.16.46l.1.35c.06.24.11.47.14.63.03.17.06.39.08.52.07.64.08,1.05.08,1.46,0,.68-.03,1.35,0,1.35,0,0,0,0,.01-.02.03.63.02,1.38-.02,2.02-.09,1.33-.3,2.46-.47,3.36-.31,1.67-.67,3.25-1.06,4.46,0,0,0,0,0,.01.06.26.13.52.19.78.23.86.45,1.71.67,2.55.18.75.36,1.38.58,1.98.66,1.59,1.47,2.51,2.52,3.12,1.46.71,2.7,1.4,3.49,1.78.25.13.5.21.74.29.29.08.61.16.91.28.29.11.6.27.79.44.19.17.27.3.36.41.14.22.36.36.51.49.15.14.22.28.21.44,0,.08-.03.16-.07.24-.02.04-.05.08-.08.13-.06.05-.12.09-.2.14-.2.14-.59.18-.93.18-.16,0-.31,0-.43-.02,0,0-.02,0-.02,0-.17,0-.25.05-.28.11-.08.06-.16.11-.3.18-.22.12-.99.32-1.73.32-.03,0-.07,0-.1,0-.86,0-1.59-.05-2.4-.14-.39-.04-.8-.09-1.21-.14l-.29-.03c-.1-.01-.17-.01-.34-.05-.3-.06-.6-.11-.9-.2-1.22-.33-2.49-.96-3.59-1.83-1.11-.86-2.03-1.94-2.79-3.05.02.04.02.06.01.06-.03,0-.22-.24-.49-.67-.05.04-.1.09-.14.12-1.87,1.55-3.86,2.66-5.98,3.49-1.15.45-2.35.81-3.59,1.06-1.2.24-2.37.39-3.77.39-.08,0-.17,0-.25,0-.36,0-.76-.03-1.25-.07-.44-.06-.89-.11-1.33-.21-.88-.18-1.73-.45-2.55-.81-1.63-.72-3.08-1.82-4.24-3.17-.43-.49-.81-1.02-1.16-1.57-.33-.56-.64-1.14-.91-1.73-.48-1.21-.83-2.48-.89-3.79-.06-.85-.04-1.71.09-2.56.09-.83.34-1.78.54-2.41.43-1.38,1.01-2.53,1.63-3.61.62-1.07,1.31-2.02,2.04-2.91.73-.88,1.54-1.74,2.34-2.48,1.62-1.5,3.37-2.82,5.51-3.96,1.08-.56,2.25-1.08,3.64-1.46l.83-.2.38-.1,1.35-.38c.34-.08.56-.14.84-.14M144.76,114.86c.06-.06.13-.12.2-.17l.17-.14c-.25.04-.44.06-.6.09.09.07.15.15.23.22M142.14,125.79l-.13.04-.87.23-.42.1c-.27.07-.68.24-1.13.47-.9.47-1.93,1.22-2.83,2.06-.46.43-.83.82-1.2,1.27-.36.43-.68.89-.92,1.3-.24.41-.43.81-.51,1.07-.02.09-.03.11-.03.11,0,0,0-.02,0-.02,0,0,0,0,0,0h0s0,.01,0,.01c0,0,0,0,0,.01h0s0,0,0,0c0,0,0,0,0,0,0,0,0,0-.01,0,0,0,0,0,0,0,0,0,0,0,0,0,0,0,0,0,.01,0,0,0,0,0,0,0,.01,0,.04,0,.07,0,0,0,.02,0,.03,0,.03,0,.06,0,.09,0,.3,0,.8-.05,1.24-.14.51-.1,1.04-.26,1.56-.46,1.1-.43,2.18-1.09,2.83-1.72.58-.56.99-1.2,1.46-2.46,0,0,.09-.2.25-.56.13-.3.3-.74.51-1.33M157.32,99.63l-3.33,10.65-.05-.51h-3.65s0,0,0,0c-.16,0-.58,0-4.95.68-.94-.47-1.97-.8-3.01-.96-.56-.11-1.02-.16-1.48-.16-.75,0-1.33.14-1.75.24l-.07.02-.1.03-1.32.37-.31.08-.8.2h-.05s-.05.02-.05.02c-1.49.4-2.9.97-4.44,1.77-2.3,1.22-4.32,2.67-6.38,4.56-.95.88-1.89,1.87-2.72,2.88-.92,1.11-1.71,2.24-2.41,3.44-.57.99-1.39,2.5-1.99,4.42-.16.5-.54,1.79-.69,3.09-.15,1.04-.19,2.15-.12,3.31.08,1.63.47,3.28,1.17,5.04l.04.1.05.1c.32.7.69,1.4,1.1,2.08l.04.07.04.06c.49.76.98,1.42,1.5,2.02,1.54,1.8,3.5,3.26,5.65,4.21,1.03.46,2.16.83,3.33,1.06.61.13,1.19.21,1.66.26h.06s.06.01.06.01c.65.06,1.15.09,1.59.09h.27c1.51,0,2.91-.14,4.54-.46,1.45-.3,2.88-.72,4.27-1.26,1.4-.55,2.7-1.18,3.93-1.91.5.51,1.01.97,1.55,1.39,1.44,1.15,3.16,2.03,4.94,2.52.41.12.78.2,1.05.25l.16.03c.29.06.53.09.72.11l.3.03.66.08.52.06c1.06.12,1.92.17,2.86.17h.12c.87,0,2.16-.17,3.19-.6.99-.05,1.82-.3,2.54-.73.3-.17.52-.35.67-.47l.42-.34.31-.44c.15-.2.28-.42.39-.64.29-.57.46-1.18.49-1.8.09-1.37-.46-2.7-1.51-3.65l-.07-.06-.07-.06s-.02-.02-.03-.03c-.16-.21-.41-.49-.75-.79-.66-.59-1.45-.97-2-1.18-.42-.16-.82-.27-1.12-.35l-.07-.02s-.05-.02-.07-.03h0s-.04-.02-.04-.02c-.29-.14-.64-.33-1.05-.54-.64-.33-1.42-.74-2.29-1.17-.16-.11-.41-.35-.72-1.09-.14-.38-.26-.82-.41-1.43v-.05s-.02-.05-.02-.05l-.06-.21-.53-2.01c.29-1.06.58-2.35.85-3.82.17-.89.42-2.23.53-3.82.06-.8.07-1.72.03-2.5v-.26c0-.26,0-.57,0-.88v-.12c0-.44-.02-.99-.11-1.78-.01-.13-.04-.3-.06-.46l-.95-18.83h0Z"/>
  </g>
  <path class="cls-2" d="M175.25,163.75l.06.02c-.34-.11,1.67.53,2.7.86.03-.07.07-.19.1-.26l.16-.46c.02-.08.04-.16.06-.23.09,0,.1,0,0,0,.16-.55.27-1.1.32-1.67.03-.32.04-.65.05-.97v-.49s0-.4,0-.4l-.03-.94-.02-.98c-.02-.73-.04-1.45-.08-2.15-.05-.84-.11-1.66-.17-2.46.03-1.29.06-2.56.14-3.79.05-.84.12-1.65.2-2.46.11-1.05.18-2.13.22-3.11.03-.8.05-1.56.07-2.28.69,0,1.38-.01,2.1-.06,2.42-.22,4.62-1.05,6.47-1.86l.68-.31.58-.25,1.24-.54c.87-.38,1.82-.83,2.81-1.42,2.03-1.2,4.05-3.01,5.34-5.39.66-1.18,1.13-2.53,1.34-3.89.11-.68.15-1.36.15-2.03,0-.33-.03-.66-.05-.98-.03-.31-.07-.54-.11-.8-.3-2.07-.87-3.65-1.42-4.9-.27-.64-.55-1.18-.8-1.64-.25-.47-.48-.87-.68-1.18-.4-.62-.62-.96-.62-.96-1.62-2.06-3.57-3.92-6.13-5.38-1.26-.74-2.74-1.31-4.31-1.71-1.62-.33-3.37-.49-5.11-.2-1.79.21-3.54.88-5.04,1.88-1.57,1.05-2.63,2.2-3.52,3.39-.44.59-.82,1.19-1.16,1.79-.06.11-.12.22-.17.33-.92-.22-1.78-.21-2.56,0-2.04.55-3.46,2.72-4.14,4.25-.25.45-.24.55-.2.85.58,4.65.8,9.47.98,14.43-.07,0-.15,0-.22,0-.7,0-1.17,0-1.55.07-.42.02-.64.24-.61.7.02.45.45,1.2,1.42,1.92.3.24.68.47,1.08.69.03.75.05,1.5.08,2.25.14,4.61.74,9.01,1.09,13.04,0,.25-.01.5-.02.74h0c-.04,2.66-.03,5.2-.11,7.65,0,.05-.01.09-.02.14-.04.41-.05.86-.01,1.32v.04M166.27,160.57h0s0,0,0,0ZM187.49,129.11c-.47.45-1.17.95-1.98,1.49-.44.29-.88.57-1.31.85-.41.27-.81.54-1.21.81-1.43.95-2.51,1.48-3.39,1.74-.04.01-.08.02-.13.03,0-.3.01-.61.02-.9.02-1.9.02-3.5.17-4.84l.58-4.16.14-.27.62-1.14.42-.81c.05-.1.1-.21.16-.3.11-.19.22-.36.32-.5.18-.26.4-.44.36-.4,0,0,0,0,0,.02.25-.04.62-.02,1.25.27.62.28,1.38.85,2.07,1.58,0,0,.06.05.19.15.11.11.28.28.49.49.4.44,1,1.12,1.49,1.98.23.42.47.88.61,1.29.03.1.07.2.11.3.01.04.04.06.05.09.04.05.06.11.08.19.11.29-.21,1.21-1.11,2.05Z"/>
  <path class="cls-2" d="M178.01,164.63s0,0,0,0"/>
  <g>
    <polygon class="cls-1" points="176.95 166.67 175.76 164.98 176.6 162.65 178.01 162.63 180.89 162.63 179.4 166.64 177.98 166.68 176.95 166.67"/>
    <path class="cls-3" d="M178.01,164.63s0,0,0,0c-.01.03-.02.05-.02.05,0,0,0,0,.01-.03v-.02s0,0,0,0M175.32,159.51l-1.12,3.9-.66,1.83,1.18,1.73,1.19,1.7h2.08c1.67,0,3.15-1.03,3.76-2.62l1.48-3.89-3.95-1.33-.08-.03h0s-3.89-1.31-3.89-1.31h0Z"/>
  </g>
  <path class="cls-2" d="M74.68,209.1c.15-.8.17-1.41.18-1.86v-.95c0,.09.03-.2.06-.43.03-.24.08-.5.14-.79l.42-2c.17-.76.34-1.72.44-2.37h0c.25-1.48.47-2.7.76-3.64.05-.16.1-.31.15-.46.08-.23.17-.44.26-.63l.53-1.11,1.06-2.34c.64-1.45,1.24-2.71,1.83-3.67-.04.05.3-.53.17-.43-.03-.05-.07-.14-.03-.3.03-.16.2-.39.44-.37.12,0,.23.05.35.13.06.04.12.09.18.16l.09.1s.03.04.08.17l.13.32c.17.46.34.93.51,1.39.15.4.29.81.41,1.22.25.82.45,1.66.62,2.5.33,1.68.51,3.38.67,4.87.37,3.05.65,4.96.7,4.59.2,1.33.42,2.61.64,3.82.11.58.21,1.14.31,1.68.08.51.16,1.01.23,1.48.27,1.89.34,3.45.4,4.59l.91.17c-.04.11-.09.21-.13.33l1.66.31c.07-.1.15-.21.22-.32l.68.13c-.09-.29-.19-.55-.28-.78.48-.86.95-2,1.31-3.45.26-1.03.47-2.24.61-3.55.12-1.24.23-2.62.34-4.15.14-1.67.29-3.41.44-5.2.17-1.84.3-3.8.24-5.86-.03-1.03-.11-2.07-.24-3.12-.12-1.03-.35-2.14-.51-2.98l-.15-.71-.08-.36-.12-.46c-.21-.75-.45-1.48-.72-2.2-.56-1.42-1.26-2.74-2.13-3.82-1.72-2.15-4.05-3.49-6.36-3.76-2.3-.26-4.27.38-5.85,1.28-.57.3-1.07.63-1.53.96l.02-.93.09-2.65c.05-1.75.1-3.43.18-5.04.04-.8.09-1.59.16-2.36l.11-1.14.15-1.38c-.01-.4-.33-1.05-.42-1.16-.62-.85-1.23-1.29-1.81-1.69-.58-.39-1.13-.73-1.63-1.1-.5-.37-.97-.75-1.47-1-.5-.26-1.01-.41-1.52-.49-1.05-.15-2.22.42-3.12,1.26-.91.82-1.58,1.79-2.06,2.4-.33.34-.33.42-.35.64l-.13,1.18-.14,1.43c-.08.95-.14,1.88-.18,2.79-.09,1.83-.13,3.58-.18,5.27l-.09,2.5-.07,2.64-.13,5.28-.11,4.42v4.29s-.02,8.56-.02,8.56v4.28s0,2.14,0,2.14v1.07s0,.27,0,.27h0c.72.55,8.38,2.63,11.23,3.86l.05-.06.09-.13.17-.26c.11-.18.22-.35.3-.52.38-.71.58-1.33.74-1.91"/>
  <g>
    <path class="cls-1" d="M118.71,214.28c-1.55,0-2.91-.07-4.26-.21h-.2c-.11,0-.37,0-1.22-.13-.43-.07-.94-.17-1.55-.32l-1.94-.54c-1.23-.36-2.77-.81-4.56-1.6-1.11-.49-2.09-1.03-3.01-1.64-.6-.4-1.11-.79-1.57-1.18-.48-.4-.83-.73-1.27-1.15-.96-.94-1.78-1.93-2.45-2.94-.19-.28-.37-.57-.54-.88l-.24-.43c-.09-.16-.17-.34-.25-.52l-.06-.12c-.36-.77-.63-1.67-.82-2.67-.54-3.49.24-6.04.71-7.57l.05-.14,1.76-4.49.95-2.03c.1-.21.21-.45.48-.97.32-.6.69-1.17,1.13-1.75.78-1.03,1.57-1.8,2.17-2.36.67-.62,1.13-1.01,1.79-1.55.84-.68,2.12-1.68,3.73-2.54,1.59-.86,3.36-1.48,5.09-1.76.46-.08.93-.14,1.4-.17l.71-.04h.78c1.08.04,2.08.19,3.1.45,1.78.46,3.41,1.19,4.99,2.24.82.55,1.55,1.14,2.23,1.81.33.33.72.73,1.13,1.25.38.49.63.87.9,1.3.45.73.8,1.42,1.17,2.24.18.4.35.83.51,1.32.12.35.23.71.33,1.08.36,1.31.77,3.09.68,5.3-.06,2.33-.96,4.93-2.34,6.76-1.84,2.47-3.93,3.65-5.45,4.5l-.74.39-.27.13-.46.21c-.7.31-1.4.55-2.1.72-1,.25-2.05.41-3.13.45.14.06.28.11.42.16.93.32,1.87.6,2.75.87.91.27,1.76.53,2.52.8.88.31,1.59.59,2.14.85.48.23.86.41,1.19.55.35.15.51.2.58.22.07,0,.14,0,.2,0,1.29,0,2.31.91,2.47,2.21l.04.29-.05.29c-.13.79-.67,1.6-1.39,2.12-.46.36-1.1.66-1.83.86-.54.15-1.13.24-1.8.27-.3.02-.65.02-.98.02-.18,0-.35,0-.51,0-.44,0-.84.01-1.25.02-.58.01-1.21.02-1.87.02ZM112.54,190.44c1.26.22,2.16.33,2.77.33.24,0,.37-.02.44-.03l.34-.18c.18-.09.33-.18.47-.26-.02-.08-.04-.17-.07-.26l-.15-.48s-.02-.05-.05-.11c-.07-.16-.17-.36-.25-.5-.06-.05-.1-.08-.15-.11-.25-.17-.53-.29-.68-.33-.03,0-.06-.01-.1-.02-.06,0-.14.02-.24.03-.19.03-.89.23-2.2,1.31l-.63.53.5.08Z"/>
    <path class="cls-3" d="M114.81,176.56h.72c.94.04,1.8.18,2.61.39,1.62.42,3.04,1.08,4.38,1.97.67.45,1.31.96,1.93,1.57.3.3.62.63.96,1.06.33.43.56.77.77,1.12.41.68.73,1.3,1.04,1.99.15.34.3.72.44,1.14.11.32.21.65.31.99.37,1.35.68,2.86.61,4.67-.05,1.81-.72,4.02-1.94,5.64-1.61,2.15-3.45,3.18-4.86,3.98l-.53.28-.13.07-.21.1-.44.2c-.58.26-1.17.46-1.74.6-1.14.29-2.23.4-3.2.41-.06,0-.11,0-.17,0-1.88,0-3.47-.27-4.85-.5l-1.97-.33c-.46-.07-.91-.17-1.35-.28.14.16.28.32.45.48.36.36.8.71,1.28,1.06.97.69,2.16,1.33,3.41,1.98.32.16.64.33.95.49.28.14.53.28.81.41.55.26,1.11.5,1.69.72,1.98.68,3.83,1.15,5.3,1.68.73.26,1.42.52,1.95.78.51.24.93.44,1.28.59.63.27.99.39,1.33.39.04,0,.08,0,.13,0,.04,0,.08,0,.11,0,.29,0,.44.16.48.46-.04.24-.25.6-.58.84-.33.26-.75.43-1.18.55-.44.12-.91.18-1.4.21-.48.03-1.03.01-1.46.03-.88,0-1.9.04-3.04.04-1.3,0-2.78-.05-4.43-.24.06.02.05.03-.03.03-.12,0-.43-.04-.9-.11-.37-.06-.84-.16-1.39-.29-.5-.14-1.08-.3-1.72-.47-1.2-.35-2.72-.78-4.45-1.55-.86-.38-1.78-.86-2.7-1.47-.46-.31-.92-.64-1.37-1.03-.46-.39-.78-.69-1.18-1.08-.76-.75-1.51-1.61-2.17-2.61-.17-.25-.32-.5-.47-.77l-.22-.41c-.08-.15-.16-.35-.24-.52-.32-.7-.54-1.48-.67-2.19-.45-2.88.15-4.98.66-6.62,1.04-2.65,1.73-4.43,1.73-4.43l.8-1.72c.15-.31.2-.47.56-1.15.3-.55.62-1.03.95-1.47.66-.87,1.33-1.53,1.94-2.09.64-.58,1.08-.96,1.71-1.48.97-.79,2.07-1.6,3.39-2.31,1.3-.71,2.85-1.28,4.47-1.55.4-.07.82-.12,1.22-.15l.61-.04M108.38,192.21c.08-.06.15-.12.24-.19.07-.05.36-.23.48-.24.3.11.7.22,1.02.27l2.1.35c1.25.22,2.3.36,3.1.36.03,0,.06,0,.09,0,.4,0,.69-.05.88-.1.1-.02.16-.05.21-.07h.03s0-.01.02-.02l.1-.05.38-.2c.99-.52,1.54-1,1.57-1.09.03-.07.01.06.05-.22.02-.28-.05-.87-.24-1.53l-.16-.51c-.03-.08-.07-.18-.13-.32-.12-.27-.28-.58-.41-.79l-.12-.18s0,0,0,0c0,0-.04-.04-.1-.1-.13-.13-.3-.27-.51-.41-.4-.27-.91-.5-1.32-.6-.25-.06-.37-.08-.53-.08-.13,0-.28.02-.53.05-.85.13-1.9.66-3.22,1.75l-.77.65c-.26.22-.48.43-.67.61-.38.36-.61.65-.69.78l-.89,1.89M114.7,172.55h-.12s-.61.04-.61.04h-.03s-.03,0-.03,0c-.53.04-1.06.1-1.59.19-1.94.32-3.93,1.01-5.72,1.98-1.74.93-3.12,2-4.01,2.72-.73.61-1.21,1.02-1.88,1.63-.68.63-1.56,1.49-2.42,2.63-.51.67-.93,1.33-1.29,2v.02s-.03.02-.03.02c-.29.56-.41.83-.52,1.06l-.09.18v.03s-.03.03-.03.03l-.8,1.72-.05.12-.05.12-1.73,4.43-.05.14-.04.14c-.67,2.19-1.35,4.82-.79,8.42v.05s.02.05.02.05c.21,1.16.54,2.22.97,3.15l.05.1c.1.23.21.46.32.66l.23.42.02.03.02.03c.2.35.41.69.62,1,.74,1.11,1.64,2.2,2.69,3.23.44.43.84.8,1.39,1.27.52.45,1.09.87,1.74,1.31,1.01.68,2.09,1.27,3.3,1.81,1.93.85,3.61,1.34,4.83,1.7l.12.03h.03s.03.02.03.02l1.3.36.42.11.06.02h.06c.56.15,1.1.26,1.65.36h.02s.03,0,.03,0c.88.14,1.27.16,1.53.16.03,0,.07,0,.1,0,1.38.14,2.78.21,4.36.21.68,0,1.32-.01,1.91-.02.41,0,.79-.02,1.15-.02h.08s.08,0,.08,0c.13,0,.28,0,.43,0,.34,0,.72,0,1.13-.03.77-.05,1.49-.16,2.16-.34.97-.26,1.82-.67,2.54-1.21,1.12-.83,1.91-2.08,2.13-3.37l.1-.58-.07-.58c-.28-2.25-2.08-3.9-4.31-3.97-.04-.02-.09-.04-.15-.06-.31-.13-.67-.3-1.12-.52-.45-.22-1-.45-1.66-.69h0s.55-.29.55-.29l.04-.02.04-.02c1.61-.91,4-2.25,6.1-5.07,1.63-2.16,2.65-5.12,2.73-7.9.09-2.47-.35-4.43-.75-5.87-.12-.43-.24-.82-.37-1.2-.16-.48-.35-.96-.57-1.47-.4-.9-.81-1.68-1.29-2.46-.28-.44-.58-.91-1.03-1.49-.49-.62-.93-1.08-1.3-1.44-.78-.77-1.6-1.44-2.53-2.05-1.78-1.18-3.61-2-5.61-2.52-1.18-.3-2.31-.47-3.47-.51h-.07s-.07,0-.07,0h-.72s-.12,0-.12,0h0Z"/>
  </g>
  <g>
    <path class="cls-1" d="M144.32,216.41q-.23,0-5.42-1.21l-3.41-.79c-2.06-.48-3.1-.72-3.1-2.31v-.04c-.1-.34-.17-.64-.21-.88-.1-.54-.14-.98-.17-1.38-.03-.55-.03-.97-.03-1.29v-.49s-.14-.87-.14-.87c-.06-.49-.12-.93-.15-1.37-.14-1.5-.19-3.09-.15-5,.03-1.35.11-2.73.24-4.5l.02-.29c.1-1.32.21-2.6.34-3.99.19-1.83.4-3.33.68-4.73l.23-1.09c.04-.17.06-.33.09-.5.02-.17.04-.35.05-.54l.03-.88.47-1.58,1.03-.07v-.04c.2-.54.46-1.28,1-1.87.49-.57,1.11-1.02,1.81-1.3.7-.25,1.33-.37,1.98-.38h.12c.49,0,.95.07,1.36.13l.81.11h.05c.14-.01.28-.02.43-.02.13,0,.26,0,.39.02.21.02.49.05.82.15.06.02.13.04.2.06.49-.42.98-.8,1.48-1.16,2.67-1.98,5.91-3.57,9.11-4.47,2.15-.68,4.16-1.03,5.93-1.03.34,0,.68.01,1,.04,1.08.09,1.88.3,2.61.52.76.24,1.39.49,1.94.78,1.58.81,2.5,2.12,2.36,3.41-.13,1.17-.93,2.02-1.99,2.22-.38.17-.79.26-1.26.33l-2.16.35c-.36.06-.62.13-.95.24-.35.11-.73.26-1.14.44-.76.34-1.65.81-2.64,1.39-.23.19-.46.34-.64.45-.45.29-1.21.77-2.1,1.42-.94.69-3.28,2.58-4.79,5.08-.32.5-.58,1.02-.84,1.55-.05.12-.1.23-.14.34-.06.14-.12.28-.19.47l-1.87,5.03c-.17.46-.45,1.19-.61,1.64l-.08.7c-.01.11-.02.24-.03.41-.03.44-.07,1.09-.19,1.91l-.2,1.09-.1.69c-.1.79-.15,1.77-.17,3.14v.03c.01.07.03.16.06.28.06.29.14.7.25,1.31l.02.15c.06.48.17,1.28.02,2.46-.08.72-.32,1.52-.67,2.27.48.35.68.85.59,1.68l-.2,1.77h-1.78Z"/>
    <path class="cls-3" d="M160.22,174.82c.29,0,.57.01.84.03.93.07,1.6.26,2.21.44.61.19,1.13.4,1.55.62.85.44,1.36,1.05,1.32,1.44-.04.32-.2.47-.47.47-.03,0-.07,0-.11,0-.19.15-.43.23-.98.32-.62.1-1.35.22-2.18.35-.48.08-.83.17-1.25.31-.41.14-.86.31-1.33.52-.94.42-1.98.97-3.08,1.63,0,0,.01,0,.02,0,.17,0-1.03.62-2.7,1.86-1.71,1.27-3.88,3.29-5.31,5.65-.37.58-.67,1.19-.96,1.78-.13.32-.24.55-.38.94-.14.37-.27.73-.4,1.09-.53,1.43-1.03,2.77-1.46,3.92-.62,1.64-.84,2.27-.82,2.43.03.02.01.38.02.38,0,0,0,0,0,0-.05.41-.06,1.17-.22,2.25l-.19,1.03-.11.76c-.13,1.03-.17,2.15-.19,3.4v.16s0,0,0,0c0,.14.1.55.33,1.83.05.42.15,1.04.02,2-.1.94-.64,2.24-1.38,3.06-.09.11-.18.2-.27.3l-.14.14-.07.07c1.27.29,1.78.41,1.78.41,0,0-9.94-2.31-9.93-2.31,0,0,.04,0,.13.03h0s0-.01,0-.01h0s-.01-.04-.01-.04l-.15-.46c-.08-.27-.15-.56-.19-.78-.09-.48-.12-.85-.14-1.18-.04-.6-.03-1.03-.03-1.36v-.45s-.16-1-.16-1c-.05-.42-.1-.83-.14-1.24-.16-1.65-.18-3.24-.14-4.79.04-1.51.13-2.97.24-4.38.11-1.41.22-2.76.36-4.23.15-1.46.34-2.99.65-4.54l.22-1.07c.05-.22.08-.43.11-.65.03-.22.05-.44.06-.68l.02-.67s0,0,.24-.04c.17-.04.38-.11.59-.23.1-.08.24-.08.3-.29.07-.19.15-.4.22-.63.16-.44.34-1.04.65-1.37.3-.35.67-.62,1.07-.78.39-.14.82-.22,1.26-.23.03,0,.05,0,.08,0,.42,0,.86.08,1.31.15.25.03.5.07.76.11.2,0,.38-.02.59-.02.07,0,.13,0,.2,0,.14.01.28.03.44.08.15.04.32.1.54.3.13.11.26.25.4.39.78-.75,1.62-1.46,2.49-2.09,2.68-1.98,5.7-3.38,8.48-4.17,1.96-.62,3.79-.95,5.39-.95M160.22,170.82h0c-1.96,0-4.16.38-6.53,1.12-3.45.99-6.81,2.64-9.7,4.78-.26.19-.52.39-.78.6-.14-.02-.26-.03-.36-.04-.19-.02-.36-.02-.54-.02-.14,0-.27,0-.4.01h-.02s-.37-.05-.37-.05l-.2-.03c-.45-.07-1.02-.16-1.66-.16h-.19c-.83.02-1.67.17-2.48.46l-.09.03-.09.04c-.98.4-1.86,1.03-2.55,1.83-.38.43-.66.88-.88,1.31l-1.08.07-.86,2.6-.17.53-.02.56-.02.61c0,.13-.02.25-.04.36-.01.11-.03.22-.06.34l-.23,1.07c-.3,1.51-.52,3.07-.72,4.96-.14,1.43-.24,2.71-.35,4.06l-.02.27c-.14,1.81-.22,3.23-.25,4.61-.04,2,0,3.67.16,5.27.04.43.09.9.15,1.37v.04s.01.04.01.04l.1.66h-2.48l3.44,5.99c.87,1.51,1.82,1.73,4.11,2.27l3.41.79q5.41,1.26,5.87,1.26h3.57l.41-3.54c.03-.3.09-1.2-.33-2.14.2-.61.35-1.22.42-1.81.18-1.42.05-2.41-.02-2.95v-.06s-.02-.09-.02-.09l-.02-.09c-.11-.62-.2-1.05-.25-1.35,0-.03-.01-.06-.02-.08.02-1.18.06-2.03.15-2.74l.09-.65.17-.96v-.06s.02-.06.02-.06c.13-.89.18-1.6.21-2.07,0-.13.01-.23.02-.32l-3.86-.57.35-.35,3.4-.57c.05.2.09.41.11.61,0,.46-.08.78-.1.82.07-.26.48-1.34.66-1.8l.87-2.33.6-1.61.17-.47.23-.63c.06-.17.11-.27.15-.38.05-.11.09-.21.14-.32.23-.47.44-.88.66-1.24l.03-.05.03-.05c.92-1.52,2.52-3.21,4.27-4.51.82-.61,1.52-1.05,1.98-1.34.24-.15.45-.3.65-.46.9-.53,1.7-.95,2.37-1.25.34-.15.66-.28.95-.37.28-.09.43-.13.64-.16l1.36-.22.82-.13c.46-.07.98-.17,1.51-.38,1.81-.43,3.17-1.94,3.39-3.9.23-2.15-1.09-4.22-3.44-5.43-.65-.35-1.38-.64-2.23-.9h-.03s-.03-.02-.03-.02c-.79-.23-1.74-.49-3.01-.59-.38-.03-.77-.05-1.16-.05h0Z"/>
  </g>
  <g>
    <path class="cls-1" d="M182.47,217.78c-.33,0-1.56-.02-3.47-.29-1.45-.2-5.28-.9-9.29-2.96-1.28-.64-2.99-1.57-4.71-2.93-1.56-1.23-3.01-2.89-3.97-4.56-1.01-1.79-1.44-3.19-1.68-4.1-.28-1.12-.34-1.83-.35-1.9-.14-1.68.03-3.46.5-5.44.36-1.51.93-3.05,1.69-4.58.9-1.8,2.06-3.55,3.44-5.18.65-.78,1.35-1.52,2.07-2.21.32-.32.69-.64,1.05-.97l1.1-.92c.7-.57,1.63-1.31,2.91-2.02.83-.45,1.61-.77,2.42-1,.45-.12.86-.21,1.3-.28.48-.07.92-.12,1.34-.13.12,0,.26,0,.41,0,.81,0,1.65.09,2.41.27.7.16,1.42.39,2.17.71l2.85,1.29c1.33.59,2.99,1.34,4.75,2.6.51.38,1.04.79,1.64,1.38.3.28.65.68.89.96.28.32.56.7.84,1.13.51.76.94,1.61,1.25,2.49.37.92.59,1.83.67,2.69.2,1.85-.31,3.84-1.44,5.54-.52.81-1.08,1.51-1.7,2.12-.32.32-.68.63-1.06.93l-.56.42-.06.06c-.17.16-.43.39-.81.71-.42.34-.81.61-1.21.85-.23.13-.42.24-.66.36l-.44.21c-.95.43-1.75.72-2.39.94l-.38.14c-.54.19-.81.29-1.34.52l-.13.05c-.55.23-1.31.55-2.23.82-1.14.32-1.89.43-2.68.55-.21.03-.43.06-.65.08.39.24.8.46,1.22.68,1.69.9,3.68,1.64,5.94,2.22,1.63.37,3.07.57,4.39.74l1.09.14c.82.1,1.5.19,2.05.29,1.25.21,2.65.59,3.18,1.88.32.77.22,1.62-.29,2.34-1.32,1.85-6.35,3.29-11.49,3.31-.18.03-.38.04-.59.04ZM177.36,191.19c-.13.1-.29.22-.48.37l-.78.65-.07.06c-.17.15-.35.31-.51.47-.29.27-.56.55-.82.84.4-.02.79-.06,1.15-.11.33-.04.71-.12.82-.15.2-.06.54-.19,1.03-.4.54-.23,1.3-.53,1.88-.73-.23-.11-.45-.2-.63-.28l-1.59-.73Z"/>
    <path class="cls-3" d="M177.24,180.3c.66,0,1.35.08,1.96.22.72.16,1.34.39,1.85.6l2.23,1.02c1.42.65,3.14,1.34,4.97,2.66.46.34.9.69,1.4,1.18.23.21.5.51.75.81.26.3.49.61.7.94.44.65.79,1.35,1.04,2.07.28.72.5,1.45.56,2.2.16,1.5-.27,3-1.12,4.27-.41.64-.89,1.26-1.44,1.81-.28.27-.57.53-.88.77l-.53.39c-.12.1-.39.37-.95.82-.31.25-.63.48-.97.68-.17.1-.33.19-.53.29l-.42.2c-1.01.46-1.88.74-2.58,1-.57.2-.87.32-1.45.56-.56.23-1.27.54-2.15.8-.99.28-1.63.38-2.41.49-.74.1-1.47.16-2.17.2-.69.04-1.36.05-1.99.05h-1.72c.18.2.37.41.6.62.32.31.7.62,1.11.95.41.33.87.66,1.29.96.87.63,1.82,1.21,2.83,1.73,2.01,1.06,4.24,1.84,6.37,2.38,1.81.41,3.36.62,4.64.78,1.28.17,2.28.28,3.03.42,1.5.25,1.97.61,1.62,1.1-.66.93-4.62,2.46-9.92,2.46-.05,0-.1,0-.16,0,.1.02-.04.04-.36.04-.56,0-1.69-.06-3.18-.28-2.35-.33-5.62-1.19-8.66-2.76-1.47-.74-2.95-1.58-4.38-2.72-1.42-1.11-2.67-2.57-3.48-3.99-.82-1.45-1.22-2.61-1.48-3.61-.24-.97-.29-1.57-.29-1.57-.15-1.8.13-3.46.46-4.8.35-1.47.89-2.88,1.54-4.16.88-1.77,1.97-3.35,3.18-4.79.61-.72,1.25-1.4,1.92-2.05.33-.33.68-.64,1.04-.95l1.02-.85c.68-.55,1.48-1.19,2.59-1.8.55-.3,1.21-.6,2-.82.4-.11.73-.18,1.08-.23.35-.05.72-.1,1.1-.11.11,0,.22,0,.34,0M177.07,189.01s0,0,0,0c0,0-.07.02-.19.09-.28.15-.73.47-1.27.91l-.8.66c-.24.21-.48.42-.71.65-.46.44-.9.91-1.31,1.4-.78.91-1.44,1.9-1.96,2.89.17,0,.33.02.5.02h1.74c.57,0,1.11-.02,1.62-.04.51-.03.98-.07,1.43-.13.42-.05.97-.16,1.13-.22.28-.08.68-.24,1.23-.47.52-.23,1.35-.55,1.91-.74.78-.27,1.41-.5,1.83-.69l.11-.05.83-.73.38-.3.03-.02h0s0,0,0,0h0s0-.01,0-.01h0s0,0,0,0c0,0-.01,0-.06-.05-.06-.07-.24-.21-.41-.34-.72-.54-1.93-1.11-3.38-1.74l-2.07-.95c-.34-.13-.41-.15-.43-.15,0,0,0,0-.01,0,0,0,0,0,0,0,0,0,0,0,0,0-.01,0-.04,0-.07,0l-.08.02M182.34,193.28h0s0,0,0,0c0,0,0,0,0,0h0M177.24,176.3c-.17,0-.34,0-.51.01-.47.01-.99.06-1.55.15-.51.08-.99.18-1.51.33-.98.27-1.9.65-2.85,1.17-1.44.79-2.45,1.6-3.19,2.2l-.03.02-.03.02-1.02.85-.04.04-.04.04-.04.04c-.35.31-.74.66-1.13,1.04-.76.73-1.5,1.52-2.2,2.35-1.48,1.75-2.73,3.63-3.7,5.58-.52,1.03-.95,2.07-1.3,3.11l-12.59,5.71,11.7-2.17c-.26,1.55-.33,3.02-.22,4.43.01.16.09.99.4,2.21.28,1.06.76,2.63,1.88,4.61,1.11,1.93,2.7,3.76,4.49,5.17,1.84,1.46,3.67,2.45,5.05,3.15,4.25,2.19,8.35,2.93,9.91,3.14,1.96.28,3.26.31,3.73.31.26,0,.51-.02.74-.04,4.89-.04,10.97-1.34,12.96-4.14.91-1.29,1.09-2.88.51-4.28-1.03-2.45-3.67-2.91-4.71-3.08-.62-.11-1.31-.2-2.11-.3-.33-.04-.69-.09-1.07-.14-1.28-.17-2.65-.35-4.23-.71-.53-.14-1.05-.29-1.55-.44.09-.04.18-.08.27-.11l.12-.05c.53-.22.74-.31,1.24-.48l.4-.14c.68-.24,1.53-.54,2.52-.99l.03-.02.03-.02.42-.2h.03s.03-.03.03-.03c.27-.14.5-.27.75-.41.52-.31.98-.63,1.46-1.02.45-.37.74-.63.92-.8l.03-.02.41-.31.03-.02.03-.02c.44-.35.86-.71,1.25-1.09.71-.7,1.36-1.51,1.97-2.46,1.37-2.07,1.99-4.5,1.75-6.83-.09-1.03-.35-2.08-.8-3.22-.36-1.01-.85-1.97-1.45-2.87-.32-.48-.64-.92-.99-1.32-.36-.44-.71-.81-1.04-1.12-.67-.65-1.25-1.11-1.79-1.5l-.02-.02-.02-.02c-1.93-1.39-3.69-2.18-5.1-2.81l-.55-.25-2.23-1.02-.06-.03-.06-.02c-.86-.36-1.68-.63-2.51-.82-.89-.21-1.88-.32-2.84-.32h0Z"/>
  </g>
  <g>
    <path class="cls-1" d="M210.51,193.18c-.91,0-1.72-.41-2.18-1.11-.15-.21-.28-.46-.36-.72l-.21-.31c-.23-.24-.36-.48-.44-.61-.33-.62-.55-1.33-.78-2.22-.17-.43-.26-.9-.34-1.32l-.24-1.25-.08-.49-.15-1.37-.46-4.62.2-2.84c.04-.49.07-1.04.09-1.66l.14-4.58c.05-1.41.17-3.56.47-5.87.4-3.16,1.07-6.71,1.99-10.52l.22-.92.16-.73c.13-.61.26-1.17.38-1.67.11-.44.29-1.12.54-1.84.42-1.12,1.28-1.4,1.65-1.49.57-.18,1.21-.27,1.88-.27.91,0,1.82.17,2.69.5,1.51.53,2.99,1.59,4.56,2.71l.23.16c.68.5.89.9,1,1.2l.22.61-.19.68-.03.1c-.03.08-.1.3-.21.74l-.5,2.22-.25,1.05c-.82,3.35-1.42,6.55-1.75,9.25-.19,1.53-.31,3.06-.37,4.82l-.16,4.73c-.04.77-.08,1.48-.13,2.08l-.2,2.83-.05.18s-.32,1.22-.83,2.8l-.42,1.25-.24.69c-.04.14-.09.25-.14.36l-.05.15c-.35,1.19-.72,2.19-1.1,3.03-.86,2.11-1.94,3.42-3.3,4.01-.39.17-.82.27-1.24.27h0Z"/>
    <path class="cls-3" d="M213,148.78c.6,0,1.28.1,1.98.37,1.35.48,2.75,1.5,4.33,2.63.06.04.26.21.28.26,0,.04-.11.29-.28.95-.08.37-.19.82-.3,1.32-.07.3-.14.62-.21.95-.08.32-.16.66-.25,1.01-.64,2.61-1.38,6.08-1.8,9.47-.22,1.71-.33,3.33-.38,4.99-.06,1.73-.11,3.35-.16,4.73-.03.72-.08,1.41-.12,2-.04.55-.07,1.02-.1,1.41-.06.78-.09,1.23-.09,1.23,0,0-.3,1.15-.8,2.71-.13.39-.27.8-.41,1.23-.08.21-.15.43-.23.65-.04.13-.07.19-.11.24l-.1.33c-.28.94-.62,1.95-1.03,2.83-.61,1.51-1.37,2.59-2.27,2.98-.16.07-.31.1-.44.1-.25,0-.43-.1-.51-.21-.14-.19-.19-.41-.17-.62,0-.04-.02-.09-.05-.13-.02-.03-.03-.02-.07-.07-.05-.08-.12-.16-.19-.23-.04-.03-.08-.07-.13-.1-.03-.02-.05,0-.07-.04-.03-.04-.07-.08-.1-.12-.07-.05-.13-.16-.18-.26-.22-.41-.41-1.09-.61-1.86,0,0,0,0-.01,0-.05,0-.13-.4-.26-1.05-.07-.36-.15-.79-.24-1.25-.02-.13-.04-.26-.07-.39-.02-.16-.03-.33-.05-.5-.03-.27-.06-.54-.09-.81-.22-2.2-.44-4.43-.44-4.43,0,0,.03-.46.09-1.26.03-.39.06-.87.1-1.41.04-.5.07-1.07.09-1.71.04-1.35.09-2.92.14-4.6.06-1.76.2-3.77.45-5.67.48-3.84,1.28-7.54,1.95-10.31.08-.32.15-.62.22-.92.06-.29.12-.56.18-.82.12-.55.24-1.09.36-1.57.24-.96.48-1.63.5-1.69.04-.1.05-.13.3-.19.35-.12.81-.2,1.34-.2M213,144.78c-.86,0-1.7.12-2.45.35-1.88.52-2.64,1.86-2.92,2.63l-.02.06-.02.07c-.21.61-.42,1.32-.59,2.02-.13.5-.26,1.09-.38,1.69l-.12.54-.05.22-.21.88c-.94,3.89-1.62,7.51-2.03,10.75-.31,2.37-.43,4.59-.48,6.03l-.07,2.25-.07,2.36c-.02.56-.05,1.09-.09,1.55l-.04.62-.06.8-.09,1.26-.02.34.03.34.44,4.43.09.85.05.48v.13s.03.13.03.13l.04.21.03.18v.03s.01.03.01.03l.24,1.25c.06.31.16.81.35,1.36.27,1.07.54,1.93.94,2.68l.03.06.03.06c.09.17.28.49.59.85l.03.05c.14.33.31.64.51.94.84,1.21,2.25,1.93,3.8,1.93.71,0,1.41-.15,2.07-.45,1.8-.78,3.25-2.48,4.3-5.03.42-.91.8-1.96,1.19-3.26.06-.13.12-.28.17-.45l.12-.35.09-.26v-.03s.02-.03.02-.03l.16-.47.25-.76c.54-1.67.86-2.89.88-2.94l.1-.36.03-.38.09-1.23.02-.33.08-1.08c.05-.61.09-1.34.13-2.1v-.03s0-.03,0-.03l.15-4.5v-.24c.06-1.69.18-3.16.36-4.62.32-2.63.92-5.75,1.71-9.03l.2-.82.05-.2v-.04s.02-.04.02-.04l.21-.92.2-.87.09-.42c.06-.22.11-.4.15-.52l.05-.13.05-.17.33-1.23-.44-1.19c-.3-.82-.85-1.51-1.68-2.12l-.26-.19c-1.67-1.2-3.25-2.33-5.05-2.97-1.09-.41-2.22-.61-3.36-.61h0Z"/>
  </g>
  <g>
    <path class="cls-1" d="M206.72,215.76c-.16,0-.29-.01-.42-.03l-.25-.03c-.46-.03-.86-.13-1.18-.21l-.26-.06-.08-.03c-.98-.33-1.82-.79-2.63-1.46-.41-.36-.79-.75-1.23-1.26-.33-.35-.57-.78-.77-1.12-.06-.11-.12-.22-.19-.32l-.06-.09-.05-.09c-.53-1.04-.89-2.2-1.06-3.37-.33-2.3.16-4.57,1.38-6.39.3-.44.62-.84.95-1.2.11-.13.24-.25.41-.41l.11-.1c.24-.23.47-.41.71-.58.73-.54,1.51-.97,2.37-1.31,1.34-.53,2.35-.67,3.02-.77.64-.08,1.03-.1,1.17-.11h.12s.06,0,.06,0c.52,0,1.46.21,1.96,1.42.04.1.08.2.12.3.07,0,.15.02.23.03.81.1,1.63.47,2.32.82l.28.14c.35.17.75.36,1.18.69.31.25.6.5.86.85.17.22.29.42.37.56h-.01c.09.17.17.36.24.58l.03.11c.1.29.13.56.16.8l.1.78c.04.25.07.62-.04,1.14l-.35,2.13-.1.23c-.27.62-.61,1.31-.97,2.03-.17.35-.35.71-.53,1.07-.23.57-.6.95-.81,1.15l-2.56,2.71-1.63.7c-.14.06-.24.1-.34.14-.48.21-.97.43-1.56.43l-.7.07c-.1.02-.26.03-.4.03Z"/>
    <path class="cls-3" d="M208.83,198.83c.06,0,.08,0,.16.21.17.37.34.96.46,1.68.13-.05.29-.09.48-.11-.04-.04.13-.09.44-.09.14,0,.32.01.51.04.62.08,1.33.43,1.72.63.42.22.78.36,1.15.64.18.15.35.3.48.48.12.15.2.32.21.32,0,0,0,0,0,0,0,0,.04.13.12.37.04.08.06.38.1.63.02.14.03.28.05.44.01.17.07.27,0,.61-.1.58-.2,1.23-.32,1.94-.4.92-.97,2.01-1.5,3.12-.1.31-.39.49-.59.74-.22.24-.45.48-.68.72-.46.49-.94.99-1.42,1.51-.41.18-.82.35-1.25.54-.37.15-.87.42-1.1.42-.02,0-.03,0-.05,0-.28.03-.56.05-.85.08-.08.01-.14.02-.2.02-.06,0-.11,0-.16-.01l-.3-.03c-.44-.03-.74-.12-1.09-.21-.63-.21-1.28-.52-1.98-1.1-.34-.29-.66-.65-.98-1.02-.33-.36-.54-.81-.8-1.23-.44-.87-.73-1.82-.86-2.74-.27-1.87.15-3.63,1.06-4.99.23-.34.48-.65.75-.94.14-.16.25-.25.43-.41.18-.17.35-.3.53-.43.7-.52,1.36-.84,1.92-1.06,1.14-.45,1.99-.57,2.6-.66.61-.08.97-.09,1.01-.09M207.56,206.42h0s0,0,0,0c.01.01.03.03.05.06,0,0,0,0,0,0,0,0,0,0,0,0-.02-.02-.04-.04-.05-.06,0,0,0,0,0,0h0s-.02-.02-.02-.02c0,0,0,0,.02.02M208.66,194.83h-.11c-.2.02-.64.05-1.24.12h-.04s-.03,0-.03,0c-.74.11-1.93.28-3.48.89-1.02.4-1.95.91-2.83,1.56-.23.17-.54.41-.88.72l-.09.09c-.14.13-.33.3-.56.56-.39.42-.76.89-1.11,1.4-1.5,2.23-2.11,5-1.71,7.8.19,1.37.63,2.76,1.25,3.99l.09.18.11.17c.05.08.09.16.14.23.21.37.53.92,1.03,1.47.49.57.91,1.01,1.34,1.38l.04.04.04.04c.99.82,2.06,1.41,3.27,1.81l.16.05.16.04.15.04c.34.09.86.22,1.55.27l.16.02c.21.03.43.04.65.04s.43-.01.65-.04l.49-.05h.06c.96-.03,1.71-.36,2.27-.61.07-.03.13-.06.2-.09l.05-.02.07-.03.51-.22.74-.32.75-.33.56-.6.24-.25,1.19-1.25.55-.58.14-.15.1-.11.02-.03c.27-.26.85-.84,1.23-1.76.16-.34.33-.68.49-1.01.36-.74.71-1.43,1-2.1l.2-.46.08-.49.17-1.05.13-.8c.16-.78.12-1.36.06-1.79v-.07s-.06-.44-.06-.44v-.05s-.01-.05-.01-.05v-.12c-.05-.31-.1-.73-.27-1.22l-.08-.26-1.05-3.34-1.47.25c-.42-.27-.8-.46-1.09-.6l-.23-.11c-.62-.31-1.32-.64-2.1-.85-1.09-1.78-2.88-1.95-3.46-1.95h-.19Z"/>
  </g>
</svg>