<?xml version="1.0" encoding="utf-8"?>
<!-- Generator: Adobe Illustrator 28.3.0, SVG Export Plug-In . SVG Version: 6.00 Build 0)  -->
<svg version="1.1" id="textlogo" xmlns="http://www.w3.org/2000/svg" xmlns:xlink="http://www.w3.org/1999/xlink" x="0px" y="0px"
	 viewBox="0 0 92.8 24.06" style="enable-background:new 0 0 92.8 24.06;" xml:space="preserve">
<style type="text/css">
	.st0{fill:#FFFFFF;}
</style>
<g id="textlogousername">
	<path class="st0" d="M20.92,18.18v0.79H14.8v-0.79c1.1,0,1.27-0.14,1.27-1.08v-5.76c0-1.73-0.67-2.45-1.82-2.45
		c-0.98,0-1.63,0.6-2.06,1.56v6.53c0,0.98,0.14,1.2,1.3,1.2v0.79H7.53v-0.79c1.1,0,1.25-0.14,1.25-1.08v-5.76
		c0-1.75-0.62-2.45-1.78-2.45c-0.79,0-1.39,0.34-2.11,1.13v7.01c0,1.03,0.24,1.15,1.32,1.15v0.79h-6.26v-0.79
		c1.37,0,1.54-0.19,1.54-1.2v-7.1c0-0.72-0.12-0.91-0.7-0.91h-0.79V8.17l3.77-0.6h1.03v1.54h0.05C5.75,8.2,6.98,7.43,8.71,7.43
		c1.75,0,2.86,0.84,3.29,1.9c0.79-1.22,2.11-1.9,3.86-1.9c2.23,0,3.62,1.13,3.62,3.77v5.78C19.48,17.99,19.65,18.18,20.92,18.18z"/>
	<path class="st0" d="M18.91,21.97c0-0.84,0.6-1.54,1.44-1.54c0.72,0,1.44,0.36,1.46,1.25c0,0.65-0.46,0.74-0.46,1.18
		c0,0.31,0.36,0.46,0.58,0.46c0.74,0,0.84-0.43,0.84-2.57V9.88c0-0.72-0.12-0.91-0.7-0.91h-0.79V8.17l3.82-0.6h1.08v10.9
		c0,3.34-1.37,5.59-4.3,5.59C20.39,24.06,18.91,23.39,18.91,21.97z"/>
	<path class="st0" d="M38.92,13.43h-7.18c0.1,2.98,0.84,4.32,2.88,4.32c1.63,0,2.64-0.86,3.24-2.23l0.82,0.43
		c-0.65,1.51-1.73,3.29-5.11,3.29c-3.55,0-5.4-1.97-5.4-5.88c0-3.96,1.92-5.93,5.47-5.93c3.72,0,5.28,2.18,5.28,5.78V13.43z
		 M35.35,12.57c0-2.9-0.29-4.27-1.73-4.27c-1.2,0-1.85,0.96-1.87,4.27H35.35z"/>
	<path class="st0" d="M52.84,18.18v0.79h-6.53v-0.79h0.55c0.53,0,0.6-0.34,0.31-0.79l-1.82-2.78l-1.87,2.69
		c-0.31,0.46-0.19,0.89,0.34,0.89h0.53v0.79h-4.32v-0.79c0.94,0,1.58-0.22,2.23-1.06l2.59-3.29l-3-4.61
		c-0.38-0.58-0.7-0.74-1.66-0.74V7.69h6.22v0.79h-0.43c-0.46,0-0.62,0.29-0.24,0.84l1.44,2.14l1.58-2.35
		c0.26-0.41,0.1-0.62-0.22-0.62h-0.55V7.69h3.86v0.79c-0.96,0-1.56,0.22-1.97,0.77l-2.18,2.98l3.29,4.9
		C51.5,17.89,51.91,18.18,52.84,18.18z"/>
	<path class="st0" d="M54.81,17.37c0-1.01,0.84-1.85,1.82-1.85c1.01,0,1.85,0.82,1.85,1.85c0,1.01-0.82,1.82-1.85,1.82
		C55.63,19.19,54.81,18.37,54.81,17.37z"/>
	<path class="st0" d="M72.86,18.47c-0.79,0.5-1.7,0.77-2.88,0.77c-1.27,0-1.97-0.48-2.18-1.18c-0.82,0.65-1.87,1.18-3.38,1.18
		c-2.09,0-3.31-0.86-3.31-2.54c0-2.18,2.59-3.7,6.63-4.44v-1.8c-0.02-1.32-0.41-2.04-1.8-2.04c-0.77,0-1.39,0.26-1.39,0.62
		c0,0.46,0.6,0.58,0.6,1.37s-0.62,1.51-1.66,1.51c-1.06,0-1.66-0.72-1.66-1.49c0-1.37,1.51-2.98,5.33-2.98
		c2.74,0,3.96,1.18,3.96,3.84v5.28c0,1.2,0.22,1.44,0.67,1.44c0.38,0,0.6-0.14,0.82-0.24L72.86,18.47z M66.02,17.8
		c0.62,0,1.22-0.34,1.7-0.7v-3.86c-2.26,0.6-3.24,1.49-3.24,2.9C64.48,17.32,64.99,17.8,66.02,17.8z"/>
	<path class="st0" d="M83.51,9.54c0,0.98-0.53,1.85-1.73,1.85c-0.96,0-1.58-0.53-1.58-1.44c0-0.72,0.41-0.86,0.41-1.06
		c0-0.1-0.1-0.19-0.26-0.19c-0.82,0-1.92,2.06-1.92,3.77H78.4v4.51c0,1.01,0.24,1.2,1.85,1.2v0.79h-6.79v-0.79
		c1.37,0,1.54-0.19,1.54-1.2v-7.1c0-0.72-0.12-0.91-0.7-0.91H73.5V8.17l3.77-0.6h1.03v2.21h0.07c0.5-1.06,1.42-2.33,3-2.33
		C82.75,7.45,83.51,8.34,83.51,9.54z"/>
	<path class="st0" d="M85.34,15.73V8.56H83.9V7.77c1.9-0.34,3.48-2.21,4.06-4.32h0.79v4.25h2.35v0.86h-2.35v7.03
		c0,1.49,0.36,2.23,1.34,2.23c0.58,0,1.13-0.34,1.34-0.46l0.41,0.67c-0.62,0.43-1.54,1.22-3.34,1.22
		C86.49,19.26,85.34,18.28,85.34,15.73z"/>
</g>
<g id="textlogoname">
	<g>
		<path class="st0" d="M38.36,5.91c0.53,0,0.59-0.07,0.59-0.45V0.87c0-0.28-0.05-0.35-0.27-0.35h-0.3v-0.3L39.86,0h0.4v5.46
			c0,0.37,0.07,0.45,0.53,0.45v0.3h-2.42V5.91z"/>
		<path class="st0" d="M49.5,4.13h-2.75c0.04,1.12,0.32,1.62,1.1,1.62c0.62,0,1.01-0.32,1.24-0.84l0.31,0.16
			c-0.25,0.57-0.66,1.23-1.96,1.23c-1.36,0-2.07-0.74-2.07-2.21c0-1.49,0.73-2.22,2.09-2.22c1.42,0,2.02,0.82,2.02,2.17V4.13z
			 M48.13,3.81c0-1.09-0.11-1.6-0.66-1.6c-0.46,0-0.71,0.36-0.72,1.6H48.13z"/>
		<path class="st0" d="M54.87,6.09c-0.13,0-0.19,0.05-0.25,0.13h-0.22l-0.08-1.47h0.29c0.15,0.77,0.67,1.24,1.35,1.24
			c0.45,0,0.83-0.2,0.83-0.66c0-0.34-0.21-0.5-0.75-0.69l-0.49-0.14c-0.86-0.3-1.19-0.67-1.19-1.27c0-0.84,0.63-1.36,1.65-1.36
			c0.6,0,0.79,0.18,1.02,0.18c0.15,0,0.17-0.08,0.2-0.16h0.23l0.06,1.31h-0.28c-0.17-0.63-0.59-1.02-1.16-1.02
			c-0.45,0-0.74,0.23-0.74,0.55c0,0.36,0.4,0.52,0.73,0.64l0.42,0.13c0.87,0.28,1.28,0.66,1.28,1.34c0,0.85-0.64,1.47-1.76,1.47
			C55.35,6.32,55.14,6.09,54.87,6.09z"/>
		<path class="st0" d="M63.12,6.09c-0.13,0-0.19,0.05-0.25,0.13h-0.22l-0.08-1.47h0.29c0.15,0.77,0.67,1.24,1.35,1.24
			c0.45,0,0.83-0.2,0.83-0.66c0-0.34-0.21-0.5-0.75-0.69L63.8,4.51c-0.86-0.3-1.19-0.67-1.19-1.27c0-0.84,0.63-1.36,1.65-1.36
			c0.6,0,0.79,0.18,1.02,0.18c0.15,0,0.17-0.08,0.2-0.16h0.23l0.06,1.31H65.5c-0.17-0.63-0.59-1.02-1.16-1.02
			c-0.45,0-0.74,0.23-0.74,0.55c0,0.36,0.4,0.52,0.73,0.64l0.42,0.13c0.87,0.28,1.28,0.66,1.28,1.34c0,0.85-0.64,1.47-1.76,1.47
			C63.6,6.32,63.38,6.09,63.12,6.09z"/>
		<path class="st0" d="M75.29,6.02c-0.3,0.19-0.65,0.29-1.1,0.29c-0.49,0-0.75-0.18-0.84-0.44c-0.31,0.24-0.72,0.44-1.3,0.44
			c-0.8,0-1.27-0.32-1.27-0.95c0-0.82,0.99-1.39,2.54-1.67V3.01c-0.01-0.5-0.16-0.77-0.69-0.77c-0.29,0-0.53,0.1-0.53,0.23
			c0,0.17,0.23,0.22,0.23,0.51c0,0.3-0.24,0.57-0.63,0.57c-0.4,0-0.63-0.27-0.63-0.56c0-0.51,0.58-1.12,2.04-1.12
			c1.05,0,1.52,0.44,1.52,1.44v1.98c0,0.45,0.08,0.54,0.26,0.54c0.15,0,0.23-0.05,0.31-0.09L75.29,6.02z M72.67,5.77
			c0.24,0,0.47-0.13,0.65-0.26V4.06c-0.86,0.23-1.24,0.56-1.24,1.09C72.09,5.59,72.28,5.77,72.67,5.77z"/>
		<path class="st0" d="M83.51,2.67c0,0.37-0.2,0.69-0.66,0.69c-0.37,0-0.61-0.2-0.61-0.54c0-0.27,0.16-0.32,0.16-0.4
			c0-0.04-0.04-0.07-0.1-0.07c-0.31,0-0.74,0.77-0.74,1.41h-0.01v1.69c0,0.38,0.09,0.45,0.71,0.45v0.3h-2.6v-0.3
			c0.52,0,0.59-0.07,0.59-0.45V2.8c0-0.27-0.05-0.34-0.27-0.34h-0.3v-0.3l1.44-0.23h0.39v0.83h0.03c0.19-0.4,0.54-0.87,1.15-0.87
			C83.21,1.89,83.51,2.22,83.51,2.67z"/>
		<path class="st0" d="M92.81,5.91v0.3h-1.77l-0.06-0.4c-0.39,0.32-0.83,0.5-1.35,0.5c-1.1,0-1.75-0.77-1.75-2.12
			c0-1.54,0.83-2.31,2.21-2.31c0.34,0,0.57,0.04,0.79,0.12h0.05V0.85c0-0.26-0.07-0.33-0.26-0.33h-0.31v-0.3L91.83,0h0.39v5.46
			c0,0.39,0.09,0.45,0.38,0.45H92.81z M90.92,5.37v-2.9C90.73,2.33,90.49,2.2,90.2,2.2c-0.67,0-0.97,0.58-0.97,1.74
			c0,1.25,0.34,1.85,0.95,1.85C90.49,5.8,90.71,5.59,90.92,5.37z"/>
	</g>
	<g>
		<path class="st0" d="M8.03,5.91v0.3H5.69v-0.3c0.42,0,0.49-0.05,0.49-0.41V3.35c0-0.65-0.26-0.92-0.7-0.92
			c-0.38,0-0.62,0.23-0.79,0.59v2.45c0,0.37,0.06,0.45,0.5,0.45v0.3H2.9v-0.3c0.42,0,0.48-0.05,0.48-0.41V3.35
			c0-0.66-0.24-0.92-0.68-0.92c-0.3,0-0.53,0.13-0.81,0.42v2.63c0,0.39,0.09,0.43,0.5,0.43v0.3H0v-0.3c0.52,0,0.59-0.07,0.59-0.45
			V2.8c0-0.27-0.05-0.34-0.27-0.34h-0.3v-0.3l1.44-0.23h0.39v0.58h0.02c0.35-0.34,0.82-0.63,1.48-0.63c0.67,0,1.09,0.31,1.26,0.71
			c0.3-0.46,0.81-0.71,1.48-0.71c0.85,0,1.39,0.42,1.39,1.41v2.17C7.48,5.84,7.54,5.91,8.03,5.91z"/>
		<path class="st0" d="M17.04,6.02c-0.3,0.19-0.65,0.29-1.1,0.29c-0.49,0-0.75-0.18-0.84-0.44c-0.31,0.24-0.72,0.44-1.3,0.44
			c-0.8,0-1.27-0.32-1.27-0.95c0-0.82,0.99-1.39,2.54-1.67V3.01c-0.01-0.5-0.16-0.77-0.69-0.77c-0.29,0-0.53,0.1-0.53,0.23
			c0,0.17,0.23,0.22,0.23,0.51c0,0.3-0.24,0.57-0.63,0.57c-0.4,0-0.63-0.27-0.63-0.56c0-0.51,0.58-1.12,2.04-1.12
			c1.05,0,1.52,0.44,1.52,1.44v1.98c0,0.45,0.08,0.54,0.26,0.54c0.15,0,0.23-0.05,0.31-0.09L17.04,6.02z M14.42,5.77
			c0.24,0,0.47-0.13,0.65-0.26V4.06c-0.86,0.23-1.24,0.56-1.24,1.09C13.84,5.59,14.03,5.77,14.42,5.77z"/>
		<path class="st0" d="M26.18,5.91v0.3h-2.5v-0.3h0.21c0.2,0,0.23-0.13,0.12-0.3l-0.7-1.04l-0.72,1.01
			c-0.12,0.17-0.07,0.33,0.13,0.33h0.2v0.3h-1.65v-0.3c0.36,0,0.61-0.08,0.85-0.4l0.99-1.23l-1.15-1.73
			c-0.15-0.22-0.27-0.28-0.63-0.28v-0.3h2.38v0.3h-0.17c-0.17,0-0.24,0.11-0.09,0.31l0.55,0.8l0.61-0.88
			c0.1-0.15,0.04-0.23-0.08-0.23h-0.21v-0.3h1.48v0.3c-0.37,0-0.6,0.08-0.75,0.29l-0.84,1.12l1.26,1.84
			C25.66,5.8,25.82,5.91,26.18,5.91z"/>
	</g>
</g>
<g>
</g>
<g>
</g>
<g>
</g>
<g>
</g>
<g>
</g>
<g>
</g>
</svg>
