<?xml version="1.0" encoding="UTF-8"?>
<svg id="textlogo" xmlns="http://www.w3.org/2000/svg" version="1.1" viewBox="0 0 24.1 92.8">
  <defs>
    <style>
      .cls-1 {
        fill: #45ff68;
      }

      .cls-1, .cls-2, .cls-3 {
        stroke-width: 0px;
      }

      .cls-2 {
        fill: #5700e0;
      }

      .cls-3 {
        fill: #fff;
      }

      .cls-4 {
        display: none;
      }
    </style>
  </defs>
  <g>
    <g id="textlogousername">
      <path class="cls-3" d="M18.2,71.9h.8v6.1h-.8c0-1.1-.1-1.3-1.1-1.3h-5.8c-1.7,0-2.4.7-2.4,1.8,0,1,.6,1.6,1.6,2.1h6.5c1,0,1.2-.1,1.2-1.3h.8v6h-.8c0-1.1-.1-1.2-1.1-1.2h-5.8c-1.8,0-2.4.6-2.4,1.8,0,.8.3,1.4,1.1,2.1h7c1,0,1.1-.2,1.1-1.3h.9v6.3h-.8c0-1.4-.2-1.5-1.2-1.5h-7.1c-.7-.2-.9-.1-.9.5v.8h-.8l-.6-3.8v-1h1.5c-.9-.9-1.7-2.1-1.7-3.9s.8-2.9,1.9-3.3c-1.2-.8-1.9-2.1-1.9-3.9,0-2.2,1.1-3.6,3.8-3.6h5.8c1,0,1.2-.1,1.2-1.4Z"/>
      <path class="cls-3" d="M22,73.9c-.8,0-1.5-.6-1.5-1.4,0-.7.4-1.4,1.2-1.5.6,0,.7.5,1.2.5.3,0,.5-.4.5-.6,0-.7-.4-.8-2.6-.8h-10.9c-.7-.1-.9.1-.9.6v.8h-.8l-.6-3.8v-1.1h10.9c3.3,0,5.6,1.4,5.6,4.3,0,1.5-.7,3-2.1,3Z"/>
      <path class="cls-3" d="M13.4,53.9v7.2c3-.1,4.3-.8,4.3-2.9,0-1.6-.9-2.6-2.2-3.2l.4-.8c1.5.7,3.3,1.7,3.3,5.1s-2,5.4-5.9,5.4-5.9-1.9-5.9-5.5,2.2-5.3,5.8-5.3c0,0,.2,0,.2,0ZM12.6,57.5c-2.9,0-4.3.3-4.3,1.7,0,1.2,1,1.9,4.3,1.9v-3.6Z"/>
      <path class="cls-3" d="M18.2,40h.8v6.5h-.8v-.5c0-.5-.3-.6-.8-.3l-2.8,1.8,2.7,1.9c.5.3.9.2.9-.3v-.5h.8v4.3h-.8c0-.9-.2-1.6-1.1-2.2l-3.3-2.7-4.6,3c-.6.4-.7.7-.7,1.7h-.8v-6.2h.8v.4c0,.5.3.6.8.2l2.1-1.4-2.3-1.7c-.4-.3-.6-.1-.6.2v.5h-.8v-3.7h.8c0,1,.2,1.6.8,2l3,2.2,4.9-3.3c.7-.6,1-1,1-1.9Z"/>
      <path class="cls-3" d="M17.4,38c-1,0-1.9-.8-1.9-1.8s.8-1.8,1.9-1.8c1,0,1.8.8,1.8,1.8,0,1-.8,1.8-1.8,1.8Z"/>
      <path class="cls-3" d="M18.5,19.9c.5.8.8,1.7.8,2.9,0,1.3-.5,2-1.2,2.2.6.8,1.2,1.9,1.2,3.4,0,2.1-.9,3.3-2.5,3.3-2.2,0-3.7-2.6-4.4-6.6h-1.8c-1.3,0-2,.4-2,1.8,0,.8.3,1.4.6,1.4.5,0,.6-.6,1.4-.6s1.5.6,1.5,1.7-.7,1.7-1.5,1.7c-1.4,0-3-1.5-3-5.3,0-2.7,1.2-4,3.8-4h5.3c1.2,0,1.4-.2,1.4-.7,0-.4-.1-.6-.2-.8l.6-.4ZM17.8,26.8c0-.6-.3-1.2-.7-1.7h-3.9c.6,2.3,1.5,3.2,2.9,3.2,1.2,0,1.7-.5,1.7-1.5Z"/>
      <path class="cls-3" d="M9.5,9.3c1,0,1.9.5,1.9,1.7,0,1-.5,1.6-1.4,1.6-.7,0-.9-.4-1.1-.4-.1,0-.2.1-.2.3,0,.8,2.1,1.9,3.8,1.9h4.5c1,0,1.2-.2,1.2-1.8h.8v6.8h-.8c0-1.4-.2-1.5-1.2-1.5h-7.1c-.7,0-.9.1-.9.7v.8h-.8l-.6-3.8v-1h2.2v-.1c-1.1-.5-2.3-1.4-2.3-3-.1-1.4.8-2.2,2-2.2Z"/>
      <path class="cls-3" d="M15.7,7.5h-7.1v1.4h-.8c-.4-1.9-2.2-3.5-4.4-4.1v-.7h4.2V1.7h.9v2.3h7c1.5,0,2.2-.4,2.2-1.3,0-.6-.3-1.1-.5-1.3l.8-.4c.4.6,1.2,1.5,1.2,3.3.1,2-.9,3.2-3.5,3.2Z"/>
    </g>
    <g id="textlogoname">
      <g>
        <path class="cls-3" d="M5.9,54.4c0-.5-.1-.6-.4-.6H.9c-.3,0-.4,0-.4.3v.3H.2l-.2-1.5v-.4h5.5c.4,0,.4-.1.4-.5h.3v2.4h-.3Z"/>
        <path class="cls-3" d="M4.1,43.3v2.8c1.1,0,1.6-.3,1.6-1.1,0-.6-.3-1-.8-1.2l.2-.3c.6.2,1.2.7,1.2,2,0,1.4-.7,2.1-2.2,2.1s-2.2-.7-2.2-2.1c0-1.6.8-2.2,2.2-2.2h0ZM3.8,44.7c-1.1,0-1.6.1-1.6.7,0,.5.4.7,1.6.7,0,0,0-1.4,0-1.4Z"/>
        <path class="cls-3" d="M6.1,37.9c0,.1.1.2.1.2v.2l-1.5.1v-.3c.8-.1,1.3-.6,1.3-1.2,0-.5-.2-.9-.7-.9-.3,0-.5.2-.7.8l-.1.5c-.3.9-.7,1.2-1.3,1.2-.8,0-1.4-.6-1.4-1.7,0-.6.2-.8.2-1s-.1-.2-.2-.2v-.2l1.3-.1v.3c-.6.2-1,.6-1,1.2,0,.5.2.7.5.7.4,0,.5-.4.6-.7l.1-.4c.5-.9.9-1.4,1.5-1.4.8,0,1.5.6,1.5,1.8,0,.7-.2.9-.2,1.1Z"/>
        <path class="cls-3" d="M6.1,29.7c0,.1.1.2.1.2v.2l-1.5.1v-.2c.8-.2,1.3-.7,1.3-1.4,0-.4-.2-.8-.7-.8-.3,0-.5.2-.7.8l-.1.4c-.3.9-.7,1.2-1.3,1.2-.8,0-1.4-.6-1.4-1.7,0-.6.2-.8.2-1s-.1-.2-.2-.2v-.2l1.4-.1v.3c-.6.2-1,.6-1,1.2,0,.5.2.7.5.7.4,0,.5-.4.6-.7l.1-.4c.3-.9.7-1.3,1.3-1.3.8,0,1.5.6,1.5,1.8.1.6-.1.8-.1,1.1Z"/>
        <path class="cls-3" d="M6,17.5c.2.3.3.7.3,1.1,0,.5-.2.8-.4.8.2.3.4.7.4,1.3,0,.9-.3,1.3-.9,1.3-.8,0-1.4-1-1.7-2.5h-.7c-.5,0-.8.2-.8.7,0,.3.1.5.2.5.2,0,.2-.2.5-.2s.6.2.6.6-.3.6-.6.6c-.5,0-1.1-.6-1.1-2,0-1.1.4-1.5,1.4-1.5h2c.4,0,.5-.1.5-.3s-.1-.2-.1-.3l.4-.1ZM5.8,20.1c0-.2-.1-.5-.3-.7h-1.4c.2.9.6,1.2,1.1,1.2.4.1.6-.1.6-.5Z"/>
        <path class="cls-3" d="M2.7,9.3c.3,0,.7.2.7.7,0,.4-.2.6-.5.6s-.3-.2-.4-.2c0,0-.1,0-.1.1,0,.3.8.7,1.4.7h1.7c.4,0,.4-.1.4-.7h.3v2.6h-.3c0-.5-.1-.6-.4-.6h-2.7c-.3,0-.3.1-.3.3v.3h-.3l-.2-1.4v-.4h.8c-.4-.2-.9-.5-.9-1.2,0-.5.3-.8.8-.8Z"/>
        <path class="cls-3" d="M5.9,0h.3v1.8h-.4c.3.4.5.8.5,1.3,0,1.1-.8,1.8-2.1,1.8-1.5,0-2.3-.8-2.3-2.2,0-.3,0-.6.1-.8h0s-1.1,0-1.1,0c-.3,0-.3.1-.3.3v.3H.2l-.2-1.5v-.4h5.5c.4,0,.4-.1.4-.4v-.2ZM5.4,1.9h-2.9c-.2.2-.3.4-.3.7,0,.7.6,1,1.7,1,1.2,0,1.8-.3,1.8-.9.1-.4-.1-.6-.3-.8Z"/>
      </g>
      <g>
        <path class="cls-3" d="M5.9,84.8h.3v2.3h-.3c0-.4-.1-.5-.4-.5h-2.2c-.7,0-.9.3-.9.7s.2.6.6.8h2.5c.4,0,.4-.1.4-.5h.3v2.3h-.3c0-.4-.1-.5-.4-.5h-2.2c-.7,0-.9.2-.9.7,0,.3.1.5.4.8h2.6c.4,0,.4-.1.4-.5h.3v2.4h-.2c0-.5-.1-.6-.4-.6h-2.7q-.3,0-.3.3v.3h-.3l-.2-1.4v-.4h.6c-.3-.3-.6-.8-.6-1.5s.3-1.1.7-1.3c-.5-.3-.7-.8-.7-1.5,0-.9.4-1.4,1.4-1.4h2.2c.2,0,.3,0,.3-.5Z"/>
        <path class="cls-3" d="M6,75.8c.2.3.3.7.3,1.1,0,.5-.2.8-.4.8.2.3.4.7.4,1.3,0,.8-.3,1.3-.9,1.3-.8,0-1.4-1-1.7-2.5h-.7c-.5,0-.8.2-.8.7,0,.3.1.5.2.5.2,0,.2-.2.5-.2s.6.2.6.6-.2.6-.5.6c-.5,0-1.1-.6-1.1-2,0-1.1.4-1.5,1.4-1.5h2c.4,0,.5-.1.5-.3s-.1-.2-.1-.3l.3-.1ZM5.8,78.4c0-.2-.1-.5-.3-.7h-1.4c.2.9.5,1.3,1.1,1.3.4,0,.6-.2.6-.6Z"/>
        <path class="cls-3" d="M5.9,66.6h.3v2.5h-.3v-.2c0-.2-.1-.2-.3-.1l-1,.7,1,.7c.2.1.3.1.3-.1v-.2h.3v1.7h-.3c0-.4-.1-.6-.4-.9l-1.2-1-1.7,1.2c-.2.1-.3.3-.3.6h-.3v-2.4h.3v.2c0,.2.1.2.3.1l.8-.5-.9-.6c-.2-.1-.2,0-.2.1v.2h-.3v-1.6h.3c0,.4.1.6.3.8l1.1.8,1.8-1.3c.3-.2.4-.3.4-.7Z"/>
      </g>
    </g>
  </g>
  <g class="cls-4">
    <g id="textlogousername-2" data-name="textlogousername">
      <path class="cls-2" d="M18.2,71.9h.8v6.1h-.8c0-1.1-.1-1.3-1.1-1.3h-5.8c-1.7,0-2.4.7-2.4,1.8,0,1,.6,1.6,1.6,2.1h6.5c1,0,1.2-.1,1.2-1.3h.8v6h-.8c0-1.1-.1-1.2-1.1-1.2h-5.8c-1.8,0-2.4.6-2.4,1.8,0,.8.3,1.4,1.1,2.1h7c1,0,1.1-.2,1.1-1.3h.9v6.3h-.8c0-1.4-.2-1.5-1.2-1.5h-7.1c-.7-.2-.9-.1-.9.5v.8h-.8l-.6-3.8v-1h1.5c-.9-.9-1.7-2.1-1.7-3.9s.8-2.9,1.9-3.3c-1.2-.8-1.9-2.1-1.9-3.9,0-2.2,1.1-3.6,3.8-3.6h5.8c1,0,1.2-.1,1.2-1.4Z"/>
      <path class="cls-2" d="M22,73.9c-.8,0-1.5-.6-1.5-1.4,0-.7.4-1.4,1.2-1.5.6,0,.7.5,1.2.5.3,0,.5-.4.5-.6,0-.7-.4-.8-2.6-.8h-10.9c-.7-.1-.9.1-.9.6v.8h-.8l-.6-3.8v-1.1h10.9c3.3,0,5.6,1.4,5.6,4.3,0,1.5-.7,3-2.1,3Z"/>
      <path class="cls-2" d="M13.4,53.9v7.2c3-.1,4.3-.8,4.3-2.9,0-1.6-.9-2.6-2.2-3.2l.4-.8c1.5.7,3.3,1.7,3.3,5.1s-2,5.4-5.9,5.4-5.9-1.9-5.9-5.5,2.2-5.3,5.8-5.3c0,0,.2,0,.2,0ZM12.6,57.5c-2.9,0-4.3.3-4.3,1.7,0,1.2,1,1.9,4.3,1.9v-3.6Z"/>
      <path class="cls-2" d="M18.2,40h.8v6.5h-.8v-.5c0-.5-.3-.6-.8-.3l-2.8,1.8,2.7,1.9c.5.3.9.2.9-.3v-.5h.8v4.3h-.8c0-.9-.2-1.6-1.1-2.2l-3.3-2.7-4.6,3c-.6.4-.7.7-.7,1.7h-.8v-6.2h.8v.4c0,.5.3.6.8.2l2.1-1.4-2.3-1.7c-.4-.3-.6-.1-.6.2v.5h-.8v-3.7h.8c0,1,.2,1.6.8,2l3,2.2,4.9-3.3c.7-.6,1-1,1-1.9Z"/>
      <path class="cls-2" d="M17.4,38c-1,0-1.9-.8-1.9-1.8s.8-1.8,1.9-1.8c1,0,1.8.8,1.8,1.8,0,1-.8,1.8-1.8,1.8Z"/>
      <path class="cls-2" d="M18.5,19.9c.5.8.8,1.7.8,2.9,0,1.3-.5,2-1.2,2.2.6.8,1.2,1.9,1.2,3.4,0,2.1-.9,3.3-2.5,3.3-2.2,0-3.7-2.6-4.4-6.6h-1.8c-1.3,0-2,.4-2,1.8,0,.8.3,1.4.6,1.4.5,0,.6-.6,1.4-.6s1.5.6,1.5,1.7-.7,1.7-1.5,1.7c-1.4,0-3-1.5-3-5.3,0-2.7,1.2-4,3.8-4h5.3c1.2,0,1.4-.2,1.4-.7,0-.4-.1-.6-.2-.8l.6-.4ZM17.8,26.8c0-.6-.3-1.2-.7-1.7h-3.9c.6,2.3,1.5,3.2,2.9,3.2,1.2,0,1.7-.5,1.7-1.5Z"/>
      <path class="cls-2" d="M9.5,9.3c1,0,1.9.5,1.9,1.7,0,1-.5,1.6-1.4,1.6-.7,0-.9-.4-1.1-.4-.1,0-.2.1-.2.3,0,.8,2.1,1.9,3.8,1.9h4.5c1,0,1.2-.2,1.2-1.8h.8v6.8h-.8c0-1.4-.2-1.5-1.2-1.5h-7.1c-.7,0-.9.1-.9.7v.8h-.8l-.6-3.8v-1h2.2v-.1c-1.1-.5-2.3-1.4-2.3-3-.1-1.4.8-2.2,2-2.2Z"/>
      <path class="cls-2" d="M15.7,7.5h-7.1v1.4h-.8c-.4-1.9-2.2-3.5-4.4-4.1v-.7h4.2V1.7h.9v2.3h7c1.5,0,2.2-.4,2.2-1.3,0-.6-.3-1.1-.5-1.3l.8-.4c.4.6,1.2,1.5,1.2,3.3.1,2-.9,3.2-3.5,3.2Z"/>
    </g>
    <g id="textlogoname-2" data-name="textlogoname">
      <g>
        <path class="cls-1" d="M5.9,54.4c0-.5-.1-.6-.4-.6H.9c-.3,0-.4,0-.4.3v.3H.2l-.2-1.5v-.4h5.5c.4,0,.4-.1.4-.5h.3v2.4h-.3Z"/>
        <path class="cls-1" d="M4.1,43.3v2.8c1.1,0,1.6-.3,1.6-1.1,0-.6-.3-1-.8-1.2l.2-.3c.6.2,1.2.7,1.2,2,0,1.4-.7,2.1-2.2,2.1s-2.2-.7-2.2-2.1c0-1.6.8-2.2,2.2-2.2h0ZM3.8,44.7c-1.1,0-1.6.1-1.6.7,0,.5.4.7,1.6.7,0,0,0-1.4,0-1.4Z"/>
        <path class="cls-1" d="M6.1,37.9c0,.1.1.2.1.2v.2l-1.5.1v-.3c.8-.1,1.3-.6,1.3-1.2,0-.5-.2-.9-.7-.9-.3,0-.5.2-.7.8l-.1.5c-.3.9-.7,1.2-1.3,1.2-.8,0-1.4-.6-1.4-1.7,0-.6.2-.8.2-1s-.1-.2-.2-.2v-.2l1.3-.1v.3c-.6.2-1,.6-1,1.2,0,.5.2.7.5.7.4,0,.5-.4.6-.7l.1-.4c.5-.9.9-1.4,1.5-1.4.8,0,1.5.6,1.5,1.8,0,.7-.2.9-.2,1.1Z"/>
        <path class="cls-1" d="M6.1,29.7c0,.1.1.2.1.2v.2l-1.5.1v-.2c.8-.2,1.3-.7,1.3-1.4,0-.4-.2-.8-.7-.8-.3,0-.5.2-.7.8l-.1.4c-.3.9-.7,1.2-1.3,1.2-.8,0-1.4-.6-1.4-1.7,0-.6.2-.8.2-1s-.1-.2-.2-.2v-.2l1.4-.1v.3c-.6.2-1,.6-1,1.2,0,.5.2.7.5.7.4,0,.5-.4.6-.7l.1-.4c.3-.9.7-1.3,1.3-1.3.8,0,1.5.6,1.5,1.8.1.6-.1.8-.1,1.1Z"/>
        <path class="cls-1" d="M6,17.5c.2.3.3.7.3,1.1,0,.5-.2.8-.4.8.2.3.4.7.4,1.3,0,.9-.3,1.3-.9,1.3-.8,0-1.4-1-1.7-2.5h-.7c-.5,0-.8.2-.8.7,0,.3.1.5.2.5.2,0,.2-.2.5-.2s.6.2.6.6-.3.6-.6.6c-.5,0-1.1-.6-1.1-2,0-1.1.4-1.5,1.4-1.5h2c.4,0,.5-.1.5-.3s-.1-.2-.1-.3l.4-.1ZM5.8,20.1c0-.2-.1-.5-.3-.7h-1.4c.2.9.6,1.2,1.1,1.2.4.1.6-.1.6-.5Z"/>
        <path class="cls-1" d="M2.7,9.3c.3,0,.7.2.7.7,0,.4-.2.6-.5.6s-.3-.2-.4-.2c0,0-.1,0-.1.1,0,.3.8.7,1.4.7h1.7c.4,0,.4-.1.4-.7h.3v2.6h-.3c0-.5-.1-.6-.4-.6h-2.7c-.3,0-.3.1-.3.3v.3h-.3l-.2-1.4v-.4h.8c-.4-.2-.9-.5-.9-1.2,0-.5.3-.8.8-.8Z"/>
        <path class="cls-1" d="M5.9,0h.3v1.8h-.4c.3.4.5.8.5,1.3,0,1.1-.8,1.8-2.1,1.8-1.5,0-2.3-.8-2.3-2.2,0-.3,0-.6.1-.8h0s-1.1,0-1.1,0c-.3,0-.3.1-.3.3v.3H.2l-.2-1.5v-.4h5.5c.4,0,.4-.1.4-.4v-.2ZM5.4,1.9h-2.9c-.2.2-.3.4-.3.7,0,.7.6,1,1.7,1,1.2,0,1.8-.3,1.8-.9.1-.4-.1-.6-.3-.8Z"/>
      </g>
      <g>
        <path class="cls-1" d="M5.9,84.8h.3v2.3h-.3c0-.4-.1-.5-.4-.5h-2.2c-.7,0-.9.3-.9.7s.2.6.6.8h2.5c.4,0,.4-.1.4-.5h.3v2.3h-.3c0-.4-.1-.5-.4-.5h-2.2c-.7,0-.9.2-.9.7,0,.3.1.5.4.8h2.6c.4,0,.4-.1.4-.5h.3v2.4h-.2c0-.5-.1-.6-.4-.6h-2.7q-.3,0-.3.3v.3h-.3l-.2-1.4v-.4h.6c-.3-.3-.6-.8-.6-1.5s.3-1.1.7-1.3c-.5-.3-.7-.8-.7-1.5,0-.9.4-1.4,1.4-1.4h2.2c.2,0,.3,0,.3-.5Z"/>
        <path class="cls-1" d="M6,75.8c.2.3.3.7.3,1.1,0,.5-.2.8-.4.8.2.3.4.7.4,1.3,0,.8-.3,1.3-.9,1.3-.8,0-1.4-1-1.7-2.5h-.7c-.5,0-.8.2-.8.7,0,.3.1.5.2.5.2,0,.2-.2.5-.2s.6.2.6.6-.2.6-.5.6c-.5,0-1.1-.6-1.1-2,0-1.1.4-1.5,1.4-1.5h2c.4,0,.5-.1.5-.3s-.1-.2-.1-.3l.3-.1ZM5.8,78.4c0-.2-.1-.5-.3-.7h-1.4c.2.9.5,1.3,1.1,1.3.4,0,.6-.2.6-.6Z"/>
        <path class="cls-1" d="M5.9,66.6h.3v2.5h-.3v-.2c0-.2-.1-.2-.3-.1l-1,.7,1,.7c.2.1.3.1.3-.1v-.2h.3v1.7h-.3c0-.4-.1-.6-.4-.9l-1.2-1-1.7,1.2c-.2.1-.3.3-.3.6h-.3v-2.4h.3v.2c0,.2.1.2.3.1l.8-.5-.9-.6c-.2-.1-.2,0-.2.1v.2h-.3v-1.6h.3c0,.4.1.6.3.8l1.1.8,1.8-1.3c.3-.2.4-.3.4-.7Z"/>
      </g>
    </g>
  </g>
</svg>