<?xml version="1.0" encoding="UTF-8"?>
<svg id="Layer_1" data-name="Layer 1" xmlns="http://www.w3.org/2000/svg" version="1.1" viewBox="0 0 48 48">
  <defs>
    <style>
      .cls-1 {
        fill: #6f66eb;
        stroke-width: 0px;
      }
    </style>
  </defs>
  <path class="cls-1" d="M45.01,13.44c-.44-2.24-2.3-3.95-4.61-4.27-3.73-.53-9.66-1.17-16.46-1.17s-12.84.64-16.46,1.17c-2.3.32-4.17,2.03-4.61,4.27-.44,2.45-.88,6.08-.88,10.56s.44,8.11.88,10.56c.44,2.24,2.3,3.95,4.61,4.27,3.73.53,9.77,1.17,16.46,1.17s12.84-.64,16.46-1.17c2.3-.32,4.17-2.03,4.61-4.27.44-2.45.88-6.08.99-10.56,0-4.48-.55-8.11-.99-10.56ZM31.8,24.78l-11.35,7.57c-.62.41-1.45-.03-1.45-.78v-15.14c0-.74.83-1.19,1.45-.77l11.35,7.57c.55.37.55,1.18,0,1.55Z"/>
</svg>