<svg id="Layer_1" data-name="Layer 1" xmlns="http://www.w3.org/2000/svg" viewBox="0 0 213.44 40.76"><defs><style>.cls-1{fill:#d3d3d3;}</style></defs><title>pattern</title><path class="cls-1" d="M445,223.14c1.28.14,2.75-1.14,4.28-1.42,8.3-1.53,19.88,1.72,25.53,6.16,2,1.55,5.69,5.3,4.53,9.37-2.22.92-4.2-.37-5.86-.91-1.18,1.66-2.88,2.8-3.44,5.08,4.29,1.92,8.9,4.84,15.3,3.6-.76-3.86-.26-5.64-.45-9-.68-12.07-11.87-18.27-22.55-19.69-7.6-1-16.18-.55-22.25,3.24C441.81,219.8,442.91,222.91,445,223.14Z" transform="translate(-277.93 -214.41)"/><path class="cls-1" d="M441.56,236.58c-1.76,1.57-5.43,1-6.62-.88-2.33,1.88-4.31,4.1-6.46,6.16,7.06,1.06,13.53,6.06,21.39,3.7.74-2.75.27-5-.42-7.6-1.32-4.91-3.7-11.68-5.91-14.25-5.72-6.64-19.14-8.73-27.62-8.39-5.1.2-10.52,1.93-15.65,3.29.79,2,3.67,4,5.48,5.83C417.3,219.48,438.7,221.52,441.56,236.58Z" transform="translate(-277.93 -214.41)"/><path class="cls-1" d="M430.9,225.61c-3.49,5.76-8.55,10-13.37,14.42.71,2.79,2.09,4.86,4.94,5.36,5.89-4.16,10.61-9.48,15.4-14.73A19.53,19.53,0,0,0,430.9,225.61Z" transform="translate(-277.93 -214.41)"/><path class="cls-1" d="M379.52,241.94c1.56,1.47,3,3.78,5.15,3.51,1.23-.16,3.34-2.94,4.72-4.51,2.71-3.09,7.15-7,8.91-9.81a17.23,17.23,0,0,0-4.16-4.31C389.4,232,384.13,236.65,379.52,241.94Z" transform="translate(-277.93 -214.41)"/><path class="cls-1" d="M320,219.41a18.92,18.92,0,0,1,4.79,4.82c11.34-5.12,33.7-5.08,35.54,11.44-.91,1.09-3.82,1.09-4.82.12a37.28,37.28,0,0,0-5,5,27.56,27.56,0,0,0,16.83,3.74c1.14-4.59,1.25-12,.14-15.75-2.29-7.8-12.28-13-21.4-13.6-2.85-.17-5.77-.4-9-.31a44.23,44.23,0,0,0-5.72.72c-4.17.71-7.65,2.91-11.07,3.63m156.37,1a22.65,22.65,0,0,1,5.4,4.56c1.21-.34,1.59-1.51,3.26-1.4a200.41,200.41,0,0,1,1.55,23.71c-5.74,1.87-20,3.28-24.87-.76a31.83,31.83,0,0,1-3.91-4.9c-1.5-2.52-2.42-6.49-1-9.42,3-.17,4.23,1.51,6.15,2.47,1.14-1.53,1.93-3.4,3.19-4.81-4.69-3.34-10.26-5.93-17.65-5.58-1.78,4.12.69,8.18,1.55,11.76a21.62,21.62,0,0,0,2.7,7.27,32.65,32.65,0,0,0,2.37,4.15c8,9.31,24.36,7,35.88,5.27,0-12.65-.82-25.1-1.38-37.74-3.26-.49-5.76,1.66-8.29,3.14-1.5.88-3.13,2.36-4.52,2Zm-115.17-.62c2,1.59,4.41,5.39,5.13,5.6,4,1.12,32.89-5.15,33.77,11.33-1.7,1-3.49-.79-4.33-.68-1.38.19-3.74,3.29-5.47,5.06,4.85,1.3,15.24,6.12,16.84,4.55s.13-16.65-3.53-21.23c-8.32-10.82-25.61-9.68-37-6.26-1.87.56-3.77,1.6-5,1.42Z" transform="translate(-277.93 -214.41)"/><path class="cls-1" d="M469.74,226.43c-3.54,4.9-6.52,10.34-10.06,15.23a21.4,21.4,0,0,0,4.4,4.1c4.93-4.12,8.26-9.82,12.1-15C474.3,229,472.41,227.29,469.74,226.43Z" transform="translate(-277.93 -214.41)"/><path class="cls-1" d="M453.68,245.47c-10.38,3.69-27.13,6.46-35-1-1.73-1.65-3.82-7.47-1.74-10.12a13.43,13.43,0,0,1,4.34,1.2c1.73-2,4.06-3.5,5.44-5.88-5.85-1-10.53-3.87-18.1-3.7-.37,8.9.19,19.15,5.33,22.77,11,7.73,30.72,7.45,43.42,1.68C456.15,248.7,454.2,247.86,453.68,245.47Z" transform="translate(-277.93 -214.41)"/><path class="cls-1" d="M372.24,245.72c-10.14,4.47-26,4.84-33.55-2.86a8.79,8.79,0,0,1-2-9.45c1.89-1.11,4.05.83,5.38,1.93a16.82,16.82,0,0,0,6-5.29c-5.5-2.67-10.66-5.69-18.17-6.21a36.1,36.1,0,0,0-1.25,11c.07,1.86,1.05,4,1.41,6.12.14.84-.13,1.59.05,2.3,1.46,5.82,7.34,8.41,13.14,10,3.95,1.07,10.39,1.46,15.76,1.23,7.49-.33,14.72-1.11,19.46-3.5C375.53,250.15,374.15,247.65,372.24,245.72Z" transform="translate(-277.93 -214.41)"/><path class="cls-1" d="M410,245.66c-8.87,4.25-24.25,4.55-30.73-1.9-1.9-1.89-3.87-7.38-1.52-10.83,2.57.44,4.4,1.65,6.66,2.43,1.37-2.12,3.79-3.23,5.2-5.31-4.88-3.17-12.17-6-19.41-4.94a21,21,0,0,0,2.22,18.8c3,4.58,5.84,6.1,11.08,8.29a40.42,40.42,0,0,0,31.95-.67c0-.26.2-.31.24-.52A19.74,19.74,0,0,1,410,245.66Z" transform="translate(-277.93 -214.41)"/><path class="cls-1" d="M329.88,245.62c.05,1-.82,1.44-1.49,1.83-4.54,2.64-16.3,1.85-22.32.22-7.17-1.94-11.88-8.47-10.75-15.55,2,.24,3.25,1.27,4.62,2.18,1.73-1.66,3.1-3.67,4.68-5.47A40.67,40.67,0,0,0,287,224.44c-.65,11,1.43,19.17,6.91,24.51,5.21,5.07,16.56,5.91,25.74,5.59a57.63,57.63,0,0,0,11.13-1.82c1.89-.45,3.07-1,3.76-1.81C332.75,249.31,330.52,247.68,329.88,245.62Z" transform="translate(-277.93 -214.41)"/><path class="cls-1" d="M338.65,240.81a12.1,12.1,0,0,0,5.93,4.49,132.33,132.33,0,0,0,13.63-14.47c-1.69-1.46-2.57-3.77-4.93-4.51C348.79,231.53,342.91,235.4,338.65,240.81Z" transform="translate(-277.93 -214.41)"/><path class="cls-1" d="M290.07,246.74c-1.66.68-3.87,2.06-6.06,1.4,1.76-7.51-.7-18.63,1.92-26,10.33-1.5,32-2.57,34,11.38,1,7-5.48,3.33-8.57,2.25-.49-.47,0-.64,0-1.27-2.41,1.5-4,3.8-5.7,6,6.39,2.46,12.74,7.59,21.69,5.65,1-7.09,1.25-14.05-2.49-19.91-5.18-8.13-12.72-9.65-23.39-11.39-7.12-1.16-15.34.05-22.56.87-1.57,13-1,26.29-.09,39.34,6.65-.1,12.62-.23,17.44-3.4C293.7,250.57,292.34,248.18,290.07,246.74Z" transform="translate(-277.93 -214.41)"/><path class="cls-1" d="M315.76,227.53a21.26,21.26,0,0,0-5.15-2.93c-4.95,4.31-9,9.48-13.36,14.35,1.39,1.84,2.54,3.94,4.68,5C305.67,237.64,311.4,233.25,315.76,227.53Z" transform="translate(-277.93 -214.41)"/></svg>