{
	"asset":{
		"copyright":"mjexart",
		"generator":"Khronos glTF Blender I/O v3.6.27",
		"version":"2.0"
	},
	"scene":0,
	"scenes":[
		{
			"name":"Scene",
			"nodes":[
				0,
				1,
				2,
				3
			]
		}
	],
	"nodes":[
		{
			"camera":0,
			"name":"Camera",
			"rotation":[
				0.033395916223526,
				0.01167106069624424,
				-0.0004958767676725984,
				0.9993739724159241
			],
			"translation":[
				0.22088392078876495,
				0.6699608564376831,
				10.064773559570312
			]
		},
		{
			"mesh":0,
			"name":"Plane",
			"translation":[
				0,
				0,
				8.270008087158203
			]
		},
		{
			"name":"textTitle",
			"translation":[
				-0.9861262440681458,
				1.131678581237793,
				4.310384750366211
			]
		},
		{
			"camera":1,
			"name":"webView",
			"rotation":[
				0.013780326582491398,
				0.03610408678650856,
				-0.0006034587859176099,
				0.9992528557777405
			],
			"translation":[
				0.27322718501091003,
				0.48081791400909424,
				9.1114501953125
			]
		}
	],
	"cameras":[
		{
			"name":"Camera",
			"perspective":{
				"aspectRatio":1.5,
				"yfov":1.436431190415235,
				"zfar":1000,
				"znear":0.10000000149011612
			},
			"type":"perspective"
		},
		{
			"name":"Camera.001",
			"perspective":{
				"aspectRatio":1.5,
				"yfov":1.176005247444111,
				"zfar":1000,
				"znear":0.10000000149011612
			},
			"type":"perspective"
		}
	],
	"materials":[
		{
			"doubleSided":true,
			"emissiveFactor":[
				1,
				1,
				1
			],
			"emissiveTexture":{
				"index":0
			},
			"name":"Material",
			"pbrMetallicRoughness":{
				"baseColorFactor":[
					0,
					0,
					0,
					1
				],
				"metallicFactor":0,
				"roughnessFactor":0.5
			}
		}
	],
	"meshes":[
		{
			"name":"Plane",
			"primitives":[
				{
					"attributes":{
						"POSITION":0,
						"NORMAL":1,
						"TEXCOORD_0":2
					},
					"indices":3,
					"material":0
				}
			]
		}
	],
	"textures":[
		{
			"sampler":0,
			"source":0
		}
	],
	"images":[
		{
			"mimeType":"image/jpeg",
			"name":"0147-web",
			"uri":"0147-web.jpg"
		}
	],
	"accessors":[
		{
			"bufferView":0,
			"componentType":5126,
			"count":1976,
			"max":[
				38.414302825927734,
				28.466976165771484,
				1.3059682846069336
			],
			"min":[
				-41.174163818359375,
				-5.335477352142334,
				-23.509185791015625
			],
			"type":"VEC3"
		},
		{
			"bufferView":1,
			"componentType":5126,
			"count":1976,
			"type":"VEC3"
		},
		{
			"bufferView":2,
			"componentType":5126,
			"count":1976,
			"type":"VEC2"
		},
		{
			"bufferView":3,
			"componentType":5123,
			"count":6144,
			"type":"SCALAR"
		}
	],
	"bufferViews":[
		{
			"buffer":0,
			"byteLength":23712,
			"byteOffset":0,
			"target":34962
		},
		{
			"buffer":0,
			"byteLength":23712,
			"byteOffset":23712,
			"target":34962
		},
		{
			"buffer":0,
			"byteLength":15808,
			"byteOffset":47424,
			"target":34962
		},
		{
			"buffer":0,
			"byteLength":12288,
			"byteOffset":63232,
			"target":34963
		}
	],
	"samplers":[
		{
			"magFilter":9729,
			"minFilter":9987
		}
	],
	"buffers":[
		{
			"byteLength":75520,
			"uri":"beach1.bin"
		}
	]
}
