{
	"asset":{
		"copyright":"mjexart",
		"generator":"Khronos glTF Blender I/O v3.6.27",
		"version":"2.0"
	},
	"scene":0,
	"scenes":[
		{
			"name":"Scene",
			"nodes":[
				0,
				1,
				2,
				3,
				4
			]
		}
	],
	"nodes":[
		{
			"camera":0,
			"name":"Camera",
			"rotation":[
				0.033395916223526,
				0.01167106069624424,
				-0.0004958767676725984,
				0.9993739724159241
			],
			"translation":[
				0.22088392078876495,
				0.6699608564376831,
				10.064773559570312
			]
		},
		{
			"mesh":0,
			"name":"Plane",
			"translation":[
				0,
				0,
				8.270008087158203
			]
		},
		{
			"name":"textTitle",
			"translation":[
				-0.9861262440681458,
				1.131678581237793,
				4.310384750366211
			]
		},
		{
			"camera":1,
			"name":"webView",
			"rotation":[
				-0.0032239544671028852,
				0.04657197371125221,
				4.474292654776946e-05,
				0.9989097714424133
			],
			"translation":[
				0.27322718501091003,
				0.6591976284980774,
				9.1114501953125
			]
		},
		{
			"mesh":1,
			"name":"Plane.001",
			"translation":[
				-1.2642459869384766,
				1.307990550994873,
				8.270008087158203
			]
		}
	],
	"cameras":[
		{
			"name":"Camera",
			"perspective":{
				"aspectRatio":1.5,
				"yfov":1.436431190415235,
				"zfar":1000,
				"znear":0.10000000149011612
			},
			"type":"perspective"
		},
		{
			"name":"Camera.001",
			"perspective":{
				"aspectRatio":1.5,
				"yfov":1.176005247444111,
				"zfar":1000,
				"znear":0.10000000149011612
			},
			"type":"perspective"
		}
	],
	"materials":[
		{
			"doubleSided":true,
			"emissiveFactor":[
				1,
				1,
				1
			],
			"emissiveTexture":{
				"index":0
			},
			"name":"Material",
			"pbrMetallicRoughness":{
				"baseColorFactor":[
					0,
					0,
					0,
					1
				],
				"metallicFactor":0,
				"roughnessFactor":0.5
			}
		},
		{
			"doubleSided":true,
			"emissiveFactor":[
				1,
				1,
				1
			],
			"emissiveTexture":{
				"index":1
			},
			"name":"Material.001",
			"pbrMetallicRoughness":{
				"baseColorFactor":[
					0,
					0,
					0,
					1
				],
				"metallicFactor":0,
				"roughnessFactor":0.5
			}
		}
	],
	"meshes":[
		{
			"name":"Plane",
			"primitives":[
				{
					"attributes":{
						"POSITION":0,
						"NORMAL":1,
						"TEXCOORD_0":2
					},
					"indices":3,
					"material":0
				}
			]
		},
		{
			"name":"Plane.001",
			"primitives":[
				{
					"attributes":{
						"POSITION":4,
						"NORMAL":5,
						"TEXCOORD_0":6
					},
					"indices":7,
					"material":1
				}
			]
		}
	],
	"textures":[
		{
			"sampler":0,
			"source":0
		},
		{
			"sampler":0,
			"source":1
		}
	],
	"images":[
		{
			"mimeType":"image/jpeg",
			"name":"0147-web",
			"uri":"0147-web.jpg"
		},
		{
			"mimeType":"image/jpeg",
			"name":"0151-web",
			"uri":"0151-web.jpg"
		}
	],
	"accessors":[
		{
			"bufferView":0,
			"componentType":5126,
			"count":10487,
			"max":[
				1.8260364532470703,
				1.2164664268493652,
				1.3059682846069336
			],
			"min":[
				-2.089630126953125,
				-1.7741261720657349,
				-11.89987850189209
			],
			"type":"VEC3"
		},
		{
			"bufferView":1,
			"componentType":5126,
			"count":10487,
			"type":"VEC3"
		},
		{
			"bufferView":2,
			"componentType":5126,
			"count":10487,
			"type":"VEC2"
		},
		{
			"bufferView":3,
			"componentType":5123,
			"count":31104,
			"type":"SCALAR"
		},
		{
			"bufferView":4,
			"componentType":5126,
			"count":1122,
			"max":[
				38.414302825927734,
				28.466976165771484,
				-13.691770553588867
			],
			"min":[
				-41.17416000366211,
				-4.118211269378662,
				-23.509185791015625
			],
			"type":"VEC3"
		},
		{
			"bufferView":5,
			"componentType":5126,
			"count":1122,
			"type":"VEC3"
		},
		{
			"bufferView":6,
			"componentType":5126,
			"count":1122,
			"type":"VEC2"
		},
		{
			"bufferView":7,
			"componentType":5123,
			"count":6144,
			"type":"SCALAR"
		}
	],
	"bufferViews":[
		{
			"buffer":0,
			"byteLength":125844,
			"byteOffset":0,
			"target":34962
		},
		{
			"buffer":0,
			"byteLength":125844,
			"byteOffset":125844,
			"target":34962
		},
		{
			"buffer":0,
			"byteLength":83896,
			"byteOffset":251688,
			"target":34962
		},
		{
			"buffer":0,
			"byteLength":62208,
			"byteOffset":335584,
			"target":34963
		},
		{
			"buffer":0,
			"byteLength":13464,
			"byteOffset":397792,
			"target":34962
		},
		{
			"buffer":0,
			"byteLength":13464,
			"byteOffset":411256,
			"target":34962
		},
		{
			"buffer":0,
			"byteLength":8976,
			"byteOffset":424720,
			"target":34962
		},
		{
			"buffer":0,
			"byteLength":12288,
			"byteOffset":433696,
			"target":34963
		}
	],
	"samplers":[
		{
			"magFilter":9729,
			"minFilter":9987
		}
	],
	"buffers":[
		{
			"byteLength":445984,
			"uri":"beach1.bin"
		}
	]
}
