{
	"asset":{
		"copyright":"mjexart",
		"generator":"Khronos glTF Blender I/O v3.6.27",
		"version":"2.0"
	},
	"extensionsUsed":[
		"KHR_materials_specular",
		"KHR_materials_ior",
		"KHR_lights_punctual"
	],
	"extensionsRequired":[
		"KHR_lights_punctual"
	],
	"extensions":{
		"KHR_lights_punctual":{
			"lights":[
				{
					"color":[
						1,
						1,
						1
					],
					"intensity":6.829999847337604,
					"type":"directional",
					"name":"Area"
				}
			]
		}
	},
	"scene":0,
	"scenes":[
		{
			"name":"Scene",
			"nodes":[
				0,
				1,
				2,
				3,
				4,
				5,
				6
			]
		}
	],
	"nodes":[
		{
			"mesh":0,
			"name":"Cube",
			"translation":[
				9.171732902526855,
				-5.668520450592041,
				0
			]
		},
		{
			"camera":0,
			"name":"Camera",
			"rotation":[
				0.07790939509868622,
				-0.912751317024231,
				0.34287214279174805,
				0.20797574520111084
			],
			"translation":[
				-3.134855270385742,
				-6.9567341804504395,
				-6.482517719268799
			]
		},
		{
			"mesh":1,
			"name":"Sky",
			"translation":[
				0,
				48.86452102661133,
				0
			]
		},
		{
			"mesh":2,
			"name":"Cube.001",
			"rotation":[
				0,
				0.09899131953716278,
				0,
				0.9950883388519287
			],
			"translation":[
				-2.321800470352173,
				-6.942222595214844,
				0
			]
		},
		{
			"extensions":{
				"KHR_lights_punctual":{
					"light":0
				}
			},
			"name":"Area",
			"rotation":[
				0.8335111737251282,
				-0.36549121141433716,
				-0.07824787497520447,
				0.40688154101371765
			],
			"translation":[
				-0.7427325248718262,
				-6.9567341804504395,
				-8.297773361206055
			]
		},
		{
			"camera":1,
			"name":"Camera.001",
			"rotation":[
				0.0883728638291359,
				-0.9047414660453796,
				0.34666693210601807,
				0.23120364546775818
			],
			"translation":[
				-3.7291619777679443,
				-6.027541160583496,
				-7.42311954498291
			]
		},
		{
			"name":"textTitle",
			"rotation":[
				0,
				-1,
				0,
				1.6292068494294654e-07
			],
			"translation":[
				9.101617813110352,
				18.324499130249023,
				0
			]
		}
	],
	"cameras":[
		{
			"name":"Camera",
			"perspective":{
				"aspectRatio":1.5,
				"yfov":1.4364299655208124,
				"zfar":1000,
				"znear":0.10000000149011612
			},
			"type":"perspective"
		},
		{
			"name":"Camera.001",
			"perspective":{
				"aspectRatio":1.5,
				"yfov":1.176005247444111,
				"zfar":1000,
				"znear":0.10000000149011612
			},
			"type":"perspective"
		}
	],
	"materials":[
		{
			"doubleSided":true,
			"extensions":{
				"KHR_materials_specular":{
					"specularColorFactor":[
						0,
						0,
						0
					]
				},
				"KHR_materials_ior":{
					"ior":1.4500000476837158
				}
			},
			"name":"Material",
			"pbrMetallicRoughness":{
				"baseColorTexture":{
					"index":0
				},
				"metallicFactor":0
			}
		}
	],
	"meshes":[
		{
			"name":"Cube",
			"primitives":[
				{
					"attributes":{
						"POSITION":0,
						"NORMAL":1,
						"TEXCOORD_0":2
					},
					"indices":3,
					"material":0
				}
			]
		},
		{
			"name":"Plane.001",
			"primitives":[
				{
					"attributes":{
						"POSITION":4,
						"NORMAL":5,
						"TEXCOORD_0":6
					},
					"indices":7,
					"material":0
				}
			]
		},
		{
			"name":"Cube.002",
			"primitives":[
				{
					"attributes":{
						"POSITION":8,
						"NORMAL":9,
						"TEXCOORD_0":10
					},
					"indices":11,
					"material":0
				}
			]
		}
	],
	"textures":[
		{
			"sampler":0,
			"source":0
		}
	],
	"images":[
		{
			"mimeType":"image/jpeg",
			"name":"_MG_0294-web",
			"uri":"_MG_0294-web.jpg"
		}
	],
	"accessors":[
		{
			"bufferView":0,
			"componentType":5126,
			"count":4332,
			"max":[
				36.769325256347656,
				44.022403717041016,
				54.067047119140625
			],
			"min":[
				0,
				-1.6951805353164673,
				-0.5046401023864746
			],
			"type":"VEC3"
		},
		{
			"bufferView":1,
			"componentType":5126,
			"count":4332,
			"type":"VEC3"
		},
		{
			"bufferView":2,
			"componentType":5126,
			"count":4332,
			"type":"VEC2"
		},
		{
			"bufferView":3,
			"componentType":5123,
			"count":20280,
			"type":"SCALAR"
		},
		{
			"bufferView":4,
			"componentType":5126,
			"count":25,
			"max":[
				163.72906494140625,
				0,
				177.49403381347656
			],
			"min":[
				-52.575836181640625,
				0,
				-24.501564025878906
			],
			"type":"VEC3"
		},
		{
			"bufferView":5,
			"componentType":5126,
			"count":25,
			"type":"VEC3"
		},
		{
			"bufferView":6,
			"componentType":5126,
			"count":25,
			"type":"VEC2"
		},
		{
			"bufferView":7,
			"componentType":5123,
			"count":96,
			"type":"SCALAR"
		},
		{
			"bufferView":8,
			"componentType":5126,
			"count":4768,
			"max":[
				1.4681148529052734,
				19.75603485107422,
				2.3560802936553955
			],
			"min":[
				-16.181978225708008,
				-0.11193663626909256,
				-0.25831764936447144
			],
			"type":"VEC3"
		},
		{
			"bufferView":9,
			"componentType":5126,
			"count":4768,
			"type":"VEC3"
		},
		{
			"bufferView":10,
			"componentType":5126,
			"count":4768,
			"type":"VEC2"
		},
		{
			"bufferView":11,
			"componentType":5123,
			"count":20040,
			"type":"SCALAR"
		}
	],
	"bufferViews":[
		{
			"buffer":0,
			"byteLength":51984,
			"byteOffset":0,
			"target":34962
		},
		{
			"buffer":0,
			"byteLength":51984,
			"byteOffset":51984,
			"target":34962
		},
		{
			"buffer":0,
			"byteLength":34656,
			"byteOffset":103968,
			"target":34962
		},
		{
			"buffer":0,
			"byteLength":40560,
			"byteOffset":138624,
			"target":34963
		},
		{
			"buffer":0,
			"byteLength":300,
			"byteOffset":179184,
			"target":34962
		},
		{
			"buffer":0,
			"byteLength":300,
			"byteOffset":179484,
			"target":34962
		},
		{
			"buffer":0,
			"byteLength":200,
			"byteOffset":179784,
			"target":34962
		},
		{
			"buffer":0,
			"byteLength":192,
			"byteOffset":179984,
			"target":34963
		},
		{
			"buffer":0,
			"byteLength":57216,
			"byteOffset":180176,
			"target":34962
		},
		{
			"buffer":0,
			"byteLength":57216,
			"byteOffset":237392,
			"target":34962
		},
		{
			"buffer":0,
			"byteLength":38144,
			"byteOffset":294608,
			"target":34962
		},
		{
			"buffer":0,
			"byteLength":40080,
			"byteOffset":332752,
			"target":34963
		}
	],
	"samplers":[
		{
			"magFilter":9729,
			"minFilter":9987,
			"wrapS":33071,
			"wrapT":33071
		}
	],
	"buffers":[
		{
			"byteLength":372832,
			"uri":"boston1.bin"
		}
	]
}
