{
	"asset":{
		"copyright":"mjexart",
		"generator":"Khronos glTF Blender I/O v3.6.27",
		"version":"2.0"
	},
	"scene":0,
	"scenes":[
		{
			"extras":{
				"keentools_fb_settings":{},
				"bpa_prop":{},
				"luxcore":{
					"devices":{
						"devices_hash":"opencl.device.0.platform.name = \"NVIDIA Corporation\"\nopencl.device.0.platform.version = \"OpenCL 3.0 CUDA\"\nopencl.device.0.name = \"NVIDIA GeForce GTX 1070\"\nopencl.device.0.type = \"OPENCL_GPU\"\nopencl.device.0.units = 15\nopencl.device.0.clock = 1,797\nopencl.device.0.nativevectorwidthfloat = 1\nopencl.device.0.maxmemory = 8,589,803,520\nopencl.device.0.maxmemoryallocsize = 2,147,450,880\nopencl.device.0.localmemory = 49,152\nopencl.device.0.constmemory = 65,536\nopencl.device.1.platform.name = \"NVIDIA\"\nopencl.device.1.platform.version = \"UNKNOWN\"\nopencl.device.1.name = \"NVIDIA GeForce GTX 1070\"\nopencl.device.1.type = \"CUDA_GPU\"\nopencl.device.1.units = 128\nopencl.device.1.clock = 0\nopencl.device.1.nativevectorwidthfloat = 1\nopencl.device.1.maxmemory = 8,589,803,520\nopencl.device.1.maxmemoryallocsize = 18,446,744,073,709,551,615\nopencl.device.1.localmemory = 0\nopencl.device.1.constmemory = 0\nopencl.device.1.cuda.compute.major = 6\nopencl.device.1.cuda.compute.minor = 1\n",
						"devices":[
							{
								"name":"NVIDIA GeForce GTX 1070",
								"type":"OPENCL_GPU"
							},
							{
								"name":"NVIDIA GeForce GTX 1070",
								"type":"CUDA_GPU"
							}
						]
					},
					"config":{
						"filesaver_path":"/tmp\\",
						"photongi":{
							"file_path":"C:\\Users\\mjex\\AppData\\Local\\Temp\\Untitled.pgi"
						},
						"envlight_cache":{
							"file_path":"C:\\Users\\mjex\\AppData\\Local\\Temp\\Untitled.env"
						},
						"dls_cache":{
							"file_path":"C:\\Users\\mjex\\AppData\\Local\\Temp\\Untitled.dlsc"
						}
					}
				},
				"luxcoreOL":{
					"ui":{
						"assetbar_on":0,
						"turn_off":0,
						"ToC_loaded":0
					},
					"on_search":0,
					"search_category":"",
					"model":{
						"thumbnails_loaded":0
					},
					"scene":{
						"thumbnails_loaded":0
					},
					"material":{
						"thumbnails_loaded":0
					}
				},
				"paper_model":{}
			},
			"name":"Scene",
			"nodes":[
				0,
				1,
				2,
				3,
				4,
				5,
				6,
				7,
				8,
				13,
				14,
				15
			]
		}
	],
	"nodes":[
		{
			"camera":0,
			"extras":{
				"perspective_plotter":{
					"is_dirty":1,
					"running_uuid":"",
					"is_valid":1,
					"error_message":"",
					"is_camera_sync":1,
					"axis_vp1_point_b":[
						0.05631282553076744,
						67.8050765991211
					],
					"axis_vp1_point_a":[
						37.2917366027832,
						54.58476638793945
					],
					"axis_vp1_point_d":[
						0.47772017121315,
						47.59552001953125
					],
					"axis_vp1_point_c":[
						34.48967361450195,
						41.49909973144531
					],
					"axis_vp2_point_b":[
						37.726356506347656,
						53.721431732177734
					],
					"axis_vp2_point_c":[
						9.216160774230957,
						48.47776412963867
					],
					"vp_2_type":2,
					"axis_vp2_point_a":[
						35.780845642089844,
						31.70695686340332
					],
					"axis_vp2_point_d":[
						13.092874526977539,
						62.43361282348633
					],
					"vp_1_type":0,
					"grid_point":[
						52.27890396118164,
						11.983559608459473
					],
					"camera_distance":5.0
				},
				"perspective_plotter_visualisation":{
					"horizon_vec":[
						0.4943764805793762,
						-0.8692479729652405
					],
					"principal_point":[
						1226.086669921875,
						668.5386962890625
					],
					"grid_point":[
						1246.178955078125,
						445.0864562988281
					],
					"vp_1":[
						1795.4876708984375,
						534.1903076171875
					],
					"vp_2":[
						1229.163330078125,
						1529.942138671875
					],
					"vp_3":[
						994.8935546875,
						537.0498657226562
					]
				}
			},
			"name":"Camera",
			"rotation":[
				0.17778338491916656,
				-0.2750186622142792,
				0.053592752665281296,
				0.9433375000953674
			],
			"translation":[
				-3.4081597328186035,
				1.255699634552002,
				4.779984474182129
			]
		},
		{
			"mesh":0,
			"name":"Backsplash"
		},
		{
			"mesh":1,
			"name":"House"
		},
		{
			"mesh":2,
			"name":"Plants"
		},
		{
			"mesh":3,
			"name":"Truck",
			"translation":[
				11.902508735656738,
				0,
				-14.675965309143066
			]
		},
		{
			"mesh":4,
			"name":"Telephone pole",
			"translation":[
				23.171722412109375,
				0,
				-24.4800968170166
			]
		},
		{
			"extras":{
				"type":"gltext",
				"text":"mjexart",
				"font":"Fontdiner_Swanky_Regular.json",
				"textColor":"#63d686",
				"textAlign":"right"
			},
			"name":"gltext_mjexart",
			"translation":[
				21.59269905090332,
				22.177387237548828,
				-25.456100463867188
			]
		},
		{
			"camera":1,
			"extras":{
				"perspective_plotter":{
					"running_uuid":""
				}
			},
			"name":"defaultCam",
			"rotation":[
				0.18595120310783386,
				-0.26188188791275024,
				0.05325983837246895,
				0.9455176591873169
			],
			"translation":[
				-2.1437408924102783,
				1.3213361501693726,
				1.0514637231826782
			]
		},
		{
			"mesh":5,
			"name":"dont look at this",
			"rotation":[
				0.4124293327331543,
				0.5743709802627563,
				0.5743710398674011,
				0.4124293327331543
			],
			"scale":[
				1.1802972555160522,
				1.1802973747253418,
				1.1802972555160522
			],
			"translation":[
				-12.694841384887695,
				-0.12461510300636292,
				-19.030820846557617
			]
		},
		{
			"extras":{
				"type":"csslink",
				"text":"YouTube",
				"font":"Fontdiner_Swanky_Regular.json",
				"textAlign":"right",
				"href":"//www.youtube.com/@mjexart",
				"newTab":true
			},
			"name":"csslink_1YouTube"
		},
		{
			"extras":{
				"type":"csslink",
				"text":"Itch.io",
				"font":"Fontdiner_Swanky_Regular.json",
				"textAlign":"right",
				"href":"//mjex.itch.io/",
				"newTab":true
			},
			"name":"csslink_2Itch"
		},
		{
			"extras":{
				"type":"csslink",
				"text":"Instagram",
				"font":"Fontdiner_Swanky_Regular.json",
				"textAlign":"right",
				"href":"//www.instagram.com/mjexart/",
				"newTab":true
			},
			"name":"csslink_3Instagram"
		},
		{
			"extras":{
				"type":"csslink",
				"text":"Museum",
				"font":"Fontdiner_Swanky_Regular.json",
				"textAlign":"right",
				"href":"#museum",
				"newTab":false,
				"class":"museum-link"
			},
			"name":"csslink_3Museum"
		},
		{
			"children":[
				9,
				10,
				11,
				12
			],
			"extras":{
				"type":"cssdiv",
				"textAlign":"right",
				"class":"main-links"
			},
			"name":"cssdiv_mainlinks",
			"translation":[
				17.945756912231445,
				17.515552520751953,
				-25.456100463867188
			]
		},
		{
			"camera":2,
			"name":"cam_aux1",
			"rotation":[
				-0.014144588261842728,
				0.9844528436660767,
				0.11973338574171066,
				0.12773585319519043
			],
			"translation":[
				24.1094970703125,
				17.892358779907227,
				-65.88732147216797
			]
		},
		{
			"extras":{
				"target":true,
				"enabled":true,
				"type":"raylink",
				"href":"#secret",
				"hoverColor":"#ccffcc",
				"changeCursor":true,
				"changeColor":false
			},
			"mesh":6,
			"name":"raylink secret",
			"rotation":[
				-0.5,
				0.5,
				-0.5,
				0.5000000596046448
			],
			"scale":[
				0.452995240688324,
				0.452995240688324,
				0.452995240688324
			],
			"translation":[
				-1.5205336809158325,
				11.037703514099121,
				-19.33767318725586
			]
		}
	],
	"cameras":[
		{
			"extras":{
				"luxcore":{}
			},
			"name":"Camera",
			"perspective":{
				"aspectRatio":1.5,
				"yfov":1.4325673225743827,
				"zfar":1000,
				"znear":0.10000000149011612
			},
			"type":"perspective"
		},
		{
			"name":"Camera.001",
			"perspective":{
				"aspectRatio":1.5,
				"yfov":1.176005247444111,
				"zfar":1000,
				"znear":0.10000000149011612
			},
			"type":"perspective"
		},
		{
			"name":"Camera.002",
			"perspective":{
				"aspectRatio":1.5,
				"yfov":0.4710899940857267,
				"zfar":1000,
				"znear":0.10000000149011612
			},
			"type":"perspective"
		}
	],
	"materials":[
		{
			"doubleSided":true,
			"emissiveFactor":[
				1,
				1,
				1
			],
			"emissiveTexture":{
				"index":0
			},
			"name":"BG",
			"pbrMetallicRoughness":{
				"baseColorFactor":[
					0,
					0,
					0,
					1
				]
			}
		},
		{
			"doubleSided":true,
			"emissiveFactor":[
				1,
				1,
				1
			],
			"emissiveTexture":{
				"index":1
			},
			"name":"Material",
			"pbrMetallicRoughness":{
				"baseColorFactor":[
					0,
					0,
					0,
					1
				]
			}
		},
		{
			"doubleSided":true,
			"emissiveFactor":[
				1,
				1,
				1
			],
			"emissiveTexture":{
				"index":2
			},
			"name":"No cars",
			"pbrMetallicRoughness":{
				"baseColorFactor":[
					0,
					0,
					0,
					1
				]
			}
		},
		{
			"doubleSided":true,
			"emissiveFactor":[
				1,
				1,
				1
			],
			"name":"emissive white",
			"pbrMetallicRoughness":{
				"baseColorFactor":[
					0,
					0,
					0,
					1
				]
			}
		}
	],
	"meshes":[
		{
			"name":"Plane",
			"primitives":[
				{
					"attributes":{
						"POSITION":0,
						"NORMAL":1,
						"TEXCOORD_0":2
					},
					"indices":3,
					"material":0
				}
			]
		},
		{
			"name":"Plane.001",
			"primitives":[
				{
					"attributes":{
						"POSITION":4,
						"NORMAL":5,
						"TEXCOORD_0":6
					},
					"indices":7,
					"material":1
				}
			]
		},
		{
			"name":"Plane.002",
			"primitives":[
				{
					"attributes":{
						"POSITION":8,
						"NORMAL":9,
						"TEXCOORD_0":10
					},
					"indices":11,
					"material":1
				}
			]
		},
		{
			"name":"Plane.003",
			"primitives":[
				{
					"attributes":{
						"POSITION":12,
						"NORMAL":13,
						"TEXCOORD_0":14
					},
					"indices":15,
					"material":1
				}
			]
		},
		{
			"name":"Plane.004",
			"primitives":[
				{
					"attributes":{
						"POSITION":16,
						"NORMAL":17,
						"TEXCOORD_0":18
					},
					"indices":19,
					"material":2
				}
			]
		},
		{
			"name":"Text",
			"primitives":[
				{
					"attributes":{
						"POSITION":20,
						"NORMAL":21,
						"TEXCOORD_0":22
					},
					"indices":23,
					"material":3
				}
			]
		},
		{
			"name":"Plane.007",
			"primitives":[
				{
					"attributes":{
						"POSITION":24,
						"NORMAL":25,
						"TEXCOORD_0":26
					},
					"indices":27,
					"material":1
				}
			]
		}
	],
	"textures":[
		{
			"sampler":0,
			"source":0
		},
		{
			"sampler":0,
			"source":1
		},
		{
			"sampler":0,
			"source":2
		}
	],
	"images":[
		{
			"mimeType":"image/jpeg",
			"name":"default-nobuilding",
			"uri":"default-nobuilding.jpg"
		},
		{
			"mimeType":"image/jpeg",
			"name":"default-all",
			"uri":"default-all.jpg"
		},
		{
			"mimeType":"image/jpeg",
			"name":"default-nocar",
			"uri":"default-nocar.jpg"
		}
	],
	"accessors":[
		{
			"bufferView":0,
			"componentType":5126,
			"count":7315,
			"max":[
				90.21311950683594,
				410.8147888183594,
				18.986591339111328
			],
			"min":[
				-118.10005950927734,
				0,
				-166.77508544921875
			],
			"type":"VEC3"
		},
		{
			"bufferView":1,
			"componentType":5126,
			"count":7315,
			"type":"VEC3"
		},
		{
			"bufferView":2,
			"componentType":5126,
			"count":7315,
			"type":"VEC2"
		},
		{
			"bufferView":3,
			"componentType":5123,
			"count":41856,
			"type":"SCALAR"
		},
		{
			"bufferView":4,
			"componentType":5126,
			"count":1875,
			"max":[
				2.3537282943725586,
				26.20134162902832,
				-17.82517433166504
			],
			"min":[
				-26.259571075439453,
				0,
				-40.12245559692383
			],
			"type":"VEC3"
		},
		{
			"bufferView":5,
			"componentType":5126,
			"count":1875,
			"type":"VEC3"
		},
		{
			"bufferView":6,
			"componentType":5126,
			"count":1875,
			"type":"VEC2"
		},
		{
			"bufferView":7,
			"componentType":5123,
			"count":4896,
			"type":"SCALAR"
		},
		{
			"bufferView":8,
			"componentType":5126,
			"count":644,
			"max":[
				6.707644939422607,
				7.857545375823975,
				-19.386951446533203
			],
			"min":[
				2.1863343715667725,
				0,
				-19.386951446533203
			],
			"type":"VEC3"
		},
		{
			"bufferView":9,
			"componentType":5126,
			"count":644,
			"type":"VEC3"
		},
		{
			"bufferView":10,
			"componentType":5126,
			"count":644,
			"type":"VEC2"
		},
		{
			"bufferView":11,
			"componentType":5123,
			"count":1593,
			"type":"SCALAR"
		},
		{
			"bufferView":12,
			"componentType":5126,
			"count":1815,
			"max":[
				32.9442253112793,
				7.829461574554443,
				8.290460586547852
			],
			"min":[
				-2.8122966289520264,
				0.005722458008676767,
				-5.582144737243652
			],
			"type":"VEC3"
		},
		{
			"bufferView":13,
			"componentType":5126,
			"count":1815,
			"type":"VEC3"
		},
		{
			"bufferView":14,
			"componentType":5126,
			"count":1815,
			"type":"VEC2"
		},
		{
			"bufferView":15,
			"componentType":5123,
			"count":6312,
			"type":"SCALAR"
		},
		{
			"bufferView":16,
			"componentType":5126,
			"count":380,
			"max":[
				7.268266677856445,
				77.42166137695312,
				27.167211532592773
			],
			"min":[
				-3.3152084350585938,
				0,
				-122.66867065429688
			],
			"type":"VEC3"
		},
		{
			"bufferView":17,
			"componentType":5126,
			"count":380,
			"type":"VEC3"
		},
		{
			"bufferView":18,
			"componentType":5126,
			"count":380,
			"type":"VEC2"
		},
		{
			"bufferView":19,
			"componentType":5123,
			"count":582,
			"type":"SCALAR"
		},
		{
			"bufferView":20,
			"componentType":5126,
			"count":3379,
			"max":[
				10.260001182556152,
				0,
				1.2300000190734863
			],
			"min":[
				0,
				0,
				-0.7160000205039978
			],
			"type":"VEC3"
		},
		{
			"bufferView":21,
			"componentType":5126,
			"count":3379,
			"type":"VEC3"
		},
		{
			"bufferView":22,
			"componentType":5126,
			"count":3379,
			"type":"VEC2"
		},
		{
			"bufferView":23,
			"componentType":5123,
			"count":9969,
			"type":"SCALAR"
		},
		{
			"bufferView":24,
			"componentType":5126,
			"count":25,
			"max":[
				1.0000001192092896,
				0,
				1.0000001192092896
			],
			"min":[
				-1.0000001192092896,
				0,
				-1.0000001192092896
			],
			"type":"VEC3"
		},
		{
			"bufferView":25,
			"componentType":5126,
			"count":25,
			"type":"VEC3"
		},
		{
			"bufferView":26,
			"componentType":5126,
			"count":25,
			"type":"VEC2"
		},
		{
			"bufferView":27,
			"componentType":5123,
			"count":96,
			"type":"SCALAR"
		}
	],
	"bufferViews":[
		{
			"buffer":0,
			"byteLength":87780,
			"byteOffset":0,
			"target":34962
		},
		{
			"buffer":0,
			"byteLength":87780,
			"byteOffset":87780,
			"target":34962
		},
		{
			"buffer":0,
			"byteLength":58520,
			"byteOffset":175560,
			"target":34962
		},
		{
			"buffer":0,
			"byteLength":83712,
			"byteOffset":234080,
			"target":34963
		},
		{
			"buffer":0,
			"byteLength":22500,
			"byteOffset":317792,
			"target":34962
		},
		{
			"buffer":0,
			"byteLength":22500,
			"byteOffset":340292,
			"target":34962
		},
		{
			"buffer":0,
			"byteLength":15000,
			"byteOffset":362792,
			"target":34962
		},
		{
			"buffer":0,
			"byteLength":9792,
			"byteOffset":377792,
			"target":34963
		},
		{
			"buffer":0,
			"byteLength":7728,
			"byteOffset":387584,
			"target":34962
		},
		{
			"buffer":0,
			"byteLength":7728,
			"byteOffset":395312,
			"target":34962
		},
		{
			"buffer":0,
			"byteLength":5152,
			"byteOffset":403040,
			"target":34962
		},
		{
			"buffer":0,
			"byteLength":3186,
			"byteOffset":408192,
			"target":34963
		},
		{
			"buffer":0,
			"byteLength":21780,
			"byteOffset":411380,
			"target":34962
		},
		{
			"buffer":0,
			"byteLength":21780,
			"byteOffset":433160,
			"target":34962
		},
		{
			"buffer":0,
			"byteLength":14520,
			"byteOffset":454940,
			"target":34962
		},
		{
			"buffer":0,
			"byteLength":12624,
			"byteOffset":469460,
			"target":34963
		},
		{
			"buffer":0,
			"byteLength":4560,
			"byteOffset":482084,
			"target":34962
		},
		{
			"buffer":0,
			"byteLength":4560,
			"byteOffset":486644,
			"target":34962
		},
		{
			"buffer":0,
			"byteLength":3040,
			"byteOffset":491204,
			"target":34962
		},
		{
			"buffer":0,
			"byteLength":1164,
			"byteOffset":494244,
			"target":34963
		},
		{
			"buffer":0,
			"byteLength":40548,
			"byteOffset":495408,
			"target":34962
		},
		{
			"buffer":0,
			"byteLength":40548,
			"byteOffset":535956,
			"target":34962
		},
		{
			"buffer":0,
			"byteLength":27032,
			"byteOffset":576504,
			"target":34962
		},
		{
			"buffer":0,
			"byteLength":19938,
			"byteOffset":603536,
			"target":34963
		},
		{
			"buffer":0,
			"byteLength":300,
			"byteOffset":623476,
			"target":34962
		},
		{
			"buffer":0,
			"byteLength":300,
			"byteOffset":623776,
			"target":34962
		},
		{
			"buffer":0,
			"byteLength":200,
			"byteOffset":624076,
			"target":34962
		},
		{
			"buffer":0,
			"byteLength":192,
			"byteOffset":624276,
			"target":34963
		}
	],
	"samplers":[
		{
			"magFilter":9729,
			"minFilter":9987
		}
	],
	"buffers":[
		{
			"byteLength":624468,
			"uri":"default.bin"
		}
	]
}
