{
	"asset":{
		"copyright":"mjexart",
		"generator":"Khronos glTF Blender I/O v4.0.44",
		"version":"2.0"
	},
	"extensionsUsed":[
		"KHR_lights_punctual",
		"KHR_materials_specular",
		"KHR_materials_ior"
	],
	"extensionsRequired":[
		"KHR_lights_punctual"
	],
	"extensions":{
		"KHR_lights_punctual":{
			"lights":[
				{
					"color":[
						1,
						1,
						1
					],
					"intensity":795.7747154594767,
					"type":"point",
					"name":"Point.001"
				},
				{
					"color":[
						0,
						0.37773045897483826,
						1
					],
					"intensity":795.7747154594767,
					"spot":{
						"innerConeAngle":1.288314700126648,
						"outerConeAngle":1.288314700126648
					},
					"type":"spot",
					"name":"Spot.003"
				},
				{
					"color":[
						0.178901806473732,
						1,
						0.45352715253829956
					],
					"intensity":397.88735772973837,
					"spot":{
						"innerConeAngle":1.372963309288025,
						"outerConeAngle":1.372963309288025
					},
					"type":"spot",
					"name":"Spot.004"
				}
			]
		}
	},
	"scene":0,
	"scenes":[
		{
			"extras":{
				"keentools_fb_settings":{},
				"bpa_prop":{},
				"luxcore":{
					"devices":{
						"devices_hash":"opencl.device.0.platform.name = \"NVIDIA Corporation\"\nopencl.device.0.platform.version = \"OpenCL 3.0 CUDA\"\nopencl.device.0.name = \"NVIDIA GeForce GTX 1070\"\nopencl.device.0.type = \"OPENCL_GPU\"\nopencl.device.0.units = 15\nopencl.device.0.clock = 1,797\nopencl.device.0.nativevectorwidthfloat = 1\nopencl.device.0.maxmemory = 8,589,803,520\nopencl.device.0.maxmemoryallocsize = 2,147,450,880\nopencl.device.0.localmemory = 49,152\nopencl.device.0.constmemory = 65,536\nopencl.device.1.platform.name = \"NVIDIA\"\nopencl.device.1.platform.version = \"UNKNOWN\"\nopencl.device.1.name = \"NVIDIA GeForce GTX 1070\"\nopencl.device.1.type = \"CUDA_GPU\"\nopencl.device.1.units = 128\nopencl.device.1.clock = 0\nopencl.device.1.nativevectorwidthfloat = 1\nopencl.device.1.maxmemory = 8,589,803,520\nopencl.device.1.maxmemoryallocsize = 18,446,744,073,709,551,615\nopencl.device.1.localmemory = 0\nopencl.device.1.constmemory = 0\nopencl.device.1.cuda.compute.major = 6\nopencl.device.1.cuda.compute.minor = 1\n",
						"devices":[
							{
								"name":"NVIDIA GeForce GTX 1070",
								"type":"OPENCL_GPU"
							},
							{
								"name":"NVIDIA GeForce GTX 1070",
								"type":"CUDA_GPU"
							}
						]
					},
					"config":{
						"filesaver_path":"/tmp\\",
						"photongi":{
							"file_path":"C:\\Users\\mjex\\AppData\\Local\\Temp\\Untitled.pgi"
						},
						"envlight_cache":{
							"file_path":"C:\\Users\\mjex\\AppData\\Local\\Temp\\Untitled.env"
						},
						"dls_cache":{
							"file_path":"C:\\Users\\mjex\\AppData\\Local\\Temp\\Untitled.dlsc"
						}
					}
				},
				"luxcoreOL":{
					"ui":{
						"assetbar_on":0,
						"turn_off":0,
						"ToC_loaded":0
					},
					"on_search":0,
					"search_category":"",
					"model":{
						"thumbnails_loaded":0
					},
					"scene":{
						"thumbnails_loaded":0
					},
					"material":{
						"thumbnails_loaded":0
					}
				},
				"paper_model":{}
			},
			"name":"Scene",
			"nodes":[
				0,
				1,
				2,
				4,
				5,
				6,
				7,
				8,
				9,
				10,
				11,
				12,
				14,
				15
			]
		}
	],
	"nodes":[
		{
			"camera":0,
			"extras":{
				"perspective_plotter":{
					"running_uuid":""
				}
			},
			"name":"museum",
			"rotation":[
				0.0004488849372137338,
				-0.9855411648750305,
				0.16900573670864105,
				0.012061181478202343
			],
			"translation":[
				-0.15271839499473572,
				28.763301849365234,
				4.584507465362549
			]
		},
		{
			"extensions":{
				"KHR_lights_punctual":{
					"light":0
				}
			},
			"name":"Point.001",
			"rotation":[
				-0.7071068286895752,
				0,
				0,
				0.7071068286895752
			],
			"translation":[
				0,
				46.126991271972656,
				55
			]
		},
		{
			"mesh":0,
			"name":"Cylinder",
			"translation":[
				0,
				25,
				55
			]
		},
		{
			"name":"pedestal rotator",
			"rotation":[
				0,
				-0.0980171486735344,
				0,
				0.9951847195625305
			]
		},
		{
			"children":[
				3
			],
			"mesh":1,
			"name":"Pedestal",
			"rotation":[
				0,
				-0.09801715612411499,
				0,
				0.9951847195625305
			],
			"translation":[
				0,
				25,
				55
			]
		},
		{
			"mesh":2,
			"name":"Circle",
			"rotation":[
				-1,
				0,
				0,
				1.6292068494294654e-07
			],
			"translation":[
				0,
				63.502620697021484,
				55
			]
		},
		{
			"extensions":{
				"KHR_lights_punctual":{
					"light":1
				}
			},
			"name":"Spot.001",
			"rotation":[
				0.7071069478988647,
				0,
				0,
				0.7071065902709961
			],
			"translation":[
				0,
				64.06342315673828,
				55
			]
		},
		{
			"extensions":{
				"KHR_lights_punctual":{
					"light":2
				}
			},
			"name":"Spot",
			"rotation":[
				0.7071069478988647,
				0,
				0,
				0.7071065902709961
			],
			"translation":[
				0,
				59.48346710205078,
				55
			]
		},
		{
			"mesh":3,
			"name":"Cylinder.001",
			"translation":[
				0,
				25,
				55
			]
		},
		{
			"mesh":4,
			"name":"Circle.001",
			"rotation":[
				-1,
				0,
				0,
				1.6292068494294654e-07
			],
			"translation":[
				0,
				53.09004592895508,
				55
			]
		},
		{
			"extras":{
				"target":true,
				"enabled":true,
				"type":"raylink",
				"href":"#pedestal1",
				"hoverColor":"#ccffcc",
				"changeCursor":true,
				"changeColor":true
			},
			"mesh":5,
			"name":"raylink template",
			"translation":[
				9.892354011535645,
				29.67682647705078,
				108.4661865234375
			]
		},
		{
			"mesh":6,
			"name":"Circle.002",
			"scale":[
				5.105894565582275,
				5.105894565582275,
				5.105894565582275
			],
			"translation":[
				0,
				82.74150085449219,
				55
			]
		},
		{
			"extras":{
				"target":true,
				"enabled":true,
				"type":"raylink",
				"href":"#",
				"hoverColor":"#ccffcc",
				"changeCursor":true,
				"changeColor":true
			},
			"mesh":7,
			"name":"raylink museum-back text",
			"rotation":[
				0,
				-0.7071068286895752,
				0.7071068286895752,
				1.1520233300643667e-07
			],
			"scale":[
				1.14551842212677,
				1.14551842212677,
				1.14551842212677
			],
			"translation":[
				0,
				25.10038185119629,
				20.850406646728516
			]
		},
		{
			"extras":{
				"type":"csslink",
				"text":"hyperverse",
				"font":"Fontdiner_Swanky_Regular.json",
				"textAlign":"center",
				"href":"//hyperverse.mjex.art",
				"newTab":true
			},
			"name":"csslink_1Hyperverse",
			"translation":[
				0.012287139892578125,
				-0.4503631591796875,
				0.9636955261230469
			]
		},
		{
			"children":[
				13
			],
			"extras":{
				"type":"cssdiv",
				"textAlign":"right",
				"class":"main-links"
			},
			"name":"cssdiv_pedestal_links",
			"translation":[
				0,
				29.91814613342285,
				55
			]
		},
		{
			"mesh":8,
			"name":"Sphere",
			"scale":[
				8.247343063354492,
				8.247343063354492,
				8.247343063354492
			],
			"translation":[
				-0.004450637847185135,
				32.91523361206055,
				60.78109359741211
			]
		}
	],
	"cameras":[
		{
			"name":"Camera.004",
			"perspective":{
				"aspectRatio":1.5,
				"yfov":1.4172525153865196,
				"zfar":1000,
				"znear":0.10000000149011612
			},
			"type":"perspective"
		}
	],
	"materials":[
		{
			"doubleSided":true,
			"extensions":{
				"KHR_materials_specular":{
					"specularFactor":0
				},
				"KHR_materials_ior":{
					"ior":1.4500000476837158
				}
			},
			"name":"red clean",
			"pbrMetallicRoughness":{
				"baseColorFactor":[
					0.7887517213821411,
					0.41067153215408325,
					1,
					1
				],
				"metallicFactor":0
			}
		},
		{
			"doubleSided":true,
			"emissiveFactor":[
				1,
				0.1285478174686432,
				0.0889861062169075
			],
			"name":"emissive red",
			"pbrMetallicRoughness":{
				"baseColorFactor":[
					0,
					0,
					0,
					1
				]
			}
		},
		{
			"doubleSided":true,
			"name":"Material.001",
			"pbrMetallicRoughness":{
				"baseColorFactor":[
					0.8001260757446289,
					0.41816335916519165,
					0.2500750422477722,
					1
				],
				"metallicFactor":0,
				"roughnessFactor":0.5
			}
		},
		{
			"doubleSided":true,
			"name":"Material.002",
			"pbrMetallicRoughness":{
				"baseColorFactor":[
					0.20348531007766724,
					0.002373402938246727,
					0.8009853363037109,
					1
				],
				"metallicFactor":0,
				"roughnessFactor":0.5
			}
		}
	],
	"meshes":[
		{
			"name":"Cylinder.001",
			"primitives":[
				{
					"attributes":{
						"POSITION":0,
						"NORMAL":1,
						"TEXCOORD_0":2
					},
					"indices":3,
					"material":0
				}
			]
		},
		{
			"name":"Cube.001",
			"primitives":[
				{
					"attributes":{
						"POSITION":4,
						"NORMAL":5,
						"TEXCOORD_0":6
					},
					"indices":7
				}
			]
		},
		{
			"name":"Circle.001",
			"primitives":[
				{
					"attributes":{
						"POSITION":8,
						"NORMAL":9,
						"TEXCOORD_0":10
					},
					"indices":11
				}
			]
		},
		{
			"name":"Cylinder.002",
			"primitives":[
				{
					"attributes":{
						"POSITION":12,
						"NORMAL":13,
						"TEXCOORD_0":14
					},
					"indices":15
				}
			]
		},
		{
			"name":"Circle.002",
			"primitives":[
				{
					"attributes":{
						"POSITION":16,
						"NORMAL":17,
						"TEXCOORD_0":18
					},
					"indices":11
				}
			]
		},
		{
			"name":"Cube.002",
			"primitives":[
				{
					"attributes":{
						"POSITION":19,
						"NORMAL":20,
						"TEXCOORD_0":21
					},
					"indices":22
				}
			]
		},
		{
			"name":"Circle.003",
			"primitives":[
				{
					"attributes":{
						"POSITION":23,
						"NORMAL":24,
						"TEXCOORD_0":25
					},
					"indices":26
				}
			]
		},
		{
			"name":"Text.002",
			"primitives":[
				{
					"attributes":{
						"POSITION":27,
						"NORMAL":28,
						"TEXCOORD_0":29
					},
					"indices":30,
					"material":1
				}
			]
		},
		{
			"name":"Sphere",
			"primitives":[
				{
					"attributes":{
						"POSITION":31,
						"NORMAL":32,
						"TEXCOORD_0":33
					},
					"indices":34,
					"material":2
				},
				{
					"attributes":{
						"POSITION":35,
						"NORMAL":36,
						"TEXCOORD_0":37
					},
					"indices":38,
					"material":3
				}
			]
		}
	],
	"accessors":[
		{
			"bufferView":0,
			"componentType":5126,
			"count":1406,
			"max":[
				50,
				50,
				50
			],
			"min":[
				-50,
				0,
				-50
			],
			"type":"VEC3"
		},
		{
			"bufferView":1,
			"componentType":5126,
			"count":1406,
			"type":"VEC3"
		},
		{
			"bufferView":2,
			"componentType":5126,
			"count":1406,
			"type":"VEC2"
		},
		{
			"bufferView":3,
			"componentType":5123,
			"count":2673,
			"type":"SCALAR"
		},
		{
			"bufferView":4,
			"componentType":5126,
			"count":2728,
			"max":[
				50.0000114440918,
				2,
				50.000030517578125
			],
			"min":[
				-50.00004196166992,
				-5.7220458984375e-05,
				-50
			],
			"type":"VEC3"
		},
		{
			"bufferView":5,
			"componentType":5126,
			"count":2728,
			"type":"VEC3"
		},
		{
			"bufferView":6,
			"componentType":5126,
			"count":2728,
			"type":"VEC2"
		},
		{
			"bufferView":7,
			"componentType":5123,
			"count":4092,
			"type":"SCALAR"
		},
		{
			"bufferView":8,
			"componentType":5126,
			"count":129,
			"max":[
				20,
				0,
				20
			],
			"min":[
				-20,
				0,
				-20
			],
			"type":"VEC3"
		},
		{
			"bufferView":9,
			"componentType":5126,
			"count":129,
			"type":"VEC3"
		},
		{
			"bufferView":10,
			"componentType":5126,
			"count":129,
			"type":"VEC2"
		},
		{
			"bufferView":11,
			"componentType":5123,
			"count":384,
			"type":"SCALAR"
		},
		{
			"bufferView":12,
			"componentType":5126,
			"count":770,
			"max":[
				10,
				1,
				10
			],
			"min":[
				-10,
				0,
				-10
			],
			"type":"VEC3"
		},
		{
			"bufferView":13,
			"componentType":5126,
			"count":770,
			"type":"VEC3"
		},
		{
			"bufferView":14,
			"componentType":5126,
			"count":770,
			"type":"VEC2"
		},
		{
			"bufferView":15,
			"componentType":5123,
			"count":1536,
			"type":"SCALAR"
		},
		{
			"bufferView":16,
			"componentType":5126,
			"count":129,
			"max":[
				8,
				0,
				8
			],
			"min":[
				-8,
				0,
				-8
			],
			"type":"VEC3"
		},
		{
			"bufferView":17,
			"componentType":5126,
			"count":129,
			"type":"VEC3"
		},
		{
			"bufferView":18,
			"componentType":5126,
			"count":129,
			"type":"VEC2"
		},
		{
			"bufferView":19,
			"componentType":5126,
			"count":24,
			"max":[
				1,
				1,
				1
			],
			"min":[
				-1,
				-1,
				-1
			],
			"type":"VEC3"
		},
		{
			"bufferView":20,
			"componentType":5126,
			"count":24,
			"type":"VEC3"
		},
		{
			"bufferView":21,
			"componentType":5126,
			"count":24,
			"type":"VEC2"
		},
		{
			"bufferView":22,
			"componentType":5123,
			"count":36,
			"type":"SCALAR"
		},
		{
			"bufferView":23,
			"componentType":5126,
			"count":770,
			"max":[
				8,
				0.36222341656684875,
				8
			],
			"min":[
				-8,
				0,
				-8
			],
			"type":"VEC3"
		},
		{
			"bufferView":24,
			"componentType":5126,
			"count":770,
			"type":"VEC3"
		},
		{
			"bufferView":25,
			"componentType":5126,
			"count":770,
			"type":"VEC2"
		},
		{
			"bufferView":26,
			"componentType":5123,
			"count":1536,
			"type":"SCALAR"
		},
		{
			"bufferView":27,
			"componentType":5126,
			"count":969,
			"max":[
				0.8490774631500244,
				0,
				0.011808117851614952
			],
			"min":[
				-0.8357933759689331,
				0,
				-0.5321033000946045
			],
			"type":"VEC3"
		},
		{
			"bufferView":28,
			"componentType":5126,
			"count":969,
			"type":"VEC3"
		},
		{
			"bufferView":29,
			"componentType":5126,
			"count":969,
			"type":"VEC2"
		},
		{
			"bufferView":30,
			"componentType":5123,
			"count":2895,
			"type":"SCALAR"
		},
		{
			"bufferView":31,
			"componentType":5126,
			"count":559,
			"max":[
				0.45385169982910156,
				0.4538559913635254,
				0.4538431763648987
			],
			"min":[
				-0.4538513422012329,
				-0.45384764671325684,
				-0.45386016368865967
			],
			"type":"VEC3"
		},
		{
			"bufferView":32,
			"componentType":5126,
			"count":559,
			"type":"VEC3"
		},
		{
			"bufferView":33,
			"componentType":5126,
			"count":559,
			"type":"VEC2"
		},
		{
			"bufferView":34,
			"componentType":5123,
			"count":2880,
			"type":"SCALAR"
		},
		{
			"bufferView":35,
			"componentType":5126,
			"count":65,
			"max":[
				0.44854170083999634,
				1.2842202186584473,
				0.44845718145370483
			],
			"min":[
				-0.4485419988632202,
				0.2289848029613495,
				-0.4486265182495117
			],
			"type":"VEC3"
		},
		{
			"bufferView":36,
			"componentType":5126,
			"count":65,
			"type":"VEC3"
		},
		{
			"bufferView":37,
			"componentType":5126,
			"count":65,
			"type":"VEC2"
		},
		{
			"bufferView":38,
			"componentType":5123,
			"count":186,
			"type":"SCALAR"
		}
	],
	"bufferViews":[
		{
			"buffer":0,
			"byteLength":16872,
			"byteOffset":0,
			"target":34962
		},
		{
			"buffer":0,
			"byteLength":16872,
			"byteOffset":16872,
			"target":34962
		},
		{
			"buffer":0,
			"byteLength":11248,
			"byteOffset":33744,
			"target":34962
		},
		{
			"buffer":0,
			"byteLength":5346,
			"byteOffset":44992,
			"target":34963
		},
		{
			"buffer":0,
			"byteLength":32736,
			"byteOffset":50340,
			"target":34962
		},
		{
			"buffer":0,
			"byteLength":32736,
			"byteOffset":83076,
			"target":34962
		},
		{
			"buffer":0,
			"byteLength":21824,
			"byteOffset":115812,
			"target":34962
		},
		{
			"buffer":0,
			"byteLength":8184,
			"byteOffset":137636,
			"target":34963
		},
		{
			"buffer":0,
			"byteLength":1548,
			"byteOffset":145820,
			"target":34962
		},
		{
			"buffer":0,
			"byteLength":1548,
			"byteOffset":147368,
			"target":34962
		},
		{
			"buffer":0,
			"byteLength":1032,
			"byteOffset":148916,
			"target":34962
		},
		{
			"buffer":0,
			"byteLength":768,
			"byteOffset":149948,
			"target":34963
		},
		{
			"buffer":0,
			"byteLength":9240,
			"byteOffset":150716,
			"target":34962
		},
		{
			"buffer":0,
			"byteLength":9240,
			"byteOffset":159956,
			"target":34962
		},
		{
			"buffer":0,
			"byteLength":6160,
			"byteOffset":169196,
			"target":34962
		},
		{
			"buffer":0,
			"byteLength":3072,
			"byteOffset":175356,
			"target":34963
		},
		{
			"buffer":0,
			"byteLength":1548,
			"byteOffset":178428,
			"target":34962
		},
		{
			"buffer":0,
			"byteLength":1548,
			"byteOffset":179976,
			"target":34962
		},
		{
			"buffer":0,
			"byteLength":1032,
			"byteOffset":181524,
			"target":34962
		},
		{
			"buffer":0,
			"byteLength":288,
			"byteOffset":182556,
			"target":34962
		},
		{
			"buffer":0,
			"byteLength":288,
			"byteOffset":182844,
			"target":34962
		},
		{
			"buffer":0,
			"byteLength":192,
			"byteOffset":183132,
			"target":34962
		},
		{
			"buffer":0,
			"byteLength":72,
			"byteOffset":183324,
			"target":34963
		},
		{
			"buffer":0,
			"byteLength":9240,
			"byteOffset":183396,
			"target":34962
		},
		{
			"buffer":0,
			"byteLength":9240,
			"byteOffset":192636,
			"target":34962
		},
		{
			"buffer":0,
			"byteLength":6160,
			"byteOffset":201876,
			"target":34962
		},
		{
			"buffer":0,
			"byteLength":3072,
			"byteOffset":208036,
			"target":34963
		},
		{
			"buffer":0,
			"byteLength":11628,
			"byteOffset":211108,
			"target":34962
		},
		{
			"buffer":0,
			"byteLength":11628,
			"byteOffset":222736,
			"target":34962
		},
		{
			"buffer":0,
			"byteLength":7752,
			"byteOffset":234364,
			"target":34962
		},
		{
			"buffer":0,
			"byteLength":5790,
			"byteOffset":242116,
			"target":34963
		},
		{
			"buffer":0,
			"byteLength":6708,
			"byteOffset":247908,
			"target":34962
		},
		{
			"buffer":0,
			"byteLength":6708,
			"byteOffset":254616,
			"target":34962
		},
		{
			"buffer":0,
			"byteLength":4472,
			"byteOffset":261324,
			"target":34962
		},
		{
			"buffer":0,
			"byteLength":5760,
			"byteOffset":265796,
			"target":34963
		},
		{
			"buffer":0,
			"byteLength":780,
			"byteOffset":271556,
			"target":34962
		},
		{
			"buffer":0,
			"byteLength":780,
			"byteOffset":272336,
			"target":34962
		},
		{
			"buffer":0,
			"byteLength":520,
			"byteOffset":273116,
			"target":34962
		},
		{
			"buffer":0,
			"byteLength":372,
			"byteOffset":273636,
			"target":34963
		}
	],
	"buffers":[
		{
			"byteLength":274008,
			"uri":"museum.bin"
		}
	]
}
