{
	"asset":{
		"copyright":"mjexart",
		"generator":"Khronos glTF Blender I/O v3.6.27",
		"version":"2.0"
	},
	"extensionsUsed":[
		"KHR_lights_punctual"
	],
	"extensionsRequired":[
		"KHR_lights_punctual"
	],
	"extensions":{
		"KHR_lights_punctual":{
			"lights":[
				{
					"color":[
						1,
						1,
						1
					],
					"intensity":0.7957747154594768,
					"type":"point",
					"name":"Point"
				}
			]
		}
	},
	"scene":0,
	"scenes":[
		{
			"extras":{
				"keentools_fb_settings":{},
				"bpa_prop":{},
				"luxcore":{
					"devices":{
						"devices_hash":"opencl.device.0.platform.name = \"NVIDIA Corporation\"\nopencl.device.0.platform.version = \"OpenCL 3.0 CUDA\"\nopencl.device.0.name = \"NVIDIA GeForce GTX 1070\"\nopencl.device.0.type = \"OPENCL_GPU\"\nopencl.device.0.units = 15\nopencl.device.0.clock = 1,797\nopencl.device.0.nativevectorwidthfloat = 1\nopencl.device.0.maxmemory = 8,589,803,520\nopencl.device.0.maxmemoryallocsize = 2,147,450,880\nopencl.device.0.localmemory = 49,152\nopencl.device.0.constmemory = 65,536\nopencl.device.1.platform.name = \"NVIDIA\"\nopencl.device.1.platform.version = \"UNKNOWN\"\nopencl.device.1.name = \"NVIDIA GeForce GTX 1070\"\nopencl.device.1.type = \"CUDA_GPU\"\nopencl.device.1.units = 128\nopencl.device.1.clock = 0\nopencl.device.1.nativevectorwidthfloat = 1\nopencl.device.1.maxmemory = 8,589,803,520\nopencl.device.1.maxmemoryallocsize = 18,446,744,073,709,551,615\nopencl.device.1.localmemory = 0\nopencl.device.1.constmemory = 0\nopencl.device.1.cuda.compute.major = 6\nopencl.device.1.cuda.compute.minor = 1\n",
						"devices":[
							{
								"name":"NVIDIA GeForce GTX 1070",
								"type":"OPENCL_GPU"
							},
							{
								"name":"NVIDIA GeForce GTX 1070",
								"type":"CUDA_GPU"
							}
						]
					},
					"config":{
						"filesaver_path":"/tmp\\",
						"photongi":{
							"file_path":"C:\\Users\\mjex\\AppData\\Local\\Temp\\Untitled.pgi"
						},
						"envlight_cache":{
							"file_path":"C:\\Users\\mjex\\AppData\\Local\\Temp\\Untitled.env"
						},
						"dls_cache":{
							"file_path":"C:\\Users\\mjex\\AppData\\Local\\Temp\\Untitled.dlsc"
						}
					}
				},
				"luxcoreOL":{
					"ui":{
						"assetbar_on":0,
						"turn_off":0,
						"ToC_loaded":0
					},
					"on_search":0,
					"search_category":"",
					"model":{
						"thumbnails_loaded":0
					},
					"scene":{
						"thumbnails_loaded":0
					},
					"material":{
						"thumbnails_loaded":0
					}
				}
			},
			"name":"Scene",
			"nodes":[
				0,
				1,
				2
			]
		}
	],
	"nodes":[
		{
			"camera":0,
			"name":"secret",
			"rotation":[
				-0.12080363929271698,
				0.7213300466537476,
				0.1317705661058426,
				0.6691233515739441
			],
			"translation":[
				-8.1018648147583,
				3.4409215450286865,
				-6.104554176330566
			]
		},
		{
			"mesh":0,
			"name":"checkerboard",
			"translation":[
				-15.743318557739258,
				0,
				-5.092967987060547
			]
		},
		{
			"extensions":{
				"KHR_lights_punctual":{
					"light":0
				}
			},
			"name":"Point",
			"rotation":[
				-0.7071068286895752,
				0,
				0,
				0.7071068286895752
			],
			"translation":[
				-15.743318557739258,
				1.6537936925888062,
				-5.092967987060547
			]
		}
	],
	"cameras":[
		{
			"name":"Camera.003",
			"perspective":{
				"aspectRatio":1.5,
				"yfov":0.9272952082200498,
				"zfar":1000,
				"znear":0.10000000149011612
			},
			"type":"perspective"
		}
	],
	"materials":[
		{
			"doubleSided":true,
			"name":"checkerboard",
			"pbrMetallicRoughness":{
				"baseColorTexture":{
					"index":0
				},
				"metallicFactor":0,
				"roughnessFactor":0.5
			}
		}
	],
	"meshes":[
		{
			"name":"Plane.005",
			"primitives":[
				{
					"attributes":{
						"POSITION":0,
						"NORMAL":1,
						"TEXCOORD_0":2
					},
					"indices":3,
					"material":0
				}
			]
		}
	],
	"textures":[
		{
			"sampler":0,
			"source":0
		}
	],
	"images":[
		{
			"mimeType":"image/jpeg",
			"name":"Tile_11-512x512",
			"uri":"Tile_11-512x512.jpg"
		}
	],
	"accessors":[
		{
			"bufferView":0,
			"componentType":5126,
			"count":25,
			"max":[
				5,
				0,
				5
			],
			"min":[
				-5,
				0,
				-5
			],
			"type":"VEC3"
		},
		{
			"bufferView":1,
			"componentType":5126,
			"count":25,
			"type":"VEC3"
		},
		{
			"bufferView":2,
			"componentType":5126,
			"count":25,
			"type":"VEC2"
		},
		{
			"bufferView":3,
			"componentType":5123,
			"count":96,
			"type":"SCALAR"
		}
	],
	"bufferViews":[
		{
			"buffer":0,
			"byteLength":300,
			"byteOffset":0,
			"target":34962
		},
		{
			"buffer":0,
			"byteLength":300,
			"byteOffset":300,
			"target":34962
		},
		{
			"buffer":0,
			"byteLength":200,
			"byteOffset":600,
			"target":34962
		},
		{
			"buffer":0,
			"byteLength":192,
			"byteOffset":800,
			"target":34963
		}
	],
	"samplers":[
		{
			"magFilter":9729,
			"minFilter":9987
		}
	],
	"buffers":[
		{
			"byteLength":992,
			"uri":"secret.bin"
		}
	]
}
