{
	"asset":{
		"copyright":"mjexart",
		"generator":"Khronos glTF Blender I/O v3.6.27",
		"version":"2.0"
	},
	"scene":0,
	"scenes":[
		{
			"name":"Scene",
			"nodes":[
				0,
				1,
				2,
				3,
				4,
				5,
				6,
				7
			]
		}
	],
	"nodes":[
		{
			"camera":0,
			"name":"Camera",
			"rotation":[
				0.17778338491916656,
				-0.2750186622142792,
				0.053592752665281296,
				0.9433375000953674
			],
			"translation":[
				-3.4081597328186035,
				1.255699634552002,
				4.779984474182129
			]
		},
		{
			"mesh":0,
			"name":"Plane"
		},
		{
			"mesh":1,
			"name":"House"
		},
		{
			"mesh":2,
			"name":"Plants"
		},
		{
			"mesh":3,
			"name":"Truck",
			"translation":[
				11.902508735656738,
				0,
				-14.675965309143066
			]
		},
		{
			"mesh":4,
			"name":"Telephone pole",
			"translation":[
				23.171722412109375,
				0,
				-24.4800968170166
			]
		},
		{
			"name":"textTitle",
			"translation":[
				20.278343200683594,
				22.177387237548828,
				-23.80182647705078
			]
		},
		{
			"camera":1,
			"name":"webView",
			"rotation":[
				0.18595120310783386,
				-0.26188188791275024,
				0.05325983837246895,
				0.9455176591873169
			],
			"translation":[
				-2.1437408924102783,
				1.3213361501693726,
				1.0514637231826782
			]
		}
	],
	"cameras":[
		{
			"name":"Camera",
			"perspective":{
				"aspectRatio":1.5,
				"yfov":1.4325673225743827,
				"zfar":1000,
				"znear":0.10000000149011612
			},
			"type":"perspective"
		},
		{
			"name":"Camera.001",
			"perspective":{
				"aspectRatio":1.5,
				"yfov":1.176005247444111,
				"zfar":1000,
				"znear":0.10000000149011612
			},
			"type":"perspective"
		}
	],
	"materials":[
		{
			"doubleSided":true,
			"emissiveFactor":[
				1,
				1,
				1
			],
			"emissiveTexture":{
				"index":0
			},
			"name":"BG",
			"pbrMetallicRoughness":{
				"baseColorFactor":[
					0,
					0,
					0,
					1
				]
			}
		},
		{
			"doubleSided":true,
			"emissiveFactor":[
				1,
				1,
				1
			],
			"emissiveTexture":{
				"index":1
			},
			"name":"Material",
			"pbrMetallicRoughness":{
				"baseColorFactor":[
					0,
					0,
					0,
					1
				]
			}
		},
		{
			"doubleSided":true,
			"emissiveFactor":[
				1,
				1,
				1
			],
			"emissiveTexture":{
				"index":2
			},
			"name":"No cars",
			"pbrMetallicRoughness":{
				"baseColorFactor":[
					0,
					0,
					0,
					1
				]
			}
		}
	],
	"meshes":[
		{
			"name":"Plane",
			"primitives":[
				{
					"attributes":{
						"POSITION":0,
						"NORMAL":1,
						"TEXCOORD_0":2
					},
					"indices":3,
					"material":0
				}
			]
		},
		{
			"name":"Plane.001",
			"primitives":[
				{
					"attributes":{
						"POSITION":4,
						"NORMAL":5,
						"TEXCOORD_0":6
					},
					"indices":7,
					"material":1
				}
			]
		},
		{
			"name":"Plane.002",
			"primitives":[
				{
					"attributes":{
						"POSITION":8,
						"NORMAL":9,
						"TEXCOORD_0":10
					},
					"indices":11,
					"material":1
				}
			]
		},
		{
			"name":"Plane.003",
			"primitives":[
				{
					"attributes":{
						"POSITION":12,
						"NORMAL":13,
						"TEXCOORD_0":14
					},
					"indices":15,
					"material":1
				}
			]
		},
		{
			"name":"Plane.004",
			"primitives":[
				{
					"attributes":{
						"POSITION":16,
						"NORMAL":17,
						"TEXCOORD_0":18
					},
					"indices":19,
					"material":2
				}
			]
		}
	],
	"textures":[
		{
			"sampler":0,
			"source":0
		},
		{
			"sampler":0,
			"source":1
		},
		{
			"sampler":0,
			"source":2
		}
	],
	"images":[
		{
			"mimeType":"image/jpeg",
			"name":"0113-background",
			"uri":"0113-background.jpg"
		},
		{
			"mimeType":"image/jpeg",
			"name":"0113-web",
			"uri":"0113-web.jpg"
		},
		{
			"mimeType":"image/jpeg",
			"name":"0113-nocars",
			"uri":"0113-nocars.jpg"
		}
	],
	"accessors":[
		{
			"bufferView":0,
			"componentType":5126,
			"count":9255,
			"max":[
				90.21312713623047,
				410.8147888183594,
				18.986623764038086
			],
			"min":[
				-118.10005950927734,
				0,
				-166.77508544921875
			],
			"type":"VEC3"
		},
		{
			"bufferView":1,
			"componentType":5126,
			"count":9255,
			"type":"VEC3"
		},
		{
			"bufferView":2,
			"componentType":5126,
			"count":9255,
			"type":"VEC2"
		},
		{
			"bufferView":3,
			"componentType":5123,
			"count":53376,
			"type":"SCALAR"
		},
		{
			"bufferView":4,
			"componentType":5126,
			"count":1834,
			"max":[
				2.3537282943725586,
				26.20134162902832,
				-17.82517433166504
			],
			"min":[
				-26.259572982788086,
				0,
				-40.12245559692383
			],
			"type":"VEC3"
		},
		{
			"bufferView":5,
			"componentType":5126,
			"count":1834,
			"type":"VEC3"
		},
		{
			"bufferView":6,
			"componentType":5126,
			"count":1834,
			"type":"VEC2"
		},
		{
			"bufferView":7,
			"componentType":5123,
			"count":4800,
			"type":"SCALAR"
		},
		{
			"bufferView":8,
			"componentType":5126,
			"count":644,
			"max":[
				6.707644939422607,
				7.857545375823975,
				-19.386951446533203
			],
			"min":[
				2.1863343715667725,
				0,
				-19.386951446533203
			],
			"type":"VEC3"
		},
		{
			"bufferView":9,
			"componentType":5126,
			"count":644,
			"type":"VEC3"
		},
		{
			"bufferView":10,
			"componentType":5126,
			"count":644,
			"type":"VEC2"
		},
		{
			"bufferView":11,
			"componentType":5123,
			"count":1593,
			"type":"SCALAR"
		},
		{
			"bufferView":12,
			"componentType":5126,
			"count":1815,
			"max":[
				32.9442253112793,
				7.829461574554443,
				8.290460586547852
			],
			"min":[
				-2.8122966289520264,
				0.005722458008676767,
				-5.582144737243652
			],
			"type":"VEC3"
		},
		{
			"bufferView":13,
			"componentType":5126,
			"count":1815,
			"type":"VEC3"
		},
		{
			"bufferView":14,
			"componentType":5126,
			"count":1815,
			"type":"VEC2"
		},
		{
			"bufferView":15,
			"componentType":5123,
			"count":6312,
			"type":"SCALAR"
		},
		{
			"bufferView":16,
			"componentType":5126,
			"count":380,
			"max":[
				7.268266677856445,
				77.42166137695312,
				27.167211532592773
			],
			"min":[
				-3.3152084350585938,
				0,
				-122.66867065429688
			],
			"type":"VEC3"
		},
		{
			"bufferView":17,
			"componentType":5126,
			"count":380,
			"type":"VEC3"
		},
		{
			"bufferView":18,
			"componentType":5126,
			"count":380,
			"type":"VEC2"
		},
		{
			"bufferView":19,
			"componentType":5123,
			"count":582,
			"type":"SCALAR"
		}
	],
	"bufferViews":[
		{
			"buffer":0,
			"byteLength":111060,
			"byteOffset":0,
			"target":34962
		},
		{
			"buffer":0,
			"byteLength":111060,
			"byteOffset":111060,
			"target":34962
		},
		{
			"buffer":0,
			"byteLength":74040,
			"byteOffset":222120,
			"target":34962
		},
		{
			"buffer":0,
			"byteLength":106752,
			"byteOffset":296160,
			"target":34963
		},
		{
			"buffer":0,
			"byteLength":22008,
			"byteOffset":402912,
			"target":34962
		},
		{
			"buffer":0,
			"byteLength":22008,
			"byteOffset":424920,
			"target":34962
		},
		{
			"buffer":0,
			"byteLength":14672,
			"byteOffset":446928,
			"target":34962
		},
		{
			"buffer":0,
			"byteLength":9600,
			"byteOffset":461600,
			"target":34963
		},
		{
			"buffer":0,
			"byteLength":7728,
			"byteOffset":471200,
			"target":34962
		},
		{
			"buffer":0,
			"byteLength":7728,
			"byteOffset":478928,
			"target":34962
		},
		{
			"buffer":0,
			"byteLength":5152,
			"byteOffset":486656,
			"target":34962
		},
		{
			"buffer":0,
			"byteLength":3186,
			"byteOffset":491808,
			"target":34963
		},
		{
			"buffer":0,
			"byteLength":21780,
			"byteOffset":494996,
			"target":34962
		},
		{
			"buffer":0,
			"byteLength":21780,
			"byteOffset":516776,
			"target":34962
		},
		{
			"buffer":0,
			"byteLength":14520,
			"byteOffset":538556,
			"target":34962
		},
		{
			"buffer":0,
			"byteLength":12624,
			"byteOffset":553076,
			"target":34963
		},
		{
			"buffer":0,
			"byteLength":4560,
			"byteOffset":565700,
			"target":34962
		},
		{
			"buffer":0,
			"byteLength":4560,
			"byteOffset":570260,
			"target":34962
		},
		{
			"buffer":0,
			"byteLength":3040,
			"byteOffset":574820,
			"target":34962
		},
		{
			"buffer":0,
			"byteLength":1164,
			"byteOffset":577860,
			"target":34963
		}
	],
	"samplers":[
		{
			"magFilter":9729,
			"minFilter":9987
		}
	],
	"buffers":[
		{
			"byteLength":579024,
			"uri":"websitespace.bin"
		}
	]
}
