<svg id="Layer_1" data-name="Layer 1" xmlns="http://www.w3.org/2000/svg" viewBox="0 0 289.53 246.78"><defs><style>.cls-1{fill:#006a31;}.cls-2{fill:#fff;}.cls-3{fill:#231f20;}.cls-4{fill:#f37021;}.cls-4,.cls-5{fill-rule:evenodd;}.cls-5{fill:#f68b1f;}</style></defs><title>FC_IrishFest_logo</title><path class="cls-1" d="M415.21,276.69v-8a82.35,82.35,0,0,0,.4-9.46c0-4.32,0-9.21-.1-14.14v-3.5c.1-2.38.1-4.24.1-5.49a35.8,35.8,0,0,0-.16-3.86c-.09-1-.21-2.77-.3-4.44a14.8,14.8,0,0,0-3.63-17.93l-.78-.66-.2-.16A132.43,132.43,0,0,0,393.3,197.4a3.79,3.79,0,0,1-.34-.2,15.54,15.54,0,0,0-2.69-1.83h0a15.27,15.27,0,0,0-3.35-1.28,15.29,15.29,0,0,0-2.54-1.51,16.56,16.56,0,0,0-2.7-1c-.55-.21-1-.41-1.88-.76l-.88-.36-.46-.18c-2-.72-4-1.41-6.07-2-1.09-.4-2.83-1-4.42-1.56l-2.82-1a39.37,39.37,0,0,0-4.72-1.5,14.21,14.21,0,0,0-3.59-.47,13.13,13.13,0,0,0-5,1,31.9,31.9,0,0,0-13-5.11,30.21,30.21,0,0,0-4.23-.31,27.72,27.72,0,0,0-12.49,3,13.39,13.39,0,0,0-10-4.61,67.16,67.16,0,0,0-6.91.21l-.48,0-.28,0-2.07.22-.53,0-1.06,0c-1.56-.06-3.15-.09-4.73-.11a3.38,3.38,0,0,0-.45,0c-2.29,0-4.61.14-6.89.26l-.25,0-.87.07a13.41,13.41,0,0,0-11.46,8.21,29.32,29.32,0,0,0-3.21-1.49,33.41,33.41,0,0,0-12-2,49.08,49.08,0,0,0-12.71,1.75,45.69,45.69,0,0,0-4.54,1.46l-.09,0c-4.43,1.73-4.78,1.86-8,3l-.1,0c-3,1.11-6,2.32-8.92,3.6a11.88,11.88,0,0,0-1.44.53l-.27.12-.19.1h0a13.69,13.69,0,0,0-6.42,1.67,72.06,72.06,0,0,0-6.29,3.78l-.19.13c-.79.54-1.45,1-2,1.37l-.45.32-1.16.75c-1.4.84-2.8,1.73-4.17,2.65l-.24.16c-2,1.38-3.89,2.83-5.75,4.33l-.1.08-.72.6a14.87,14.87,0,0,0-5.42,11.5v1.28a11.4,11.4,0,0,0,.17,2l.09.57a12.19,12.19,0,0,0,1.61,4.32c.08,4.75.16,11.9.16,15.63l-.3,12v.25c0,2.35,0,3.57.12,5.67.29,5.23.29,10.86.29,12.72,0,.68,0,1.29,0,1.82a14.74,14.74,0,0,0-2.64,8.94c0,8.95,6.6,13.63,13.1,13.63H205c.72,0,1.45.92,2.22.85,1.3.47,3.05,3.93,5.12,3.93h.46l1.61,0c6.55,0,11.57-5.87,14.85-8.92.32,0,.63.05.95.05h.57c1.51,0,2.54,2,3.47,1.91a13.62,13.62,0,0,0,8.49,3h.68a12.25,12.25,0,0,0,2.1-.21,12.4,12.4,0,0,0,7.82-5.08,17.42,17.42,0,0,0,2.87-.68,13.32,13.32,0,0,0,8.29,2.76h.09c.7,0,1.34-.06,2.75-.18l1.76-.14,4.13-.15h.24s.23,0,1.07.13a11.94,11.94,0,0,0,1.78.13h.28a25.74,25.74,0,0,0,6.64-.65,14.79,14.79,0,0,0,4.71.76h.08c1.55,0,3.23-.13,5-.26l.9-.07.21,0c1.09-.09,2.57-.1,3.88-.1h2c5.39.27,11.14.42,12.36.42a13.79,13.79,0,0,0,6.92-1.8,30.27,30.27,0,0,0,12.37,2.69h.11a31,31,0,0,0,16.38-4.84,13.19,13.19,0,0,0,9.68,4.21h.43a22.55,22.55,0,0,0,3.15-.2c.53,0,1.59-.08,2.67-.12a20.72,20.72,0,0,0,7.92,2.26c1.69.16,3.92.22,7.3.29h.87a13.14,13.14,0,0,0,1.89-.13,31.06,31.06,0,0,0,5.56.42H388a16.75,16.75,0,0,0,2.21-.15,20.21,20.21,0,0,0,7.21-2l3.08.23a25.28,25.28,0,0,0,3.15.34l.65,0c4.43,0,12.81-2.87,12.81-13.76v-.68A13.68,13.68,0,0,0,415.21,276.69Z" transform="translate(-160.23 -177.61)"/><path class="cls-1" d="M400.86,319.75c-1.23-6.36-1.73-9-5.18-12.1a11.22,11.22,0,0,0-3-1.95,24.36,24.36,0,0,0-7.68-1.4h-.37a13.81,13.81,0,0,0-5.05,1.11c-.43,0-1.07.07-2,.1l-.46,0-5.47.4c-.25,0-.5,0-.75.08a44,44,0,0,1-6.37.34c-.21,0-.57,0-.87-.08a19,19,0,0,0-7.51-1.55h-.72a21.46,21.46,0,0,0-6,.79,30.34,30.34,0,0,0-37.91,1.83c-3.86-4.15-9.18-4.17-11.76-4.17a18.14,18.14,0,0,0-4.86.77l-1,.3-1.22.43c-.25,0-.75,0-1.74,0h-1.54l-.64,0c-.89,0-2.53.1-4.26.15-2.4.07-5.06.15-7.41.27L276,305a58.15,58.15,0,0,0-9.4-.72h-.19a16.69,16.69,0,0,0-3.49.36,14.19,14.19,0,0,0-5.1-.95h-.54a21.83,21.83,0,0,0-7.3,1.07l-3.52-.06a8.62,8.62,0,0,0-.88,0l-3.1.18h-.16c-.28,0-.69,0-1.19,0-.75,0-1.56,0-2.46,0-.71,0-1.67,0-2.1-.1s-.83-.09-1.24-.1l-3.15-.08c-.37,0-.74,0-1.11,0a11.89,11.89,0,0,1-1.31,0c-.49,0-.85,0-1.4-.1a10.38,10.38,0,0,0-1.11-.09h-.72c-4.23,0-12.24,2.86-12.24,13.67a12.29,12.29,0,0,0,2.29,7.09c0,.63,0,1.22,0,1.88v4.14a41.58,41.58,0,0,0-.22,4.2v.22l.21,11.81c-.13,2.92-.53,13.74-.53,16.67v.43l.11,2.82q0,.38.06.75c0,.46,0,1.84,0,2.93-.05,1.69-.05,3.12,0,4.54a12.83,12.83,0,0,0-2.58,8,14,14,0,0,0,4.91,10.76,17.29,17.29,0,0,0,1.43,1.11h0c2.08,1.72,4.26,3.39,6.48,4.95l.32.22c.86.56,1.73,1.11,2.59,1.64.17.1.35.21.53.3s.42.24.88.53c1.21.75,3,1.89,8.47,4.78.19.1.37.19.56.27.82.38,1.67.76,2.54,1.13.57.31,1.14.61,1.72.9l.53.25a12.91,12.91,0,0,0,5.28,1.16,12,12,0,0,0,4.33-.81c1.39,2.53,3.95,5.08,8.65,6.37a37.16,37.16,0,0,0,4.34.93c.95.16,2,.38,3.22.63l1.92.4c5.93,1.17,11.08,2,15.22,2.6,3.56.55,6.93,1.07,8.32,1.48l.71.19a33.73,33.73,0,0,0,7.39,1h.27a13.45,13.45,0,0,0,9.34-3.51,27.62,27.62,0,0,0,10.6,2.12,28.84,28.84,0,0,0,3.32-.2c8.1-1,15.58-5.48,21.52-12.68a11.83,11.83,0,0,0,9.09,4.21,13.39,13.39,0,0,0,4.74-.9c.32-.12.63-.26.94-.41.85-.41.85-.41,1.94-.86l.26-.1.15-.06a50.29,50.29,0,0,0,7.24-3.52l.48-.28c1.05-.6,2-1.1,2.78-1.54L378,406l.87-.48a8.75,8.75,0,0,0,1-.46A63.75,63.75,0,0,0,388,400l.1-.07.13-.1a13,13,0,0,0,5.68-10.9,14.4,14.4,0,0,0-2.81-9.19l.22-18.6v-.29l-.11-8.06.11-12v-.27a14.31,14.31,0,0,0,10.51-13.87c0-.72,0-1.81-.94-6.58Z" transform="translate(-160.23 -177.61)"/><path d="M408,279.93l-.37-.34-.16-2.91v-8.32a77,77,0,0,0,.41-9.14c0-4.31,0-9.19-.1-14.06v-3.75c.1-2.29.1-4.11.1-5.32a28.2,28.2,0,0,0-.12-3.08c-.17-1.72-.38-5.33-.46-7.52a5.47,5.47,0,0,0,1.7-4.42,6.53,6.53,0,0,0-2.47-5.3l-.74-.62-.07-.06a126.43,126.43,0,0,0-16.29-11l-1-.55a9.52,9.52,0,0,0-1.79-1.33h0a6.26,6.26,0,0,0-3.2-.77,6.11,6.11,0,0,0-2.33-1.84,8.35,8.35,0,0,0-1.75-.62c-.87-.32-1.47-.57-2.53-1l-.87-.36-.17-.06c-1.92-.7-3.91-1.37-5.89-2l-4.5-1.59-3.08-1.08a28.28,28.28,0,0,0-3.89-1.23,6.36,6.36,0,0,0-1.61-.21,4.9,4.9,0,0,0-4.79,3.44,25,25,0,0,0-14.34-7.68,21.77,21.77,0,0,0-3.1-.23,20.46,20.46,0,0,0-14.7,6.3,28,28,0,0,0-5.28,7.54c0-.68,0-1.23,0-1.54,0-.64,0-.85,1.05-2.12,1.75-1.89,1.9-4,1.9-6,0-3.51-2.15-5.74-5.62-5.82a56.46,56.46,0,0,0-6.21.19l-.48,0h-.1c-.75.06-1.38.13-1.91.19s-.85.1-1,.1l-1.51,0c-1.57-.05-3.18-.09-4.78-.11h-.16c-2.22.05-4.46.14-6.67.26H289l-.83.07c-2.53.2-5.49,2-5.49,6.29v1.82a5.65,5.65,0,0,0,0,.59l.14,1A4.34,4.34,0,0,0,285,199c.06,1.81.16,8,.24,14.46-1.94-10.59-7.21-18.09-15.11-21.08a25.74,25.74,0,0,0-9.24-1.52,41.43,41.43,0,0,0-10.68,1.47,39.53,39.53,0,0,0-3.84,1.24c-4.39,1.72-4.85,1.89-8.27,3.1-3,1.11-6,2.32-8.92,3.61a7.15,7.15,0,0,0-1,.34l-.09,0a6.87,6.87,0,0,0-1.77,1.16,4.7,4.7,0,0,0-1.71-.34,6,6,0,0,0-2.81.78,62.53,62.53,0,0,0-5.66,3.41l-.07,0c-.74.5-1.34.93-1.81,1.27-.32.22-.56.4-.72.5l-1.29.83c-1.34.8-2.68,1.65-4,2.52l-.09.06c-1.82,1.28-3.61,2.64-5.37,4.06l-.66.54a7.06,7.06,0,0,0-2.67,5.58v1.28a4.49,4.49,0,0,0,.06.73l.1.59a4.39,4.39,0,0,0,1.66,2.76c.09,4.33.22,13.84.22,18.54l-.31,12.09v.09c0,2.23,0,3.34.11,5.24.3,5.44.3,11.24.3,13.15,0,1.23,0,3.83-.13,5.12a6.26,6.26,0,0,0-2.51,5.63c0,5.47,4.1,5.9,5.35,5.9h.4c1,0,2.21,3.84,3.58,3.7h.11l.27.13a8.71,8.71,0,0,0,3.66,1h.2l1.75-.06h0c4.82,0,8.92-6.05,11.37-8.48l.45-.45a5.13,5.13,0,0,0,1.25-.59,6,6,0,0,0,2.82.65h.42c2.86,0,3.83,1.93,5.8,1.76l.66-.05.14.15c1.12,1.21,2.83,3.05,5.51,3h.57a4.78,4.78,0,0,0,.76-.08c2.75-.52,3.63-2.73,4.19-5.16a23.3,23.3,0,0,0,2.34.14h.16c3.42,0,5.85-1.49,6.95-4,1.43,3.38,3.59,5.9,6.83,5.9.38,0,.9-.05,2.16-.15l1.95-.16,4.42-.17h.27a13.2,13.2,0,0,1,2.31.22,4.78,4.78,0,0,0,.64,0h.27c2.3,0,5.08,0,7-1.51a5.8,5.8,0,0,0,4.35,1.62H288c1.28,0,2.76-.12,4.46-.24l.91-.07h.08c1.43-.13,3.09-.13,4.56-.13h2.16c5.38.28,11.13.43,12.17.43a5.53,5.53,0,0,0,5.52-3.86,23,23,0,0,0,13.78,4.75h0c9.82-.07,18.25-6.31,23-15.81,0,.87.09,1.67.15,2.33v.7c-2.31,1.86-2.52,4.21-2.52,6.3a5.58,5.58,0,0,0,5.59,5.85h.34a14.34,14.34,0,0,0,2.27-.16c.7-.07,3.73-.19,5.51-.22a14.18,14.18,0,0,0,6.6,2.34c1.54.15,4.11.21,6.82.26h.71a6,6,0,0,0,2.15-.39,5.58,5.58,0,0,0,1,.35,22.66,22.66,0,0,0,4.49.33h.2a9.73,9.73,0,0,0,1.39-.11,13.5,13.5,0,0,0,6.06-2l.25-.15,1,0,4.7.36.23,0a19.59,19.59,0,0,0,2.34.27h.38c1.89,0,5.07-.78,5.07-6v-.68A5.65,5.65,0,0,0,408,279.93Zm-181.1-65.12a2.32,2.32,0,0,1,.3-1.2c-.05.89-.12,2.25-.23,3.87C226.91,216.22,226.88,215.24,226.88,214.81Zm.28,49.42,0-7.82,0-.56c0,2.47.08,4.64.08,5.88C227.23,262.18,227.22,263,227.16,264.23Zm58.09,12.06a6.2,6.2,0,0,0-1.2.84,2.29,2.29,0,0,1-.45-.78v-.19a3.58,3.58,0,0,0,.09-.45,34,34,0,0,0,.57-7.17c0-8.59-3.24-19.9-9.05-23a14.17,14.17,0,0,0,2.34-1.9c3.62-3.38,6.44-9.7,7.75-16.81L285,248.6v.09c0,3.08,0,6,.14,8.62.4,7.71.4,8.21.4,11A74,74,0,0,1,285.25,276.29ZM335.49,204c.05.51.1,1,.16,1.41a14.25,14.25,0,0,1-.51-2.91A8.19,8.19,0,0,1,335.49,204Zm-.38,71a.84.84,0,0,1-.47.34,1,1,0,0,1-.61-.24l0-.16c-1.25-6.6-1.35-7.14-2.76-9.28l-.1-.15a11.68,11.68,0,0,0-9.33-4.87h-.21a10.77,10.77,0,0,0-6.63,2.21l-.09-13.28.39-5c0-.13,0-.25,0-.38l0-2.41a44.55,44.55,0,0,0,7,11.13c9.32,10.67,9.4,10.78,10.18,11.86,2.06,2.91,3.25,5.94,3.25,8.34A3,3,0,0,1,335.11,275Zm19.37-43.67v.12a13,13,0,0,0,.14,1.78l.05.92c-2.3-5.85-5.52-12-8.19-15.21l-2.06-2.52a9,9,0,0,0,1.12.25,10.53,10.53,0,0,0,1.67.13,10.25,10.25,0,0,0,7.32-3c0,.64,0,1.44.08,2.51l.12,6.47Z" transform="translate(-160.23 -177.61)"/><path d="M393.76,321.12c-1.13-5.86-1.28-6.61-2.93-8.1a4,4,0,0,0-1.08-.7,17.88,17.88,0,0,0-4.75-.78h-.17a6.72,6.72,0,0,0-3.18.91,25.78,25.78,0,0,1-3.81.3h-.17l-5.49.4-.27,0a48.08,48.08,0,0,1-7.28.41h-.08a18.74,18.74,0,0,1-2.75-.29c-2.68-1-3.64-1.35-5.63-1.35h-.64c-2,0-5.41.06-7,2.6a22.19,22.19,0,0,0-16.85-7.43c-7.66,0-14.61,3.75-19.57,10.55A31.34,31.34,0,0,0,309.4,322c-.69-3.36-1.41-6.44-1.8-7.51,0-.07-.05-.14-.09-.22-1.67-3.87-4.89-3.87-7.73-3.87a14.51,14.51,0,0,0-3.07.54l-.36.11a10.7,10.7,0,0,1-5.38.87h-1.8c-1,.06-2.57.1-4.42.16-2.6.08-5.52.17-7.93.3l-.31,0-1.5-.2a52.13,52.13,0,0,0-8.45-.65h-.13a7.08,7.08,0,0,0-4.21,1.16,6.17,6.17,0,0,0-4.44-1.75h-.48a15,15,0,0,0-5.74.93l-.24.08-.23.07-4.73-.08H246l-3.18.19c-1,.07-2.56.05-4.35,0a25.45,25.45,0,0,1-2.9-.16,3.29,3.29,0,0,0-.45,0l-3.16-.09h-.4c-.76,0-1.48,0-2,0s-1.21,0-2.11-.15a2.69,2.69,0,0,0-.4,0l-.32,0h-.18c-1.5,0-5,.63-5,6.44a5.94,5.94,0,0,0,2,4.14,1.85,1.85,0,0,0,.14.14,1.88,1.88,0,0,1,.24.27v1.46a26.54,26.54,0,0,0-.11,3v4.42c-.2,2.72-.21,2.84-.21,3.93v.08l.21,12c-.11,2.4-.54,13.71-.54,16.57v.15l.11,2.82c0,.09,0,.18,0,.28.09.79.09,2.18.09,3.8a55.52,55.52,0,0,0,.22,7.51c-1.43.62-2.81,2.05-2.81,4.91a6.83,6.83,0,0,0,2.39,5.29,10.68,10.68,0,0,0,1,.78l.31.25c1.93,1.6,4,3.16,6,4.61l.11.08c.79.52,1.6,1,2.39,1.51l.2.11c.49.26.8.46,1.29.76,1.12.7,2.8,1.76,8,4.53l.2.1c.84.39,1.72.78,2.62,1.16l1.88,1,.19.09a5.66,5.66,0,0,0,2.34.53,4.7,4.7,0,0,0,4.44-3.12,8.32,8.32,0,0,0,.45-3,7.06,7.06,0,0,0-2-5.11c-2-2-2-2-1.9-3.74,0-.06,0-.11,0-.17V386.4c0-.09,0-.18,0-.28l-.12-1.76v-4.62l-.12-2.55v-2.82l-.13-2.39a4.08,4.08,0,0,0-.09-.69,2.23,2.23,0,0,1,0-.37V370l.22-2.18a2.46,2.46,0,0,0,0-.26l0-1.17c.14-3.72.22-5.91.29-7.23.07.17.13.37.2.6l0,.11c1.4,4.56,2.25,7.31,6.68,8.15a9.31,9.31,0,0,0,1.83.18,9.07,9.07,0,0,0,3.53-.69l.12,4.64-.12,3.06a.91.91,0,0,0,0,.17,11,11,0,0,0,.13,1.4c0,.36.1.82.16,1.35a4,4,0,0,0,.08.5,3.24,3.24,0,0,1,0,.44v.31a4.29,4.29,0,0,0-.12,1v.71l-.38,3.36c-.06.64-.12,1.21-.17,1.64a12.2,12.2,0,0,0-.11,1.26v.1l.13,5.34c0,2,0,3.84-.05,5-2.83,1.24-2.95,3.84-3.07,6.38a1.34,1.34,0,0,0,0,.2c0,2.95,1.67,4.91,5,5.81a29.38,29.38,0,0,0,3.55.77c1.12.19,2.26.42,3.59.7l1.84.38c5.78,1.14,10.85,1.92,14.93,2.55a91.3,91.3,0,0,1,9.24,1.69l.26.06a25.94,25.94,0,0,0,5.91.82h.17c4.29,0,5.92-2.87,6-5.45l.17-1.44.24.23a20.83,20.83,0,0,0,13.49,5.11,19.27,19.27,0,0,0,2.39-.14c7.52-1,14.49-5.94,19.62-14a49.23,49.23,0,0,0,7.36-25.73,82.9,82.9,0,0,0-1.69-15.1c-1.74-7.11-6.9-17.18-11-21.55l-4.06-4.35a9.51,9.51,0,0,0,4,.93h.43a10.85,10.85,0,0,0,4.31-1.17,6.33,6.33,0,0,0,1.34,2.07,7.17,7.17,0,0,0,5.27,2c.29,0,.6,0,.92,0a9.66,9.66,0,0,0,4.38-1.36c0,.08,0,.16,0,.25l.09,2.12.12,7.25a44.14,44.14,0,0,1-.48,6.47,4.28,4.28,0,0,0,0,.62l.37,8.33-.1,1.47c-.05.34-.09.66-.12.93a12.55,12.55,0,0,0-.15,1.54c0,.33.14,3.12.38,6.52v3.78c-.13,1.77-.13,3.1-.13,3.61,0,1,.07,2.43.16,4.19l.09,1.89,0,.27a16.77,16.77,0,0,1,.1,1.9c0,5.44-1.21,6.87-1.35,7-2.25,2.06-3.06,3.4-3.05,6.7a5.52,5.52,0,0,0,.74,2.93,4.64,4.64,0,0,0,4,2.23,6.06,6.06,0,0,0,2.17-.43,2.17,2.17,0,0,0,.35-.15c1.06-.51,1.06-.51,2.37-1l.31-.13a44.11,44.11,0,0,0,6.48-3.13l.48-.28c1.09-.63,2.06-1.15,2.91-1.61l1.26-.69c.62-.35,1.16-.65,1.58-.83l.36-.16a56.48,56.48,0,0,0,7.45-4.61l.14-.1a5.9,5.9,0,0,0,2.7-5.05c0-3.3-1.15-5-2.52-5.83L384,381.2c0-.1,0-.2-.05-.3a8.12,8.12,0,0,1,0-1.16l.23-18.73v-.11l-.12-8.14.12-12.05v-.08c0-.68,0-2.09-.12-4.32v-3.16a7.8,7.8,0,0,0,4.8.53,7,7,0,0,0,5.83-7.05,30.07,30.07,0,0,0-.82-5.21Zm-130.18,24.2c-.05.45-.14,1.18-.22,2.14,0,.27-.05.55-.07.84-.07-.25-.15-.49-.22-.75-.7-2.36-1.66-5.6-4.79-6.53a4.39,4.39,0,0,0-1.19-.17,13.52,13.52,0,0,1-2-.17,7.49,7.49,0,0,0-1-.08,4.29,4.29,0,0,0-1,.12,5.55,5.55,0,0,0-2.46.89c0-.69,0-1.53,0-2.54a3.94,3.94,0,0,0-.07-.77,32.21,32.21,0,0,1-.17-3.88c0-1.8.05-4.49.11-6.32a9.31,9.31,0,0,1,.91,2.83c0,.05,0,.09,0,.13.94,6.07,5,7.05,6.76,7.19a8,8,0,0,0,5.06-1.26v.31c.1,2.16.21,4.78.35,7.87C263.59,345.21,263.59,345.26,263.58,345.32Zm63.36-26.16,0,0L327,322h-.08Zm-34.68,7.35a16.71,16.71,0,0,1,2.77,5.14c1.37,5.19,2.83,8.86,8.77,8.89.32,0,.67,0,1,0q0,1,0,1.95c0,1.44.05,2.86.14,4.26-1.23-.95-2.9-1.41-5.37-1.44h-.23a7.74,7.74,0,0,0-6.32,3.05c0-.35-.11-.75-.17-1.19a7.16,7.16,0,0,0,.08-1.13v-.15l-.13-3.56V338.6c0-.07,0-6.32-.29-8.68h0c0-.62-.1-1.19-.14-1.7C292.33,327.55,292.27,326.8,292.26,326.51Zm36.26,73.6a.7.7,0,0,1-.35,0l0-.15c-1.28-6.75-1.38-7.3-2.83-9.41l-.12-.16A11.53,11.53,0,0,0,309.55,388a6.36,6.36,0,0,0-4-1.43h-.35l-.43,0c-4.44.35-7.11.57-8.48,4.79a.49.49,0,0,0,0,.11c-2.06,7-3.31,8.72-3.81,9.13.23-4.28.34-11.68.34-17.57a1.48,1.48,0,0,0,0-.21l-.25-5.14.51-4.81a5.43,5.43,0,0,0,0-.57l-.26-7.83c0-.36.07-.62.09-.81a2.11,2.11,0,0,1,.49-.05h.08a1.56,1.56,0,0,1,1.1.69c2.42,7.07,3.25,9.45,8.18,9.53h.16c4.09,0,7.26-1.89,8.29-4.71a40.72,40.72,0,0,0,5.55,7.76c4.51,4.83,6.92,7.37,8.36,8.89a23.77,23.77,0,0,1,2.1,2.32l.05.06a13.83,13.83,0,0,1,3.29,8.14C330.55,398.41,329.23,400,328.52,400.11Z" transform="translate(-160.23 -177.61)"/><path class="cls-2" d="M225.6,282.55c0-2.14,0-2.15-1.27-3.27s-1.25-1.23-1.48-8c0-5.68-.08-9.36-.12-15,.12-1.47.23-2.93.34-4.4q0-5.27-.11-10.5c0-3.76.08-7.51.11-11.27-.22-4.72-.56-13.54-.56-15.29s.45-2.79,1.82-5.12a4.49,4.49,0,0,0,.69-2.94c0-1-.23-1.08-1.15-.6a58.37,58.37,0,0,0-5.3,3.2c-1.34.91-2.22,1.58-2.66,1.86l-1.31.84c-1.3.79-2.59,1.6-3.87,2.45-1.73,1.22-3.44,2.51-5.11,3.86l-.61.51a2.66,2.66,0,0,0-1.12,2.23v1.28c0,.2.07.4.1.6l.81-.16c.51-.1.72,0,.82,1.07.1.61.31,15.49.31,21.15-.11,5.06-.21,7.11-.31,12.14,0,2.21,0,3.22.1,5,.31,5.56.31,11.37.31,13.39,0,6.87-.21,7.8-1.84,8.63-.71.35-.81.75-.81,2.12s.26,5.93,1.38,5.89,2.19-.56,3.76-.71c1.25-.15,2.63,1.15,3.92,1.1l1.84,0c4.33.08,9.24-8.64,10.05-8.66A1.15,1.15,0,0,0,225.6,282.55Z" transform="translate(-160.23 -177.61)"/><path class="cls-2" d="M268.44,285l4.58-.17a16.81,16.81,0,0,1,3.29.26h.27c4.76,0,5.16-.3,5.16-3.51,0-.42-.13-.69-.8-1.39a6,6,0,0,1-1.72-3.87,4.16,4.16,0,0,1,.13-1.26,30.43,30.43,0,0,0,.53-6.55c0-8.49-3.46-18.84-10-20.25-2.35-.55-2.61-.8-2.61-1.9,0-1.36.65-2.1,2.35-2.76a15.35,15.35,0,0,0,4.85-3.06c4.21-3.83,7.27-13.46,7.27-22.4,0-13.79-4.67-18.48-13.17-21.7-4-1.58-10.52-1.72-17.19.1a29.68,29.68,0,0,0-3.38,1.09c-4.48,1.74-5,1.92-8.37,3.13q-4.62,1.68-9.08,3.7a2,2,0,0,0-.58.15c-1.06.49-1.17.91-1.17,3,0,.48.11.67.93.66,1.29.15,1.88,1.5,1.88,4.31,0,.12-.12,2.73-.35,6.11l-.12,5.15v6.7c-.24,5.18-.24,5.17-.24,5.9a29.09,29.09,0,0,0,.24,4.08c.12,2,.47,16.95.47,21.23,0,.24,0,1.58-.12,3.55-.12,2.57-.23,4.48-.23,5.94v1.47c.11,1.57.11,2.67.11,3a5.17,5.17,0,0,1-1.4,3.72c-.7.63-.7.63-.94,3.29,0,.6.35.95,1.29.93,3.05-.06,3.89,1.93,5.8,1.77l2-.16c1.53,0,3.08,3.31,4.63,3.29h.49c.74-.14,1.23-5.54,1.73-5.54s1.48.1,2.73.22a29.44,29.44,0,0,0,3,.22c2.39,0,3.28-.83,3.28-3.09,0-.8-.25-1.19-1.26-1.83-1.65-1.28-1.89-5.56-1.89-9.64a12.65,12.65,0,0,1,.12-2.25,104.29,104.29,0,0,0,.38-10.82c0-.88.08-1.76.13-2.65a6.58,6.58,0,0,0,.12-1.06c0-.13-.25-1.17-.5-2.6a2.19,2.19,0,0,1-.13-.91,2.84,2.84,0,0,1,2.78-2.76c2.78-.27,5.86,3.54,5.86,7.33,0,1.08-.13,2.7-.26,4.73-.12,1.35-.12,7.56-.12,8.77,0,7.66,2.17,18.68,5.28,18.67C264.93,285.34,266.49,285.19,268.44,285Zm-10.21-51.66c-.77,3.57-2.68,5.9-5.21,6.17a2.21,2.21,0,0,1-2.65-2.2,5.8,5.8,0,0,1,.38-1.89,13.62,13.62,0,0,0,.76-5.38c0-1.45,0-4.09-.13-5.65,0-2-.09,1.45-.13-.53v-2.1c.26-3.61.26-3.61.26-4.14a12.61,12.61,0,0,0-.13-2.22c-.09-.53-.16-.63-.22-.48.11-1.21.22-2.4.22-3.35a8.47,8.47,0,0,0-.76-4c-1-2.26-1-2.25-1-2.77a3.74,3.74,0,0,1,2.77-3.34c3.91-1,6.36,3.38,6.48,11.71,0,3.63,0-1.37.26,1.81.08,4.83.17,4.28.25,9.12A79.65,79.65,0,0,1,258.23,233.38ZM251,217.75c0-.28,0-.63,0-1.06C251,217.37,251,218,251,217.75Z" transform="translate(-160.23 -177.61)"/><path class="cls-2" d="M288,285.23c1.33,0,3.06-.15,5.07-.3,1.6-.14,3.33-.15,4.94-.15h2.28c5.36.27,11.12.42,12.06.42s1.47-.42,1.47-1.54c0-2.54,0-2.54-1.47-4s-1.48-1.55-1.74-9.72q-.08-10.28-.14-20.56c.14-1.73.27-3.47.4-5.21q-.06-6.33-.13-12.67.06-6.77.13-13.52c-.26-5.77-.67-16.62-.67-18.74,0-2,.54-3.09,2.15-5,.67-.69.8-1.39.8-3.07,0-1.13-.27-1.42-1.34-1.45a62.13,62.13,0,0,0-6.3.21c-1.61.15-2.68.31-3.21.32l-1.61,0c-1.61-.05-3.21-.09-4.82-.11q-3.27.08-6.54.25l-.8.06c-1.06.08-1.46.68-1.46,1.93v1.82c0,.32.09.65.13,1l1.07.61c.66.37.93.78,1.06,2.31.13,1,.4,21.81.4,29.66q-.19,10.44-.4,20.88c0,3.07,0,5.88.13,8.39.4,7.83.4,8.4.4,11.2,0,9.52-.26,10.78-2.39,11.78-.93.43-1.07,1-1.07,2.94S286.57,285.23,288,285.23Z" transform="translate(-160.23 -177.61)"/><path class="cls-2" d="M334.59,279.74a4.89,4.89,0,0,1-4.88-3.95c-1.2-6.29-1.2-6.29-2.12-7.7a7.35,7.35,0,0,0-5.86-3c-4-.07-6.81,3-6.81,7.37,0,7,8.18,13.66,16.77,13.68,12.84-.09,22.71-13.22,22.71-29.41a81.23,81.23,0,0,0-1.53-13.89c-1.52-6.57-6.27-16.79-9.78-21.06-10.82-13.22-10.89-13.19-11.4-14.36a16.61,16.61,0,0,1-.93-5c0-2.92,2.12-5.21,4.62-4.89s3.93,2.33,4.46,6c.39,3.9.65,4.34,1.82,5.88a7.93,7.93,0,0,0,4.54,3,5.67,5.67,0,0,0,6.8-5.5c0-6.49-7.37-14.07-15.91-15.31-12.61-1.86-22,10.55-22,27.69,0,12.1,3.76,23,10.54,30.78,9.56,10.94,9.51,10.91,10.44,12.2,2.63,3.69,4.07,7.58,4.07,10.87C340.1,276.79,337.62,279.77,334.59,279.74Z" transform="translate(-160.23 -177.61)"/><path class="cls-2" d="M404.8,283a10.5,10.5,0,0,0-1.21-.9,2.42,2.42,0,0,1-.31-1.52c-.07-1.24-.14-2.49-.2-3.73v-8.62a75.89,75.89,0,0,0,.4-9c0-4.39,0-9.17-.1-14v-3.9c.1-2.23.1-4,.1-5.22a24.19,24.19,0,0,0-.1-2.66c-.2-2.13-.51-7.46-.51-9.28s.21-2.35.92-2.07.81.18.81-1a2.2,2.2,0,0,0-.91-2l-.72-.59a125.92,125.92,0,0,0-17.09-11.41c-.68-.61-1.25-1-1.25-1-1.26-.67-1.84-.12-1.84,1.55a2.4,2.4,0,0,0,.92,2.22,6.23,6.23,0,0,1,1.83,3c0,.64.08,1.29.11,1.93l.12.87a13.84,13.84,0,0,1,.11,1.92c0,13.52,0,16.9-.23,17.52-.45,1.94-1.59,2.62-3.55,2a4.88,4.88,0,0,1-2.33-1.66c-1.06-1.28-1.17-1.8-1.17-6.55s-.24-8.23-.36-10.47-.23-6-.23-8.27c0-1.34.23-1.62,1.41-2.32.82-.36.93-.54.93-1.87,0-1.57-.23-2-1.05-2.42a3.1,3.1,0,0,0-1.06-.36c-1.41-.51-2.12-.82-3.91-1.56s-3.85-1.34-5.81-1.94-6.4-2.24-7.78-2.75a27.5,27.5,0,0,0-3.39-1.07c-.63-.16-1.14,0-1.14.37v2.66c0,1.46,0,1.45.89,2.33a5.24,5.24,0,0,1,2,4.07,25.32,25.32,0,0,1-.13,2.73,16.08,16.08,0,0,0-.12,2.61c0,1.44,0,2,.12,5.55,0,2.21.09,4.41.13,6.61-.08,2.88-.17,5.76-.25,8.64a8.67,8.67,0,0,0,.12,1.34c0,.8.09,1.6.13,2.39-.25,6.81-.25,6.81-.25,7.73v2.24c.12,2.92.12,5,.12,6.07L358.86,266c0,2.5.12,8.17.38,10.81v1.71a2.35,2.35,0,0,1-1.26,2.34c-1,.64-1.26,1.16-1.26,3.15,0,.93.38,1.46,1.26,1.47a10.75,10.75,0,0,0,1.88-.11c.64-.13,6.36-.3,7.32-.28.49,0,2.7,2.19,5.83,2.37,1.44.15,4.31.2,7.11.26.7,0,1.05-.22,1.05-.82a17.13,17.13,0,0,1-.12-3c0-.25-.23-.37-1.05-.89-1.87-1.06-1.88-1.07-1.87-2.53,0-1,.11-4.57.23-5.66s.24-1.93.24-1.93l-.12-4.64a13.68,13.68,0,0,1,.12-1.69,18.7,18.7,0,0,0,.11-2.66c0-.85,0-2.19-.11-4s-.12-3.19-.12-4a19.55,19.55,0,0,1,.12-2.78c.07-.84.15-1.67.23-2.51-.35-4.69-.35-4.7-.35-5.31,0-2.93,1.77-4.55,4.08-3.88,1.85.54,3.32,3.57,3.32,6.82,0,1.27-.07,2.54-.11,3.82,0,1.06.07,2.11.11,3.17s-.07,2.16-.11,3.24v6.42c0,2.68,0,2.69.23,6.56l-.12,2.79c0,.58.12,4,.23,6.11-.12,3-.11,3-1.26,3.32-.79.31-1,1.24-1,3.37,0,.95.13.95,4.09,1a5.1,5.1,0,0,0,1-.09c3.35-.14,4.85-2.22,6.26-2.17l1.72.06,2.33.18,2.6.2c.93.13,1.75.26,2.25.28.92,0,.91-.06.91-1.63v-.68C405,283.45,405,283.16,404.8,283Z" transform="translate(-160.23 -177.61)"/><path class="cls-2" d="M257.11,344.94a19.21,19.21,0,0,1-2.53-.2c-.5-.07-.5-.07-.75,0-.88,0-1.38.45-2.25,2s-1.61,2.37-2.35,2.24a3.19,3.19,0,0,1-1.84-1.71c-.74-1.63-.86-2.88-.86-8.18a28.79,28.79,0,0,1-.24-4.59c0-2.71.12-8.36.24-8.85l.12-1.71c.13-2.34.85-3.3,2.33-3.24,2.21.06,6,5.57,6.48,9.76.38,2.47,1.39,3.59,3,3.73a3.46,3.46,0,0,0,4-3.27c0-.66,0-.67-.77-4.26-.91-4-1.67-7.69-2.32-11-.12-.4-.89-.66-1.65-.67a11.83,11.83,0,0,0-4.92.72,4.67,4.67,0,0,1-1.75.36l-4.79-.08-3.14.19c-1.32.09-2.86.06-4.73,0a29.48,29.48,0,0,1-3.36-.2l-1.71,0-1.46,0a21.41,21.41,0,0,1-2.45,0,23.64,23.64,0,0,1-2.51-.19h-.33c-.75,0-1,.49-1,2.35,0,.32.21.64.85,1.31a4.22,4.22,0,0,1,1.52,3.2v1.71a22,22,0,0,0-.11,2.75v4.58c-.21,2.82-.21,2.82-.21,3.77l.21,12.19c-.1,2.21-.54,13.77-.54,16.5,0,.93.07,1.87.11,2.81s.11,2.51.11,4.31a60.15,60.15,0,0,0,.43,9.44c.11,1.46-.55,1.95-1.95,1.75-.86-.19-1.07,0-1.07,1.16a2.69,2.69,0,0,0,1,2.18,4.34,4.34,0,0,0,.75.54l.54.45c1.88,1.57,3.81,3,5.76,4.42q1.14.74,2.28,1.44c1.87,1,1.76,1.27,9.3,5.28.89.4,1.78.8,2.67,1.18.66.34,1.31.69,2,1,1.11.49,1.48,0,1.48-1.87a3,3,0,0,0-.87-2.25c-2.71-2.77-3.18-3.73-3.06-6.76v-2.84c-.05-.63-.09-1.27-.13-1.9v-4.57l-.12-2.63v-2.71l-.12-2.39a5.67,5.67,0,0,1-.12-1.27v-1.1l.24-2.39c.37-10,.37-10.52.86-11.76s2.08-1.77,3.82-1.43,3.12,1.73,3.88,4.45c1.39,4.51,1.64,5,3.55,5.34,2.17.42,4.37-.54,4.37-1.87,0-.36,0-.48-3.86-13.45C258.38,346.13,257.87,345.17,257.11,344.94Z" transform="translate(-160.23 -177.61)"/><path class="cls-2" d="M305.55,390.69c-4.67.38-4.81.33-5.36,2-2.74,9.34-4.8,12.46-8.48,12.17-2-.17-3.41-1.44-3.41-3.25.27-3.73.41-11.82.41-18.51l-.27-5.46.54-5.13-.27-8.11a7.16,7.16,0,0,1,.41-2.35c.4-1.51,2.31-2.54,4.5-2.46a5.55,5.55,0,0,1,4.79,3.38c2.33,6.8,2.33,6.81,4.39,6.84,2.61,0,4.67-1.1,4.67-2.65a23.32,23.32,0,0,0-1-5.5c-.55-1.55-.83-3-1.24-4.23-2.06-7.76-2.2-8-5.76-8.08-1.79,0-2.47.38-4.39,2.86a3.8,3.8,0,0,1-2.87,1.59,3,3,0,0,1-2.86-2.48,36.43,36.43,0,0,1-.68-4.22,5.5,5.5,0,0,0,.13-1.11c0-1.21-.09-2.42-.13-3.63V338.6c0-2-.14-7.81-.27-8.37-.14-1.82-.28-3.22-.28-3.77,0-2.51,1.5-5.12,3.41-5.11,2.59,0,6,4.79,7.39,9.16,1.37,5.21,2.05,5.93,4.8,5.94s3.3-.84,3.3-3.66a129.56,129.56,0,0,0-3.3-16.87c-.55-1.27-.27-3.15-3.29-3.16-.27,0-2.37.45-2.92.59-3.15,1.12-3.3.31-8.48.29-2.45.13-8.24.63-12.37.87a12.81,12.81,0,0,1-3.12.3c-2.65-.43-3.93.82-7.06.79-1.57,0-2.35.38-2.35,1.17,0,2.13.13,2.93.52,3.34,1.95,1.91,2.35,2.33,2.48,3.81,0,1.69-.09,4.06-.13,5.76,0,1.34.26,6.43.65,15.59,0,.14-.13,1.07-.26,2.53s-.26,3.19-.26,4.93a51.09,51.09,0,0,0,.39,5.94,18.49,18.49,0,0,1,.13,2.3,38.91,38.91,0,0,1-.39,6.12c.05,1.7.09,3.41.13,5.11,0,1.07-.08,2.13-.13,3.2,0,.27.13,1.09.26,2.32a6,6,0,0,1,.13,1.37,5.49,5.49,0,0,1-.13,1.32v.93l-.39,3.55c-.13,1.31-.26,2.36-.26,2.49,0,1.8.09,3.59.13,5.38,0,7.91,0,7.92-2,8.61-1,.26-1,.25-1.17,3,0,1.06.39,1.45,2,1.88a25.55,25.55,0,0,0,3.14.68c1.71.28,3.42.67,5.55,1.1,11.74,2.31,20.44,3.12,24.54,4.32a21.77,21.77,0,0,0,5.07.72c1.51,0,2.06-.4,2.06-1.67.14-1.12.28-2.25.41-3.38.1-1.5.19-3,.28-4.51v-1.12c.28-2.82.28-2.82.55-6.77l.27-2.82A2.17,2.17,0,0,0,305.55,390.69Z" transform="translate(-160.23 -177.61)"/><path class="cls-2" d="M337.81,341.91c-11.13-11.88-11.21-12.15-11.73-13.22a16.82,16.82,0,0,1-.95-5.09c0-3.07,2.18-5.71,4.75-5.75s4,1.83,4.58,5.55c.4,4,.67,4.45,1.88,5.84a6.17,6.17,0,0,0,4.66,2.21,7.64,7.64,0,0,0,7-7.38c0-6.78-7.55-12.73-16.34-12.75-13,0-22.67,13.16-22.65,31.13,0,12.65,3.85,24.06,10.83,31.66,9.83,10.54,9.79,10.27,10.74,11.55a17.92,17.92,0,0,1,4.18,10.71c0,3.88-2.55,7.48-5.67,7.89a4.33,4.33,0,0,1-5-3.52c-1.23-6.47-1.23-6.47-2.18-7.86a7,7,0,0,0-6-2.73c-4.11.17-7,3.41-7,8,0,7.37,8.4,14.28,17.24,13.19,13.22-1.67,23.33-18.76,23.32-35.61a78,78,0,0,0-1.56-14.07C346.28,355.23,341.42,345.73,337.81,341.91Z" transform="translate(-160.23 -177.61)"/><path class="cls-2" d="M388.09,316.06a16.81,16.81,0,0,0-3.14-.43,2.76,2.76,0,0,0-1.44.47c-.45.34-2,.62-5.54.74l-5.49.4a53,53,0,0,1-7.75.44,16.71,16.71,0,0,1-4.34-.54c-2.89-1.1-3-1.11-4.81-1.08-2.42,0-3.46.3-3.72.83-.9,2-2.72,12.12-2.72,14.93,0,1.86,1.18,2.72,3.62,2.54,2.71-.2,4.47-1.91,4.47-4.23a9.08,9.08,0,0,0-.12-1.67,11.68,11.68,0,0,1-.13-2.06c0-2.47,1.4-4.33,3.16-4.4,1.12,0,1.87,1.32,1.87,3.22a7.64,7.64,0,0,1-.12,1.65,28.65,28.65,0,0,0-.5,5.12c0,1.78.12,4.18.25,7.34l.12,7.34a48,48,0,0,1-.5,6.94c.13,2.86.25,5.71.38,8.56-.05.6-.09,1.2-.13,1.8-.12,1-.25,1.84-.25,2.09s.13,2.77.38,6.38v4.07c-.13,1.68-.13,2.95-.13,3.46,0,1.27.13,3.26.25,5.88a18.6,18.6,0,0,1,.13,2.37c0,4.81-.87,8.32-2.64,10-1.63,1.49-1.76,1.79-1.76,3.73,0,1,.38,1.29,1.39.9,1.26-.61,1.26-.6,2.88-1.26a40,40,0,0,0,6.52-3.2c1.57-.9,2.89-1.6,4-2.19.83-.46,1.54-.86,2.24-1.16a50.91,50.91,0,0,0,7.13-4.42,1.83,1.83,0,0,0,1-1.72c0-1.77-.22-2.37-1-2.5-1.13,0-1.58-.86-1.47-2.73-.08-.67-.15-1.34-.23-2a10.69,10.69,0,0,1-.11-2q.12-9.39.23-18.73l-.12-8.19.12-12.1c0-.68,0-2-.12-4.26v-6.89a18,18,0,0,0,.12-2.15,6.48,6.48,0,0,0-.46-2.44,4.27,4.27,0,0,1-.45-1.65,2.31,2.31,0,0,1,1.81-2.29,2.7,2.7,0,0,1,3.13,2.37,7.8,7.8,0,0,1-.11,1.53,5.86,5.86,0,0,0-.11,1.32,3.35,3.35,0,0,0,4.15,3.46,3,3,0,0,0,2.55-3c0-.31-.22-1.76-.74-4.44C388.74,316.69,388.74,316.64,388.09,316.06Z" transform="translate(-160.23 -177.61)"/><path class="cls-3" d="M449.66,329.53c-.64-2.49-2.27-6.46-6.44-11.25a48.7,48.7,0,0,1-7.64-14.16c0-.15,0-.34,0-.56l0-.65c0-.64-.06-1.28-.1-1.91-.07-1.22-.13-2.38-.13-3.48a30.5,30.5,0,0,0-.06-4.29,4.38,4.38,0,0,0-3.14-3.48,4.16,4.16,0,0,0-4.37,1.46,17.93,17.93,0,0,1-1.57,1.66l-1,1h0a6.39,6.39,0,0,0-.52.73,3.49,3.49,0,0,0-1.39-2.21c-3-2.16-8.09-4.27-16.05-6.64h0a192.11,192.11,0,0,0-19.28-3.91c-1.53-.25-29.93-4.77-80.29-6.06h-5.35c-50.37.78-78.2,5.69-80.27,6.07a193.78,193.78,0,0,0-19.24,3.9h0c-8,2.37-13.07,4.48-16.06,6.64a3.49,3.49,0,0,0-1.39,2.21,6.43,6.43,0,0,0-.51-.73h0c-.32-.34-.67-.68-1-1a18.26,18.26,0,0,1-1.62-1.72,4.12,4.12,0,0,0-4.31-1.4,4.36,4.36,0,0,0-3.14,3.48,2.26,2.26,0,0,0,0,.28c0,.27-.05.79-.05,1.88,0,.54,0,1.22,0,2.09,0,.57,0,1.14,0,1.73,0,.38,0,.76-.06,1.13s0,.43,0,.66c0,.61-.07,1.23-.09,1.84l0,.23c-.2,2.64-.38,4.93-7.75,15.29a29.29,29.29,0,0,0-6.08,10.18c-.11.35-.2.68-.28,1a.09.09,0,0,0,0,.05,5.34,5.34,0,0,0-.09.53c0,.13,0,.25,0,.37a1.2,1.2,0,0,0,0,.19,2.67,2.67,0,0,0,.08.48.06.06,0,0,0,0,0,2.91,2.91,0,0,0,.16.5,9.21,9.21,0,0,0,2.11,6.82c3,3.89,7.51,6.55,13.43,7.95l.23.08c1.13.25,2.31.46,3.55.63l.27,0,1.42.17c.59.06,1.18.11,1.79.15s1.21.06,1.84.06a39.25,39.25,0,0,0,8.05-.94,122.44,122.44,0,0,0,13-3.26.84.84,0,0,1,.14-.06l.07,0c6.86-2.61,10.15-4.69,14.67-9.27l.09-.09h0a14.89,14.89,0,0,0,2.3-3.18,5,5,0,0,0,2.51-3.22,5.85,5.85,0,0,0-.23-4,3.34,3.34,0,0,0-.24-1.24,6.52,6.52,0,0,0-.86-1.45c.6-.12,1.18-.23,1.7-.31,63.65-7.25,96-7.25,157.35,0,.8.12,2.75.42,5.3.91a5.31,5.31,0,0,0-.45.85,3.55,3.55,0,0,0-.24,1.24,5.79,5.79,0,0,0-.22,4,4.85,4.85,0,0,0,2.52,3.22,14.3,14.3,0,0,0,2.29,3.18l.09.1c4.48,4.54,7.75,6.62,14.48,9.2l.3.12.57.21a60.6,60.6,0,0,0,18,4h.53a28.63,28.63,0,0,0,6.64-.93l.28-.06a3.33,3.33,0,0,0,.63-.21c5.75-1.43,10.13-4.06,13-7.83a9.18,9.18,0,0,0,2.12-6.81A3.46,3.46,0,0,0,449.66,329.53Z" transform="translate(-160.23 -177.61)"/><path class="cls-4" d="M438.77,326.57a1.63,1.63,0,0,0,.63.78,4.61,4.61,0,0,1,1.07,6.13c-2,4.59-12.63,9.16-14.17.85l-.19-1.74c.34-2.21-.32-9.45-2.09-21.69a42.49,42.49,0,0,1-.69-9.08,3.34,3.34,0,0,1-3.63-1.88,14.82,14.82,0,0,0-2.77,3.47c-.41.91-1.08,9.71-1.07,10,0,2.68,5,5.68,6.62,9,3.65,7.17,3.36,12.16-.78,15-3.71,2.55-8.76,2.2-15.14-1-3.07-1.51-4.43-3.45-4.11-5.73a2.53,2.53,0,0,1,.43-1.08,2.91,2.91,0,0,1,1.23-1l.11-.06a3.53,3.53,0,0,1,.49-.17l.29-.08a3,3,0,0,1,.45-.09,3.4,3.4,0,0,1,.46-.06l.38,0h.94a9.33,9.33,0,0,1,1,.11c.61.08.2-.39,0-.54l-.26-.16-.25-.13h0c-3.93-1.91-20.41-4.73-12.29,4.26,4.17,4.23,7.07,6,13.41,8.45a118.23,118.23,0,0,0,12.65,3.2c.36.07.67.14.94.21a6.14,6.14,0,0,1,1.62-.33,8.77,8.77,0,0,1,2.6.21c.79-.08,1.59-.14,2.39-.15a8.23,8.23,0,0,1,3,.11c5.67-1.14,9.87-3.43,12.53-6.9C450,329.35,438.77,326,438.77,326.57Z" transform="translate(-160.23 -177.61)"/><path class="cls-4" d="M404.68,323.67c.12,0,.72,0,.32-.12-3.18-1.42-7.52-3.18-10.09-3.35-.91,1-2.75,2.44-3.15,3.42C395.5,321.52,401.5,322.54,404.68,323.67Z" transform="translate(-160.23 -177.61)"/><path class="cls-4" d="M406.67,331.56c.44,1.77,5.58,3.55,9.05,2.41,1.81-.6,1.7-2.13.8-3.3a17,17,0,0,0-4-3.59c-.27-.13-.32.09-.23.14,1.53.83,1,3.7-.4,4-1.7.5-2.65-.16-4-.34C407.31,330.82,406.54,331,406.67,331.56Z" transform="translate(-160.23 -177.61)"/><path class="cls-4" d="M206.25,327.31h0l-.25.13-.26.16c-.19.15-.6.62,0,.54a9.33,9.33,0,0,1,1-.11h.94l.39,0a3.62,3.62,0,0,1,.46.06l.45.09.29.08a4.75,4.75,0,0,1,.49.17l.1.06a3,3,0,0,1,1.24,1,2.66,2.66,0,0,1,.42,1.08c.32,2.28-1,4.22-4.11,5.73-6.38,3.21-11.43,3.56-15.14,1-4.14-2.8-4.43-7.79-.77-15a21,21,0,0,0,2.61-9c0-.32-.66-9.12-1.07-10a14.82,14.82,0,0,0-2.77-3.47,3.33,3.33,0,0,1-3.63,1.88c.19,1.55,0,4.55-.69,9.08-1.77,12.24-2.42,19.48-2.09,21.69l-.18,1.74c-1.54,8.31-12.14,3.74-14.18-.85a4.6,4.6,0,0,1,1.08-6.13,1.78,1.78,0,0,0,.63-.78c0-.53-11.23,2.78-5.84,9.8q5.24,6.79,18.16,7.65a32.65,32.65,0,0,0,8.93-.8,117.63,117.63,0,0,0,12.65-3.2c6.34-2.41,9.25-4.22,13.42-8.45C226.65,322.58,210.18,325.4,206.25,327.31Z" transform="translate(-160.23 -177.61)"/><path class="cls-4" d="M219.07,320.2c-2.56.17-6.9,1.93-10.09,3.35-.4.15.2.1.32.12,3.19-1.13,9.19-2.15,12.92-.05C221.83,322.64,220,321.16,219.07,320.2Z" transform="translate(-160.23 -177.61)"/><path class="cls-4" d="M198.27,334c3.46,1.14,8.6-.64,9-2.41.13-.55-.65-.74-1.24-.72-1.34.18-2.29.84-4,.34-1.45-.26-1.93-3.13-.41-4,.1-.05,0-.27-.23-.14a17.25,17.25,0,0,0-4,3.59C196.56,331.84,196.45,333.37,198.27,334Z" transform="translate(-160.23 -177.61)"/><path class="cls-4" d="M176.76,335.87a10.26,10.26,0,0,0-3.07-3.69c-1.38.14-1.87,1.94-.81,3.3,2.1,2.84,7.58,3.3,8.88.07.51-1.33-.17-3-2.19-5C179.24,333.53,178.29,335.3,176.76,335.87Z" transform="translate(-160.23 -177.61)"/><path class="cls-4" d="M167.74,326.84a32.65,32.65,0,0,1,4.14-5.93,52,52,0,0,0,8.39-15.63,12.94,12.94,0,0,0,.12-1.85c.08-1.86.23-3.71.23-5.58,0-1.56,0-2.66,0-3.22-.4-.42-.76-.83-1.12-1.27s-1.21-.08-1.29.4c0,.24-.06,1.48,0,3.71,0,1.87-.15,3.72-.23,5.58-.26,3.38-.24,5.89-8.51,17.48a25.23,25.23,0,0,0-5.72,9.86A8.35,8.35,0,0,1,167.74,326.84Z" transform="translate(-160.23 -177.61)"/><path class="cls-4" d="M433,328.07a3.1,3.1,0,0,0-1.24,3,5,5,0,0,0,1.25,3.1c.29-.55.63-1.13.92-1.67,1.28-2.17,4.3-2.07,5,.57,1.42-1.81.33-5.56-2.38-6.1A5.48,5.48,0,0,0,433,328.07Z" transform="translate(-160.23 -177.61)"/><path class="cls-4" d="M437.1,335.48c1.06-1.36.57-3.16-.81-3.3a10.37,10.37,0,0,0-3.07,3.69c-1.53-.57-2.47-2.34-2.8-5.29-2,2-2.7,3.64-2.2,5C429.52,338.78,435,338.32,437.1,335.48Z" transform="translate(-160.23 -177.61)"/><path class="cls-4" d="M429.59,303.43a15,15,0,0,0,.12,1.85,52.27,52.27,0,0,0,8.39,15.63,32.65,32.65,0,0,1,4.14,5.93,8.31,8.31,0,0,1,4,3.55c-.65-2.59-2.37-6-5.72-9.86a51.93,51.93,0,0,1-8.39-15.63,15,15,0,0,1-.12-1.85c-.07-1.86-.23-3.71-.23-5.58,0-2.23,0-3.47,0-3.71-.08-.48-.83-1-1.29-.4s-.72.85-1.12,1.27c0,.56,0,1.66,0,3.22C429.36,299.72,429.52,301.57,429.59,303.43Z" transform="translate(-160.23 -177.61)"/><path class="cls-5" d="M422.65,334.17c1.44-2.45,1.71-8.07-3.83-13.54a35.26,35.26,0,0,1-4.6-5.34c0-.52,2,1.46,1.81,1a10.06,10.06,0,0,1-1-2.41,19.71,19.71,0,0,1,.08-6.35,7.17,7.17,0,0,0,.1-2.35c-1.61,1.88-1.55,6.39-2,7.6a16.81,16.81,0,0,1,0-4.21c.09-2.7,1.7-4.61,4.76-8.34,1.88-1.84,3-3.54,3.26-4.95-2.63-1.89-7.6-3.92-15-6.12a191.49,191.49,0,0,0-18.8-3.81s-28-4.7-79.77-6h-5.3c-51.57.8-79.77,6-79.77,6a191.49,191.49,0,0,0-18.8,3.81c-7.41,2.2-12.38,4.23-15,6.12.25,1.41,1.38,3.11,3.25,4.95,3.07,3.73,4.68,5.64,4.76,8.34a16.81,16.81,0,0,1,0,4.21c-.49-1.21-.43-5.72-2-7.6a7.17,7.17,0,0,0,.1,2.35c.75,6.09.8,6.63-.68,12-.09.33-.12.54-.08.55,1.24.19,2.66-2.38,4.57-3.57a20.34,20.34,0,0,1-3.51,4.12c-5.55,5.47-5.28,11.09-3.84,13.54,2.39,4,7.14,4.47,14.35,1.66,6.92-2.82,4.76-7.21,1.78-7.11-1.7,0-2.47.11-2.89.08-1.07-.16-.64-1.09-.23-1.52,1.2-1.19,3.31-2,6.51-2.38,4.67-.65,7.73-.71,9.1-.25s2.18,1.22,2.09,2.09l0,.81a2.44,2.44,0,0,0,.36-2.88c-.91-1.24-3.47-1.67-7.76-1.31-6.74.58-10.69,2.05-11.94,4.4-.64,1.07.57,2,2.31,2l1.63-.07c2.73-.17,3.71,2.24-.74,4.48-2.3,1.17-7.63,1.15-9.06.51-5-2.51,2.06-8.94,11-12.28,7.91-2.95,13.9-4.71,18-5.31,63.74-7.26,96.83-7.26,158.26,0a120.3,120.3,0,0,1,22,5.31c9,3.34,16.08,9.77,11.05,12.28-1.42.64-6.76.66-9.05-.51-4.46-2.24-3.48-4.65-.74-4.48l1.62.07c1.74.05,2.95-.92,2.32-2-1.26-2.35-5.21-3.82-11.95-4.4-4.29-.36-6.85.07-7.76,1.31a2.42,2.42,0,0,0,.37,2.88l-.05-.81c-.09-.87.61-1.54,2.09-2.09s4.43-.4,9.1.25c3.2.42,5.31,1.19,6.51,2.38.41.43.85,1.36-.23,1.52-.42,0-1.19,0-2.89-.08-3-.1-5.14,4.29,1.78,7.11C415.51,338.64,420.26,338.15,422.65,334.17Z" transform="translate(-160.23 -177.61)"/><path class="cls-5" d="M180.86,330.18l1.46,1.78.85-9.3q2.28-18,2.08-19.43c-.25-1.67-2.8-6.8-2.95-6.93-.91-.95-2-1.9-2.81-2.94-.46-.57-1.21-.08-1.29.4,0,.24-.06,1.48,0,3.71,0,1.21-.06,2.42-.13,3.63a.41.41,0,0,1,0,.08,15.29,15.29,0,0,1-.48,5.79,50.57,50.57,0,0,1-2.21,5.53,25.55,25.55,0,0,1-2.75,4.89,9.47,9.47,0,0,1-3.42,3.41,24.92,24.92,0,0,0-5.5,9.59c1.41-2.54,3.84-3.72,6.83-4.46A10.38,10.38,0,0,1,180.86,330.18Z" transform="translate(-160.23 -177.61)"/><path class="cls-5" d="M426.3,334.33l-.19-1.74c.47-2.9-.32-9.45-2.09-21.69a42.49,42.49,0,0,1-.69-9.08,3.34,3.34,0,0,1-3.63-1.88,14.82,14.82,0,0,0-2.77,3.47c-.41.91-1.08,9.71-1.07,10,0,2.68,5,5.68,6.62,9,3.65,7.17,3.36,12.16-.78,15q-4.76,3.28-12.41.23l-.38,2.46a58.57,58.57,0,0,0,17.53,4,25.33,25.33,0,0,0,6.51-.9l-.66-4.24C429.55,339.2,427,338.07,426.3,334.33Z" transform="translate(-160.23 -177.61)"/><path class="cls-5" d="M395.45,331.57l3.06-6.2C394.12,325.2,390.85,326.52,395.45,331.57Z" transform="translate(-160.23 -177.61)"/><path class="cls-5" d="M177,328.07a5.49,5.49,0,0,0-3.56-1.12c-2.71.54-3.8,4.29-2.38,6.1.71-2.64,3.73-2.74,5-.57.3.54.63,1.12.93,1.67a5,5,0,0,0,1.24-3.1A3.12,3.12,0,0,0,177,328.07Z" transform="translate(-160.23 -177.61)"/><path class="cls-5" d="M192.28,337.36c-4.14-2.8-4.43-7.79-.77-15a21,21,0,0,0,2.61-9c0-.32-.66-9.12-1.07-10a14.82,14.82,0,0,0-2.77-3.47,3.33,3.33,0,0,1-3.63,1.88c.19,1.55,0,4.55-.69,9.08-1.77,12.24-2.42,19.48-2.09,21.69l-.18,1.74c-.71,3.74-3.26,4.87-6,4.55l-.66,4.24a41.23,41.23,0,0,0,6.51.9,32.65,32.65,0,0,0,8.93-.8,120.87,120.87,0,0,0,12.6-3.17l-.38-2.46Q197,340.64,192.28,337.36Z" transform="translate(-160.23 -177.61)"/><path class="cls-5" d="M173.69,332.18c-1.38.14-1.87,1.94-.81,3.3a6,6,0,0,0,3.81,2.22l.29-1.9a.81.81,0,0,1-.22.07A10.26,10.26,0,0,0,173.69,332.18Z" transform="translate(-160.23 -177.61)"/><path class="cls-5" d="M215.48,325.37l3.06,6.2C223.13,326.52,219.86,325.2,215.48,325.37Z" transform="translate(-160.23 -177.61)"/><path class="cls-5" d="M440.54,320.53a51.93,51.93,0,0,1-8.39-15.63,15,15,0,0,1-.12-1.85c-.07-1.86-.23-3.71-.23-5.58,0-2.23,0-3.47,0-3.71-.08-.48-.83-1-1.29-.4-.81,1-1.89,2-2.8,2.94-.15.13-2.7,5.26-2.95,6.93-.15,1,.56,7.44,2.08,19.43l.85,9.3,1.45-1.78a10.38,10.38,0,0,1,10.31-4.25c3,.74,5.42,1.92,6.83,4.46C445.61,327.8,443.89,324.36,440.54,320.53Z" transform="translate(-160.23 -177.61)"/><path class="cls-5" d="M436.29,332.18a10,10,0,0,0-3.07,3.69,1,1,0,0,1-.22-.07l.3,1.9a6,6,0,0,0,3.8-2.22C438.16,334.12,437.67,332.32,436.29,332.18Z" transform="translate(-160.23 -177.61)"/><path class="cls-2" d="M215.88,310.87l-2.56-14.36-4.12-3.34,21-3.74,1.69,9.51h0l-6.09-5.31-6.8,1.21,1.16,6.53,3.45-.61,2.49-3.11,1.52,8.54L224,303.65l-3.41.61,1,5.79,4,3.43-12.76,2.27Z" transform="translate(-160.23 -177.61)"/><path class="cls-2" d="M240,310.12a10.77,10.77,0,0,1-4.34-3.84,13.92,13.92,0,0,1-1.37-12,10.72,10.72,0,0,1,3.36-4.67,11.08,11.08,0,0,1,11.24-1.3,10.65,10.65,0,0,1,4.34,3.8,13.34,13.34,0,0,1,2.07,5.89,12.92,12.92,0,0,1-.65,6,11,11,0,0,1-3.27,4.75,10.22,10.22,0,0,1-5.5,2.29A10.46,10.46,0,0,1,240,310.12Zm7.79-3.31a9.21,9.21,0,0,0,1-3.58,20.12,20.12,0,0,0,0-4.45,22.82,22.82,0,0,0-.93-4.27,9.29,9.29,0,0,0-1.82-3.33,2.94,2.94,0,0,0-5,.57,9.57,9.57,0,0,0-1,3.64,21.06,21.06,0,0,0,.07,4.41,21.37,21.37,0,0,0,1,4.27,9.13,9.13,0,0,0,1.84,3.27,2.88,2.88,0,0,0,4.85-.53Z" transform="translate(-160.23 -177.61)"/><path class="cls-2" d="M258.26,306.12l4.4-8.81-5.83-7.89-4.42-2.65q1.86-.16,5.93-.46l5.94-.44-1.73,2.92,3.25,4.34h.06l2.66-5.24-1.77-2.19,9.77-.71v0l-4,2.92-4.37,8.33,6.43,8.7,3.38,2.85-11.29.83,2-3.11-3.49-4.82h-.07l-2.83,5.56,2.23,2.53-10.18.74Z" transform="translate(-160.23 -177.61)"/><path class="cls-2" d="M288.72,306.44a11.46,11.46,0,0,1-4.08-4.32,12.54,12.54,0,0,1-1.58-5.91,13.08,13.08,0,0,1,1.25-6.13,10.64,10.64,0,0,1,3.78-4.34,10.46,10.46,0,0,1,5.61-1.68,9.49,9.49,0,0,1,2.6.27,12.08,12.08,0,0,1,2.53,1l2.62-1.45.34,8.9h-.11a16.6,16.6,0,0,0-3.59-4.63,5.87,5.87,0,0,0-4-1.45,3.26,3.26,0,0,0-2.54,1.31,8.16,8.16,0,0,0-1.52,3.4,19.15,19.15,0,0,0-.42,4.67,15,15,0,0,0,.75,4.76,6.12,6.12,0,0,0,1.87,2.84,4.19,4.19,0,0,0,2.78.88,5,5,0,0,0,3-1.05,7,7,0,0,0,2.13-2.73,8.84,8.84,0,0,0,.76-3.76,2.34,2.34,0,0,1,1.49,1.07,3.89,3.89,0,0,1,.49,1.91,7.12,7.12,0,0,1-1,3.81,8,8,0,0,1-3,2.95,9.2,9.2,0,0,1-4.46,1.19A10.14,10.14,0,0,1,288.72,306.44Z" transform="translate(-160.23 -177.61)"/><path class="cls-2" d="M307.48,303.51l.11-15.13-3.44-4,12.75.09-3.5,4.12-.11,14.83,3.44,3.93L304,307.23Z" transform="translate(-160.23 -177.61)"/><path class="cls-2" d="M325.3,303.62l.59-15.42-3.46-.14-4.22,8h-.07l.45-11.69,20.86.8L339,296.93h-.1l-3.66-8.37-3.54-.14-.59,15.46,3.62,4.05-13.79-.53Z" transform="translate(-160.23 -177.61)"/><path class="cls-2" d="M343.24,304.71l1.09-15.09-3.17-4.25,12.71.92-3.75,3.89L349.05,305l3.18,4.15-12.69-.91Z" transform="translate(-160.23 -177.61)"/><path class="cls-2" d="M357,305.75l1.69-15-3-4.37,21.05,2.37-1,8.52h0l-4.35-5.72-6.86-.78-.7,6.25,3.48.4,3.1-1.74-.85,7.6-2.66-2.56-3.45-.38-.76,6.79,7.23.81,5.93-5.9h0l-1.08,9.52-21.65-2.44Z" transform="translate(-160.23 -177.61)"/><path class="cls-2" d="M379,304.25l.13,0a9.86,9.86,0,0,0,1.89,2.65,14.64,14.64,0,0,0,3.15,2.48,11,11,0,0,0,3.8,1.43,5.47,5.47,0,0,0,1.85,0,3.69,3.69,0,0,0,1.62-.67,2.08,2.08,0,0,0,.82-1.38,2.19,2.19,0,0,0-.55-1.9,7.53,7.53,0,0,0-2.7-1.66l-2.7-1.15a16,16,0,0,1-3.88-2.21,5.82,5.82,0,0,1-1.9-2.58,6.68,6.68,0,0,1-.17-3.34,6.29,6.29,0,0,1,1.75-3.43,7.64,7.64,0,0,1,3.41-2,9.12,9.12,0,0,1,4.09-.21,11,11,0,0,1,2.87.86,14.72,14.72,0,0,1,2.61,1.6l3.29-1.09L397,299.56l-.14,0a12.65,12.65,0,0,0-2.91-3.8,8.49,8.49,0,0,0-4.23-2,6.17,6.17,0,0,0-2.62.07,1.71,1.71,0,0,0-1.37,1.42,1.93,1.93,0,0,0,.73,1.87,8.23,8.23,0,0,0,2.11,1.31l4,1.69a9.84,9.84,0,0,1,3,1.94,6.86,6.86,0,0,1,2,6.26,6.48,6.48,0,0,1-1.88,3.64,8.29,8.29,0,0,1-3.68,2.1,10,10,0,0,1-4.36.21,13.13,13.13,0,0,1-3.36-1,19,19,0,0,1-2.9-1.69l-3.92,1.32Z" transform="translate(-160.23 -177.61)"/></svg>